%TF.GenerationSoftware,KiCad,Pcbnew,7.0.0-rc1-unknown-098b03e17a~164~ubuntu22.04.1*%
%TF.CreationDate,2023-01-20T19:13:20-03:00*%
%TF.ProjectId,Placa_base,506c6163-615f-4626-9173-652e6b696361,Rev. 2.0*%
%TF.SameCoordinates,Original*%
%TF.FileFunction,Legend,Bot*%
%TF.FilePolarity,Positive*%
%FSLAX46Y46*%
G04 Gerber Fmt 4.6, Leading zero omitted, Abs format (unit mm)*
G04 Created by KiCad (PCBNEW 7.0.0-rc1-unknown-098b03e17a~164~ubuntu22.04.1) date 2023-01-20 19:13:20*
%MOMM*%
%LPD*%
G01*
G04 APERTURE LIST*
%ADD10C,0.300000*%
G04 APERTURE END LIST*
D10*
G36*
X138082575Y-84118278D02*
G01*
X138119579Y-84155282D01*
X138172756Y-84261636D01*
X138235714Y-84513468D01*
X138235714Y-84833678D01*
X138172758Y-85085501D01*
X138119580Y-85191857D01*
X138082574Y-85228863D01*
X137993160Y-85273571D01*
X137921124Y-85273571D01*
X137831713Y-85228865D01*
X137794706Y-85191859D01*
X137741528Y-85085505D01*
X137678571Y-84833677D01*
X137678571Y-84513465D01*
X137741526Y-84261642D01*
X137794707Y-84155282D01*
X137831711Y-84118277D01*
X137921124Y-84073571D01*
X137993161Y-84073571D01*
X138082575Y-84118278D01*
G37*
G36*
X133425433Y-84118278D02*
G01*
X133462437Y-84155282D01*
X133515614Y-84261636D01*
X133578572Y-84513468D01*
X133578572Y-84833678D01*
X133515616Y-85085501D01*
X133462438Y-85191857D01*
X133425432Y-85228863D01*
X133336018Y-85273571D01*
X133263982Y-85273571D01*
X133174571Y-85228865D01*
X133137564Y-85191859D01*
X133084386Y-85085505D01*
X133021429Y-84833677D01*
X133021429Y-84513465D01*
X133084384Y-84261642D01*
X133137565Y-84155282D01*
X133174569Y-84118277D01*
X133263982Y-84073571D01*
X133336019Y-84073571D01*
X133425433Y-84118278D01*
G37*
G36*
X139791885Y-82415000D02*
G01*
X139493827Y-82415000D01*
X139642856Y-81967912D01*
X139791885Y-82415000D01*
G37*
G36*
X137006171Y-82415000D02*
G01*
X136708113Y-82415000D01*
X136857142Y-81967912D01*
X137006171Y-82415000D01*
G37*
G36*
X133320457Y-82415000D02*
G01*
X133022399Y-82415000D01*
X133171428Y-81967912D01*
X133320457Y-82415000D01*
G37*
G36*
X134807143Y-82843571D02*
G01*
X134421124Y-82843571D01*
X134331711Y-82798864D01*
X134294705Y-82761859D01*
X134250000Y-82672447D01*
X134250000Y-82528981D01*
X134294706Y-82439567D01*
X134323884Y-82410389D01*
X134468254Y-82362266D01*
X134473924Y-82363287D01*
X134487016Y-82357857D01*
X134807143Y-82357857D01*
X134807143Y-82843571D01*
G37*
G36*
X134807143Y-82057857D02*
G01*
X134492553Y-82057857D01*
X134403140Y-82013150D01*
X134366135Y-81976145D01*
X134321428Y-81886731D01*
X134321428Y-81814696D01*
X134366135Y-81725281D01*
X134403139Y-81688277D01*
X134492553Y-81643571D01*
X134807143Y-81643571D01*
X134807143Y-82057857D01*
G37*
G36*
X142492857Y-82129285D02*
G01*
X142106838Y-82129285D01*
X142017424Y-82084578D01*
X141980419Y-82047573D01*
X141935714Y-81958161D01*
X141935714Y-81814695D01*
X141980420Y-81725281D01*
X142017424Y-81688277D01*
X142106838Y-81643571D01*
X142492857Y-81643571D01*
X142492857Y-82129285D01*
G37*
G36*
X131845338Y-79246803D02*
G01*
X131860865Y-79277856D01*
X131845338Y-79308910D01*
X131814284Y-79324437D01*
X131783229Y-79308909D01*
X131767703Y-79277857D01*
X131783230Y-79246802D01*
X131814283Y-79231276D01*
X131845338Y-79246803D01*
G37*
G36*
X143664286Y-86414286D02*
G01*
X124585713Y-86414286D01*
X124585713Y-84797495D01*
X129858857Y-84797495D01*
X129864287Y-84810587D01*
X129864287Y-85129782D01*
X129860426Y-85165545D01*
X129874133Y-85192959D01*
X129882771Y-85222377D01*
X129893483Y-85231659D01*
X129943141Y-85330974D01*
X129948507Y-85355637D01*
X129977720Y-85384849D01*
X130005883Y-85415127D01*
X130008724Y-85415853D01*
X130037778Y-85444906D01*
X130050668Y-85466609D01*
X130087642Y-85485096D01*
X130123915Y-85504903D01*
X130126837Y-85504693D01*
X130225696Y-85554123D01*
X130255958Y-85573571D01*
X130286611Y-85573571D01*
X130316783Y-85579001D01*
X130329875Y-85573571D01*
X130720498Y-85573571D01*
X130756261Y-85577432D01*
X130783675Y-85563724D01*
X130813093Y-85555087D01*
X130822375Y-85544374D01*
X130921689Y-85494716D01*
X130946351Y-85489352D01*
X130975565Y-85460137D01*
X131005843Y-85431975D01*
X131006569Y-85429134D01*
X131064175Y-85371530D01*
X131095619Y-85313946D01*
X131089335Y-85226083D01*
X131036546Y-85155563D01*
X130954013Y-85124779D01*
X130867938Y-85143504D01*
X130782577Y-85228863D01*
X130693163Y-85273571D01*
X130335412Y-85273571D01*
X130245999Y-85228864D01*
X130208993Y-85191859D01*
X130164287Y-85102447D01*
X130164287Y-84816125D01*
X130208994Y-84726711D01*
X130245999Y-84689705D01*
X130335412Y-84645000D01*
X130470636Y-84645000D01*
X130470968Y-84645211D01*
X130514598Y-84645000D01*
X130535855Y-84645000D01*
X130536210Y-84644895D01*
X130559055Y-84644785D01*
X130577592Y-84632745D01*
X130598807Y-84626516D01*
X130613769Y-84609247D01*
X130632929Y-84596804D01*
X130642015Y-84576649D01*
X130656492Y-84559943D01*
X130659743Y-84537329D01*
X130669134Y-84516501D01*
X130665882Y-84494636D01*
X130669029Y-84472751D01*
X130659536Y-84451964D01*
X130656176Y-84429371D01*
X130641621Y-84412737D01*
X130632436Y-84392624D01*
X130613212Y-84380270D01*
X130593545Y-84357793D01*
X131286628Y-84357793D01*
X131299691Y-84396984D01*
X131311342Y-84436662D01*
X131313557Y-84438581D01*
X131369429Y-84606197D01*
X131377077Y-84641350D01*
X131398753Y-84663026D01*
X131416248Y-84688199D01*
X131429343Y-84693616D01*
X132009298Y-85273571D01*
X131421290Y-85273571D01*
X131358338Y-85292055D01*
X131300653Y-85358628D01*
X131288116Y-85445820D01*
X131324709Y-85525947D01*
X131398814Y-85573571D01*
X132333144Y-85573571D01*
X132338199Y-85576331D01*
X132376789Y-85573571D01*
X132392998Y-85573571D01*
X132398217Y-85572038D01*
X132426062Y-85570047D01*
X132439655Y-85559871D01*
X132455950Y-85555087D01*
X132474232Y-85533987D01*
X132496581Y-85517258D01*
X132502515Y-85501346D01*
X132513635Y-85488514D01*
X132517607Y-85460883D01*
X132527365Y-85434724D01*
X132523755Y-85418130D01*
X132526172Y-85401322D01*
X132514573Y-85375925D01*
X132508640Y-85348649D01*
X132496633Y-85336642D01*
X132489579Y-85321195D01*
X132466091Y-85306100D01*
X132005785Y-84845794D01*
X132715225Y-84845794D01*
X132721429Y-84870610D01*
X132721429Y-84873710D01*
X132726646Y-84891480D01*
X132790856Y-85148317D01*
X132788997Y-85165545D01*
X132801330Y-85190212D01*
X132802568Y-85195161D01*
X132810942Y-85209435D01*
X132871711Y-85330972D01*
X132877077Y-85355636D01*
X132906297Y-85384856D01*
X132934454Y-85415127D01*
X132937294Y-85415853D01*
X132966348Y-85444907D01*
X132979238Y-85466609D01*
X133016204Y-85485092D01*
X133052483Y-85504902D01*
X133055405Y-85504692D01*
X133154266Y-85554123D01*
X133184528Y-85573571D01*
X133215181Y-85573571D01*
X133245353Y-85579001D01*
X133258445Y-85573571D01*
X133363353Y-85573571D01*
X133399117Y-85577432D01*
X133426532Y-85563724D01*
X133455949Y-85555087D01*
X133465230Y-85544375D01*
X133564548Y-85494716D01*
X133589209Y-85489352D01*
X133618420Y-85460140D01*
X133648700Y-85431975D01*
X133649426Y-85429134D01*
X133678480Y-85400080D01*
X133700182Y-85387191D01*
X133718665Y-85350224D01*
X133738475Y-85313946D01*
X133738265Y-85311023D01*
X133779359Y-85228835D01*
X133791983Y-85216966D01*
X133798671Y-85190212D01*
X133800953Y-85185649D01*
X133803884Y-85169358D01*
X133868105Y-84912472D01*
X133878572Y-84896186D01*
X133878572Y-84870606D01*
X133879324Y-84867598D01*
X133878572Y-84849093D01*
X133878572Y-84519687D01*
X133884776Y-84501349D01*
X133878572Y-84476533D01*
X133878572Y-84473432D01*
X133873354Y-84455662D01*
X133848887Y-84357793D01*
X134143770Y-84357793D01*
X134156833Y-84396984D01*
X134168484Y-84436662D01*
X134170699Y-84438581D01*
X134226571Y-84606197D01*
X134234219Y-84641350D01*
X134255895Y-84663026D01*
X134273390Y-84688199D01*
X134286485Y-84693616D01*
X134866440Y-85273571D01*
X134278432Y-85273571D01*
X134215480Y-85292055D01*
X134157795Y-85358628D01*
X134145258Y-85445820D01*
X134181851Y-85525947D01*
X134255956Y-85573571D01*
X135190286Y-85573571D01*
X135195341Y-85576331D01*
X135233931Y-85573571D01*
X135250140Y-85573571D01*
X135255359Y-85572038D01*
X135283204Y-85570047D01*
X135296797Y-85559871D01*
X135313092Y-85555087D01*
X135331374Y-85533987D01*
X135353723Y-85517258D01*
X135359657Y-85501346D01*
X135370777Y-85488514D01*
X135374749Y-85460883D01*
X135384507Y-85434724D01*
X135380897Y-85418130D01*
X135383314Y-85401322D01*
X135371715Y-85375925D01*
X135365782Y-85348649D01*
X135353775Y-85336642D01*
X135346721Y-85321195D01*
X135323233Y-85306100D01*
X134862927Y-84845794D01*
X137372367Y-84845794D01*
X137378571Y-84870610D01*
X137378571Y-84873710D01*
X137383788Y-84891480D01*
X137447998Y-85148317D01*
X137446139Y-85165545D01*
X137458472Y-85190212D01*
X137459710Y-85195161D01*
X137468084Y-85209435D01*
X137528853Y-85330972D01*
X137534219Y-85355636D01*
X137563439Y-85384856D01*
X137591596Y-85415127D01*
X137594436Y-85415853D01*
X137623490Y-85444907D01*
X137636380Y-85466609D01*
X137673346Y-85485092D01*
X137709625Y-85504902D01*
X137712547Y-85504692D01*
X137811408Y-85554123D01*
X137841670Y-85573571D01*
X137872323Y-85573571D01*
X137902495Y-85579001D01*
X137915587Y-85573571D01*
X138020495Y-85573571D01*
X138056259Y-85577432D01*
X138083674Y-85563724D01*
X138113091Y-85555087D01*
X138122372Y-85544375D01*
X138221690Y-85494716D01*
X138246351Y-85489352D01*
X138275562Y-85460140D01*
X138305842Y-85431975D01*
X138306568Y-85429134D01*
X138335622Y-85400080D01*
X138357324Y-85387191D01*
X138375807Y-85350224D01*
X138380850Y-85340989D01*
X138801208Y-85340989D01*
X138808290Y-85373546D01*
X138810667Y-85406773D01*
X138817506Y-85415909D01*
X138819933Y-85427064D01*
X138843488Y-85450619D01*
X138863455Y-85477293D01*
X138874151Y-85481282D01*
X138895433Y-85502564D01*
X138897056Y-85508091D01*
X138918155Y-85526373D01*
X138934886Y-85548723D01*
X138950797Y-85554657D01*
X138963629Y-85565776D01*
X138980434Y-85568192D01*
X138995341Y-85576332D01*
X139006726Y-85575517D01*
X139017420Y-85579506D01*
X139034012Y-85575896D01*
X139050821Y-85578313D01*
X139066268Y-85571258D01*
X139083205Y-85570047D01*
X139092343Y-85563206D01*
X139103495Y-85560780D01*
X139115499Y-85548775D01*
X139130948Y-85541720D01*
X139140127Y-85527435D01*
X139153724Y-85517258D01*
X139157714Y-85506560D01*
X139198480Y-85465793D01*
X139225151Y-85445828D01*
X139236792Y-85414614D01*
X139252761Y-85385372D01*
X139251946Y-85373986D01*
X139255934Y-85363295D01*
X139248852Y-85330740D01*
X139246475Y-85297509D01*
X139239636Y-85288373D01*
X139237210Y-85277219D01*
X139213649Y-85253659D01*
X139193686Y-85226990D01*
X139182991Y-85223001D01*
X139161710Y-85201720D01*
X139160088Y-85196194D01*
X139138988Y-85177911D01*
X139122259Y-85155563D01*
X139106347Y-85149628D01*
X139093515Y-85138509D01*
X139076709Y-85136092D01*
X139061803Y-85127953D01*
X139050418Y-85128767D01*
X139039726Y-85124779D01*
X139023132Y-85128388D01*
X139006323Y-85125972D01*
X138990875Y-85133026D01*
X138973940Y-85134238D01*
X138964802Y-85141078D01*
X138953651Y-85143504D01*
X138941645Y-85155509D01*
X138926196Y-85162565D01*
X138917016Y-85176849D01*
X138903420Y-85187027D01*
X138899430Y-85197723D01*
X138858667Y-85238485D01*
X138831991Y-85258455D01*
X138820346Y-85289675D01*
X138804383Y-85318910D01*
X138805197Y-85330293D01*
X138801208Y-85340989D01*
X138380850Y-85340989D01*
X138395617Y-85313946D01*
X138395407Y-85311023D01*
X138436501Y-85228835D01*
X138449125Y-85216966D01*
X138455813Y-85190212D01*
X138458095Y-85185649D01*
X138461026Y-85169358D01*
X138525247Y-84912472D01*
X138535714Y-84896186D01*
X138535714Y-84870606D01*
X138536466Y-84867598D01*
X138535714Y-84849093D01*
X138535714Y-84519687D01*
X138541918Y-84501349D01*
X138535714Y-84476533D01*
X138535714Y-84473432D01*
X138530496Y-84455662D01*
X138506029Y-84357793D01*
X139515198Y-84357793D01*
X139528261Y-84396984D01*
X139539912Y-84436662D01*
X139542127Y-84438581D01*
X139597999Y-84606197D01*
X139605647Y-84641350D01*
X139627323Y-84663026D01*
X139644818Y-84688199D01*
X139657913Y-84693616D01*
X140237868Y-85273571D01*
X139649860Y-85273571D01*
X139586908Y-85292055D01*
X139529223Y-85358628D01*
X139516686Y-85445820D01*
X139553279Y-85525947D01*
X139627384Y-85573571D01*
X140561714Y-85573571D01*
X140566769Y-85576331D01*
X140605359Y-85573571D01*
X140621568Y-85573571D01*
X140626787Y-85572038D01*
X140654632Y-85570047D01*
X140668225Y-85559871D01*
X140684520Y-85555087D01*
X140702802Y-85533987D01*
X140725151Y-85517258D01*
X140731085Y-85501346D01*
X140742205Y-85488514D01*
X140746177Y-85460883D01*
X140755935Y-85434724D01*
X140752325Y-85418130D01*
X140754742Y-85401322D01*
X140743143Y-85375925D01*
X140737210Y-85348649D01*
X140725203Y-85336642D01*
X140718149Y-85321195D01*
X140694661Y-85306100D01*
X139873961Y-84485400D01*
X139821428Y-84327800D01*
X139821428Y-84244696D01*
X139866135Y-84155281D01*
X139903139Y-84118277D01*
X139992553Y-84073571D01*
X140278875Y-84073571D01*
X140368289Y-84118278D01*
X140437756Y-84187745D01*
X140495339Y-84219188D01*
X140583203Y-84212903D01*
X140653722Y-84160114D01*
X140684505Y-84077581D01*
X140665781Y-83991505D01*
X140603496Y-83929221D01*
X141700912Y-83929221D01*
X142206258Y-85445262D01*
X142205647Y-85462165D01*
X142219918Y-85486243D01*
X142221660Y-85491467D01*
X142230869Y-85504718D01*
X142250562Y-85537942D01*
X142255774Y-85540554D01*
X142259103Y-85545343D01*
X142294786Y-85560104D01*
X142329316Y-85577408D01*
X142335115Y-85576787D01*
X142340501Y-85579015D01*
X142378498Y-85572142D01*
X142416902Y-85568031D01*
X142421442Y-85564375D01*
X142427183Y-85563337D01*
X142455443Y-85537001D01*
X142485517Y-85512789D01*
X142487360Y-85507257D01*
X142491626Y-85503283D01*
X142501158Y-85465865D01*
X143006265Y-83950544D01*
X143008637Y-83884977D01*
X142963722Y-83809200D01*
X142884969Y-83769734D01*
X142797382Y-83779111D01*
X142728767Y-83834353D01*
X142357141Y-84949229D01*
X141992624Y-83855676D01*
X141955181Y-83801799D01*
X141873783Y-83768127D01*
X141787101Y-83783806D01*
X141722658Y-83843859D01*
X141700912Y-83929221D01*
X140603496Y-83929221D01*
X140576506Y-83902231D01*
X140563619Y-83880533D01*
X140526667Y-83862057D01*
X140490374Y-83842239D01*
X140487449Y-83842448D01*
X140388595Y-83793021D01*
X140358330Y-83773571D01*
X140327677Y-83773571D01*
X140297505Y-83768141D01*
X140284413Y-83773571D01*
X139965218Y-83773571D01*
X139929454Y-83769710D01*
X139902038Y-83783418D01*
X139872623Y-83792055D01*
X139863341Y-83802766D01*
X139764026Y-83852425D01*
X139739365Y-83857790D01*
X139710150Y-83887004D01*
X139679873Y-83915167D01*
X139679146Y-83918007D01*
X139650090Y-83947062D01*
X139628390Y-83959952D01*
X139609909Y-83996912D01*
X139590097Y-84033196D01*
X139590306Y-84036119D01*
X139540878Y-84134975D01*
X139521428Y-84165241D01*
X139521428Y-84195894D01*
X139515998Y-84226066D01*
X139521428Y-84239158D01*
X139521428Y-84333336D01*
X139515198Y-84357793D01*
X138506029Y-84357793D01*
X138466287Y-84198822D01*
X138468147Y-84181596D01*
X138455814Y-84156931D01*
X138454577Y-84151981D01*
X138446200Y-84137704D01*
X138385432Y-84016168D01*
X138380067Y-83991505D01*
X138350836Y-83962274D01*
X138322690Y-83932015D01*
X138319850Y-83931288D01*
X138290792Y-83902231D01*
X138277905Y-83880533D01*
X138240951Y-83862056D01*
X138204660Y-83842239D01*
X138201735Y-83842448D01*
X138102873Y-83793016D01*
X138072615Y-83773571D01*
X138041964Y-83773571D01*
X138011790Y-83768141D01*
X137998698Y-83773571D01*
X137893789Y-83773571D01*
X137858025Y-83769710D01*
X137830609Y-83783418D01*
X137801194Y-83792055D01*
X137791912Y-83802766D01*
X137692597Y-83852424D01*
X137667934Y-83857790D01*
X137638703Y-83887020D01*
X137608444Y-83915167D01*
X137607717Y-83918006D01*
X137578660Y-83947064D01*
X137556962Y-83959952D01*
X137538486Y-83996903D01*
X137518668Y-84033197D01*
X137518877Y-84036121D01*
X137477785Y-84118305D01*
X137465161Y-84130176D01*
X137458472Y-84156932D01*
X137456191Y-84161494D01*
X137453260Y-84177779D01*
X137389037Y-84434669D01*
X137378571Y-84450956D01*
X137378571Y-84476536D01*
X137377819Y-84479544D01*
X137378571Y-84498049D01*
X137378571Y-84827455D01*
X137372367Y-84845794D01*
X134862927Y-84845794D01*
X134502533Y-84485400D01*
X134450000Y-84327800D01*
X134450000Y-84244696D01*
X134494707Y-84155281D01*
X134531711Y-84118277D01*
X134621125Y-84073571D01*
X134907447Y-84073571D01*
X134996861Y-84118278D01*
X135066328Y-84187745D01*
X135123911Y-84219188D01*
X135211775Y-84212903D01*
X135282294Y-84160114D01*
X135313077Y-84077581D01*
X135294353Y-83991505D01*
X135205078Y-83902231D01*
X135192191Y-83880533D01*
X135155239Y-83862057D01*
X135118946Y-83842239D01*
X135116021Y-83842448D01*
X135017167Y-83793021D01*
X134986902Y-83773571D01*
X134956249Y-83773571D01*
X134926077Y-83768141D01*
X134912985Y-83773571D01*
X134593790Y-83773571D01*
X134558026Y-83769710D01*
X134530610Y-83783418D01*
X134501195Y-83792055D01*
X134491913Y-83802766D01*
X134392598Y-83852425D01*
X134367937Y-83857790D01*
X134338722Y-83887004D01*
X134308445Y-83915167D01*
X134307718Y-83918007D01*
X134278662Y-83947062D01*
X134256962Y-83959952D01*
X134238481Y-83996912D01*
X134218669Y-84033196D01*
X134218878Y-84036119D01*
X134169450Y-84134975D01*
X134150000Y-84165241D01*
X134150000Y-84195894D01*
X134144570Y-84226066D01*
X134150000Y-84239158D01*
X134150000Y-84333336D01*
X134143770Y-84357793D01*
X133848887Y-84357793D01*
X133809145Y-84198822D01*
X133811005Y-84181596D01*
X133798672Y-84156931D01*
X133797435Y-84151981D01*
X133789058Y-84137704D01*
X133728290Y-84016168D01*
X133722925Y-83991505D01*
X133693694Y-83962274D01*
X133665548Y-83932015D01*
X133662708Y-83931288D01*
X133633650Y-83902231D01*
X133620763Y-83880533D01*
X133583809Y-83862056D01*
X133547518Y-83842239D01*
X133544593Y-83842448D01*
X133445731Y-83793016D01*
X133415473Y-83773571D01*
X133384822Y-83773571D01*
X133354648Y-83768141D01*
X133341556Y-83773571D01*
X133236647Y-83773571D01*
X133200883Y-83769710D01*
X133173467Y-83783418D01*
X133144052Y-83792055D01*
X133134770Y-83802766D01*
X133035455Y-83852424D01*
X133010792Y-83857790D01*
X132981561Y-83887020D01*
X132951302Y-83915167D01*
X132950575Y-83918006D01*
X132921518Y-83947064D01*
X132899820Y-83959952D01*
X132881344Y-83996903D01*
X132861526Y-84033197D01*
X132861735Y-84036121D01*
X132820643Y-84118305D01*
X132808019Y-84130176D01*
X132801330Y-84156932D01*
X132799049Y-84161494D01*
X132796118Y-84177779D01*
X132731895Y-84434669D01*
X132721429Y-84450956D01*
X132721429Y-84476536D01*
X132720677Y-84479544D01*
X132721429Y-84498049D01*
X132721429Y-84827455D01*
X132715225Y-84845794D01*
X132005785Y-84845794D01*
X131645391Y-84485400D01*
X131592858Y-84327800D01*
X131592858Y-84244696D01*
X131637565Y-84155281D01*
X131674569Y-84118277D01*
X131763983Y-84073571D01*
X132050305Y-84073571D01*
X132139719Y-84118278D01*
X132209186Y-84187745D01*
X132266769Y-84219188D01*
X132354633Y-84212903D01*
X132425152Y-84160114D01*
X132455935Y-84077581D01*
X132437211Y-83991505D01*
X132347936Y-83902231D01*
X132335049Y-83880533D01*
X132298097Y-83862057D01*
X132261804Y-83842239D01*
X132258879Y-83842448D01*
X132160025Y-83793021D01*
X132129760Y-83773571D01*
X132099107Y-83773571D01*
X132068935Y-83768141D01*
X132055843Y-83773571D01*
X131736648Y-83773571D01*
X131700884Y-83769710D01*
X131673468Y-83783418D01*
X131644053Y-83792055D01*
X131634771Y-83802766D01*
X131535456Y-83852425D01*
X131510795Y-83857790D01*
X131481580Y-83887004D01*
X131451303Y-83915167D01*
X131450576Y-83918007D01*
X131421520Y-83947062D01*
X131399820Y-83959952D01*
X131381339Y-83996912D01*
X131361527Y-84033196D01*
X131361736Y-84036119D01*
X131312308Y-84134975D01*
X131292858Y-84165241D01*
X131292858Y-84195894D01*
X131287428Y-84226066D01*
X131292858Y-84239158D01*
X131292858Y-84333336D01*
X131286628Y-84357793D01*
X130593545Y-84357793D01*
X130344852Y-84073571D01*
X130964427Y-84073571D01*
X131027379Y-84055087D01*
X131085064Y-83988514D01*
X131097601Y-83901322D01*
X131061008Y-83821195D01*
X130986903Y-83773571D01*
X130057939Y-83773571D01*
X130057606Y-83773359D01*
X130013872Y-83773571D01*
X129992719Y-83773571D01*
X129992363Y-83773675D01*
X129969519Y-83773786D01*
X129950981Y-83785825D01*
X129929767Y-83792055D01*
X129914804Y-83809323D01*
X129895645Y-83821767D01*
X129886558Y-83841921D01*
X129872082Y-83858628D01*
X129868830Y-83881241D01*
X129859440Y-83902070D01*
X129862691Y-83923935D01*
X129859545Y-83945820D01*
X129869036Y-83966603D01*
X129872397Y-83989200D01*
X129886953Y-84005836D01*
X129896138Y-84025947D01*
X129915359Y-84038299D01*
X130207726Y-84372434D01*
X130206200Y-84374195D01*
X130106884Y-84423853D01*
X130082223Y-84429218D01*
X130053011Y-84458429D01*
X130022732Y-84486595D01*
X130022005Y-84489435D01*
X129992948Y-84518492D01*
X129971249Y-84531381D01*
X129952773Y-84568332D01*
X129932955Y-84604626D01*
X129933164Y-84607550D01*
X129883737Y-84706404D01*
X129864287Y-84736670D01*
X129864287Y-84767323D01*
X129858857Y-84797495D01*
X124585713Y-84797495D01*
X124585713Y-83015820D01*
X129873830Y-83015820D01*
X129910423Y-83095947D01*
X129984528Y-83143571D01*
X130732127Y-83143571D01*
X130765107Y-83148313D01*
X130795413Y-83134472D01*
X130827378Y-83125087D01*
X130834852Y-83116461D01*
X130845234Y-83111720D01*
X130863246Y-83083692D01*
X130885063Y-83058514D01*
X130886687Y-83047216D01*
X130892858Y-83037615D01*
X130892858Y-83004302D01*
X130897600Y-82971322D01*
X130892858Y-82960939D01*
X130892858Y-82218588D01*
X130897600Y-82185608D01*
X130892858Y-82175225D01*
X130892858Y-81548359D01*
X131230270Y-81548359D01*
X131245949Y-81635041D01*
X131306002Y-81699485D01*
X131391365Y-81721230D01*
X131624341Y-81643571D01*
X131921732Y-81643571D01*
X132011147Y-81688278D01*
X132048150Y-81725281D01*
X132092857Y-81814695D01*
X132092857Y-81886733D01*
X132048150Y-81976146D01*
X132011147Y-82013149D01*
X131904790Y-82066328D01*
X131660968Y-82127284D01*
X131643740Y-82125424D01*
X131619071Y-82137758D01*
X131614125Y-82138995D01*
X131599855Y-82147366D01*
X131478312Y-82208139D01*
X131453651Y-82213504D01*
X131424436Y-82242718D01*
X131394159Y-82270881D01*
X131393432Y-82273721D01*
X131364376Y-82302776D01*
X131342676Y-82315666D01*
X131324194Y-82352628D01*
X131304383Y-82388910D01*
X131304592Y-82391833D01*
X131255159Y-82490697D01*
X131235714Y-82520956D01*
X131235714Y-82551607D01*
X131230284Y-82581781D01*
X131235714Y-82594873D01*
X131235714Y-82699782D01*
X131231853Y-82735545D01*
X131245560Y-82762959D01*
X131254198Y-82792377D01*
X131264910Y-82801659D01*
X131314568Y-82900974D01*
X131319934Y-82925637D01*
X131349147Y-82954849D01*
X131377310Y-82985127D01*
X131380151Y-82985853D01*
X131409205Y-83014906D01*
X131422095Y-83036609D01*
X131459069Y-83055096D01*
X131495342Y-83074903D01*
X131498264Y-83074693D01*
X131597123Y-83124123D01*
X131627385Y-83143571D01*
X131658038Y-83143571D01*
X131688210Y-83149001D01*
X131701302Y-83143571D01*
X132009767Y-83143571D01*
X132034223Y-83149801D01*
X132073413Y-83136737D01*
X132113092Y-83125087D01*
X132115012Y-83122871D01*
X132310752Y-83057624D01*
X132347385Y-83032165D01*
X132519933Y-83032165D01*
X132564848Y-83107942D01*
X132643602Y-83147408D01*
X132731188Y-83138031D01*
X132799803Y-83082789D01*
X132922399Y-82715000D01*
X133420457Y-82715000D01*
X133535946Y-83061467D01*
X133573389Y-83115343D01*
X133654787Y-83149015D01*
X133741469Y-83133337D01*
X133805912Y-83073283D01*
X133827658Y-82987921D01*
X133682094Y-82551228D01*
X133683313Y-82542751D01*
X133668516Y-82510353D01*
X133944570Y-82510353D01*
X133950000Y-82523445D01*
X133950000Y-82699781D01*
X133946139Y-82735544D01*
X133959846Y-82762958D01*
X133968484Y-82792377D01*
X133979195Y-82801658D01*
X134028853Y-82900976D01*
X134034219Y-82925637D01*
X134063423Y-82954840D01*
X134091595Y-82985127D01*
X134094436Y-82985853D01*
X134123490Y-83014906D01*
X134136380Y-83036609D01*
X134173354Y-83055096D01*
X134209627Y-83074903D01*
X134212549Y-83074693D01*
X134311408Y-83124123D01*
X134341670Y-83143571D01*
X134372323Y-83143571D01*
X134402495Y-83149001D01*
X134415587Y-83143571D01*
X134946412Y-83143571D01*
X134979392Y-83148313D01*
X135009698Y-83134472D01*
X135041663Y-83125087D01*
X135049137Y-83116461D01*
X135059519Y-83111720D01*
X135077531Y-83083692D01*
X135099348Y-83058514D01*
X135100972Y-83047216D01*
X135107143Y-83037615D01*
X135107143Y-83032165D01*
X136205647Y-83032165D01*
X136250562Y-83107942D01*
X136329316Y-83147408D01*
X136416902Y-83138031D01*
X136485517Y-83082789D01*
X136608113Y-82715000D01*
X137106171Y-82715000D01*
X137221660Y-83061467D01*
X137259103Y-83115343D01*
X137340501Y-83149015D01*
X137427183Y-83133337D01*
X137491626Y-83073283D01*
X137513372Y-82987921D01*
X137463919Y-82839561D01*
X137629779Y-82839561D01*
X137648504Y-82925636D01*
X137745367Y-83022499D01*
X137767924Y-83050516D01*
X137797001Y-83060208D01*
X137823910Y-83074902D01*
X137838047Y-83073890D01*
X138006153Y-83129926D01*
X138027384Y-83143571D01*
X138068696Y-83143571D01*
X138110021Y-83145066D01*
X138112543Y-83143571D01*
X138195479Y-83143571D01*
X138219936Y-83149801D01*
X138259127Y-83136737D01*
X138298805Y-83125087D01*
X138300724Y-83122871D01*
X138468340Y-83066999D01*
X138503493Y-83059352D01*
X138525169Y-83037675D01*
X138533098Y-83032165D01*
X138991361Y-83032165D01*
X139036276Y-83107942D01*
X139115030Y-83147408D01*
X139202616Y-83138031D01*
X139271231Y-83082789D01*
X139393827Y-82715000D01*
X139891885Y-82715000D01*
X140007374Y-83061467D01*
X140044817Y-83115343D01*
X140126215Y-83149015D01*
X140212897Y-83133337D01*
X140277340Y-83073283D01*
X140285479Y-83041331D01*
X140310422Y-83095947D01*
X140384527Y-83143571D01*
X141132126Y-83143571D01*
X141165106Y-83148313D01*
X141195412Y-83134472D01*
X141227377Y-83125087D01*
X141234851Y-83116461D01*
X141245233Y-83111720D01*
X141263245Y-83083692D01*
X141285062Y-83058514D01*
X141286686Y-83047216D01*
X141292857Y-83037615D01*
X141292857Y-83004302D01*
X141297599Y-82971322D01*
X141292857Y-82960939D01*
X141292857Y-81796067D01*
X141630284Y-81796067D01*
X141635714Y-81809159D01*
X141635714Y-81985495D01*
X141631853Y-82021258D01*
X141645560Y-82048672D01*
X141654198Y-82078091D01*
X141664909Y-82087372D01*
X141714567Y-82186688D01*
X141719932Y-82211350D01*
X141749137Y-82240555D01*
X141777309Y-82270841D01*
X141780149Y-82271567D01*
X141809206Y-82300624D01*
X141822095Y-82322324D01*
X141859044Y-82340798D01*
X141895340Y-82360618D01*
X141898264Y-82360408D01*
X141997122Y-82409837D01*
X142027384Y-82429285D01*
X142058036Y-82429285D01*
X142088210Y-82434715D01*
X142101302Y-82429285D01*
X142492857Y-82429285D01*
X142492857Y-83015139D01*
X142511341Y-83078091D01*
X142577914Y-83135776D01*
X142665106Y-83148313D01*
X142745233Y-83111720D01*
X142792857Y-83037615D01*
X142792857Y-82290016D01*
X142797599Y-82257036D01*
X142792857Y-82246653D01*
X142792857Y-81504302D01*
X142797599Y-81471322D01*
X142783758Y-81441015D01*
X142774373Y-81409051D01*
X142765747Y-81401576D01*
X142761006Y-81391195D01*
X142732978Y-81373182D01*
X142707800Y-81351366D01*
X142696502Y-81349741D01*
X142686901Y-81343571D01*
X142653588Y-81343571D01*
X142620608Y-81338829D01*
X142610225Y-81343571D01*
X142079503Y-81343571D01*
X142043739Y-81339710D01*
X142016323Y-81353418D01*
X141986908Y-81362055D01*
X141977626Y-81372766D01*
X141878311Y-81422425D01*
X141853650Y-81427790D01*
X141824435Y-81457004D01*
X141794158Y-81485167D01*
X141793431Y-81488007D01*
X141764375Y-81517062D01*
X141742675Y-81529952D01*
X141724194Y-81566912D01*
X141704382Y-81603196D01*
X141704591Y-81606119D01*
X141655159Y-81704982D01*
X141635714Y-81735241D01*
X141635714Y-81765892D01*
X141630284Y-81796067D01*
X141292857Y-81796067D01*
X141292857Y-81472003D01*
X141274373Y-81409051D01*
X141207800Y-81351366D01*
X141120608Y-81338829D01*
X141040481Y-81375422D01*
X140992857Y-81449527D01*
X140992857Y-82843571D01*
X140407003Y-82843571D01*
X140344051Y-82862055D01*
X140286366Y-82928628D01*
X140284243Y-82943392D01*
X140153522Y-82551228D01*
X140154741Y-82542751D01*
X140139765Y-82509960D01*
X139793739Y-81471880D01*
X139794351Y-81454977D01*
X139780078Y-81430897D01*
X139778338Y-81425676D01*
X139769131Y-81412428D01*
X139749436Y-81379200D01*
X139744222Y-81376587D01*
X139740895Y-81371799D01*
X139705214Y-81357039D01*
X139670683Y-81339734D01*
X139664882Y-81340354D01*
X139659497Y-81338127D01*
X139621505Y-81344998D01*
X139583096Y-81349111D01*
X139578553Y-81352767D01*
X139572815Y-81353806D01*
X139544558Y-81380137D01*
X139514481Y-81404353D01*
X139512637Y-81409884D01*
X139508372Y-81413859D01*
X139498839Y-81451276D01*
X139152833Y-82489295D01*
X139143509Y-82500057D01*
X139139156Y-82530326D01*
X138993733Y-82966598D01*
X138991361Y-83032165D01*
X138533098Y-83032165D01*
X138550342Y-83020181D01*
X138555759Y-83007085D01*
X138664193Y-82898651D01*
X138685895Y-82885762D01*
X138704380Y-82848791D01*
X138724188Y-82812516D01*
X138723979Y-82809593D01*
X138765072Y-82727406D01*
X138777696Y-82715537D01*
X138784384Y-82688783D01*
X138786666Y-82684220D01*
X138789597Y-82667929D01*
X138853818Y-82411044D01*
X138864285Y-82394758D01*
X138864285Y-82369178D01*
X138865037Y-82366170D01*
X138864285Y-82347665D01*
X138864285Y-82161115D01*
X138870489Y-82142777D01*
X138864285Y-82117961D01*
X138864285Y-82114860D01*
X138859066Y-82097086D01*
X138794857Y-81840253D01*
X138796718Y-81823025D01*
X138784383Y-81798356D01*
X138783147Y-81793410D01*
X138774775Y-81779140D01*
X138714003Y-81657597D01*
X138708638Y-81632935D01*
X138679417Y-81603714D01*
X138651261Y-81573444D01*
X138648420Y-81572717D01*
X138540347Y-81464644D01*
X138517789Y-81436625D01*
X138488708Y-81426931D01*
X138461802Y-81412239D01*
X138447664Y-81413250D01*
X138279560Y-81357215D01*
X138258329Y-81343571D01*
X138217016Y-81343571D01*
X138175692Y-81342076D01*
X138173170Y-81343571D01*
X138090232Y-81343571D01*
X138065777Y-81337341D01*
X138026584Y-81350405D01*
X137986908Y-81362055D01*
X137984988Y-81364270D01*
X137817367Y-81420144D01*
X137782219Y-81427790D01*
X137760543Y-81449466D01*
X137735370Y-81466961D01*
X137729952Y-81480056D01*
X137664397Y-81545613D01*
X137632953Y-81603197D01*
X137639238Y-81691060D01*
X137692027Y-81761580D01*
X137774561Y-81792363D01*
X137860636Y-81773638D01*
X137938169Y-81696104D01*
X138095769Y-81643571D01*
X138189944Y-81643571D01*
X138347544Y-81696105D01*
X138448150Y-81796711D01*
X138501328Y-81903065D01*
X138564285Y-82154892D01*
X138564285Y-82332250D01*
X138501329Y-82584072D01*
X138448151Y-82690430D01*
X138347543Y-82791037D01*
X138189943Y-82843571D01*
X138095771Y-82843571D01*
X137938169Y-82791037D01*
X137876529Y-82729397D01*
X137818945Y-82697953D01*
X137731082Y-82704238D01*
X137660562Y-82757027D01*
X137629779Y-82839561D01*
X137463919Y-82839561D01*
X137367808Y-82551228D01*
X137369027Y-82542751D01*
X137354051Y-82509960D01*
X137008025Y-81471880D01*
X137008637Y-81454977D01*
X136994364Y-81430897D01*
X136992624Y-81425676D01*
X136983417Y-81412428D01*
X136963722Y-81379200D01*
X136958508Y-81376587D01*
X136955181Y-81371799D01*
X136919500Y-81357039D01*
X136884969Y-81339734D01*
X136879168Y-81340354D01*
X136873783Y-81338127D01*
X136835791Y-81344998D01*
X136797382Y-81349111D01*
X136792839Y-81352767D01*
X136787101Y-81353806D01*
X136758844Y-81380137D01*
X136728767Y-81404353D01*
X136726923Y-81409884D01*
X136722658Y-81413859D01*
X136713125Y-81451276D01*
X136367119Y-82489295D01*
X136357795Y-82500057D01*
X136353442Y-82530326D01*
X136208019Y-82966598D01*
X136205647Y-83032165D01*
X135107143Y-83032165D01*
X135107143Y-83004302D01*
X135111885Y-82971322D01*
X135107143Y-82960939D01*
X135107143Y-82218588D01*
X135111885Y-82185608D01*
X135107143Y-82175225D01*
X135107143Y-81504302D01*
X135111885Y-81471322D01*
X135098044Y-81441015D01*
X135088659Y-81409051D01*
X135080033Y-81401576D01*
X135075292Y-81391195D01*
X135047264Y-81373182D01*
X135022086Y-81351366D01*
X135010788Y-81349741D01*
X135001187Y-81343571D01*
X134967874Y-81343571D01*
X134934894Y-81338829D01*
X134924511Y-81343571D01*
X134465218Y-81343571D01*
X134429454Y-81339710D01*
X134402038Y-81353418D01*
X134372623Y-81362055D01*
X134363341Y-81372766D01*
X134264026Y-81422425D01*
X134239365Y-81427790D01*
X134210150Y-81457004D01*
X134179873Y-81485167D01*
X134179146Y-81488007D01*
X134150090Y-81517062D01*
X134128390Y-81529952D01*
X134109909Y-81566912D01*
X134090097Y-81603196D01*
X134090306Y-81606119D01*
X134040878Y-81704975D01*
X134021428Y-81735241D01*
X134021428Y-81765894D01*
X134015998Y-81796066D01*
X134021428Y-81809158D01*
X134021428Y-81914066D01*
X134017567Y-81949830D01*
X134031274Y-81977245D01*
X134039912Y-82006662D01*
X134050623Y-82015943D01*
X134100283Y-82115263D01*
X134105648Y-82139923D01*
X134134852Y-82169126D01*
X134136293Y-82170676D01*
X134121086Y-82181245D01*
X134115667Y-82194342D01*
X134078660Y-82231349D01*
X134056961Y-82244238D01*
X134038485Y-82281189D01*
X134018667Y-82317483D01*
X134018876Y-82320407D01*
X133969445Y-82419268D01*
X133950000Y-82449527D01*
X133950000Y-82480178D01*
X133944570Y-82510353D01*
X133668516Y-82510353D01*
X133668337Y-82509960D01*
X133322311Y-81471880D01*
X133322923Y-81454977D01*
X133308650Y-81430897D01*
X133306910Y-81425676D01*
X133297703Y-81412428D01*
X133278008Y-81379200D01*
X133272794Y-81376587D01*
X133269467Y-81371799D01*
X133233786Y-81357039D01*
X133199255Y-81339734D01*
X133193454Y-81340354D01*
X133188069Y-81338127D01*
X133150077Y-81344998D01*
X133111668Y-81349111D01*
X133107125Y-81352767D01*
X133101387Y-81353806D01*
X133073130Y-81380137D01*
X133043053Y-81404353D01*
X133041209Y-81409884D01*
X133036944Y-81413859D01*
X133027411Y-81451276D01*
X132681405Y-82489295D01*
X132672081Y-82500057D01*
X132667728Y-82530326D01*
X132522305Y-82966598D01*
X132519933Y-83032165D01*
X132347385Y-83032165D01*
X132364629Y-83020181D01*
X132398301Y-82938783D01*
X132382622Y-82852101D01*
X132322568Y-82787658D01*
X132237206Y-82765912D01*
X132004230Y-82843571D01*
X131706839Y-82843571D01*
X131617426Y-82798864D01*
X131580420Y-82761859D01*
X131535714Y-82672447D01*
X131535714Y-82600410D01*
X131580421Y-82510994D01*
X131617425Y-82473991D01*
X131723780Y-82420813D01*
X131967602Y-82359858D01*
X131984831Y-82361718D01*
X132009498Y-82349384D01*
X132014447Y-82348147D01*
X132028719Y-82339773D01*
X132150259Y-82279002D01*
X132174921Y-82273638D01*
X132204135Y-82244423D01*
X132234413Y-82216261D01*
X132235139Y-82213420D01*
X132264194Y-82184365D01*
X132285897Y-82171476D01*
X132304383Y-82134501D01*
X132324189Y-82098232D01*
X132323979Y-82095308D01*
X132373410Y-81996445D01*
X132392857Y-81966186D01*
X132392857Y-81935534D01*
X132398287Y-81905360D01*
X132392857Y-81892268D01*
X132392857Y-81787361D01*
X132396718Y-81751598D01*
X132383010Y-81724183D01*
X132374373Y-81694765D01*
X132363661Y-81685483D01*
X132314003Y-81586165D01*
X132308638Y-81561505D01*
X132279430Y-81532297D01*
X132251262Y-81502015D01*
X132248421Y-81501288D01*
X132219363Y-81472231D01*
X132206476Y-81450533D01*
X132169526Y-81432058D01*
X132133230Y-81412239D01*
X132130306Y-81412448D01*
X132031452Y-81363021D01*
X132001187Y-81343571D01*
X131970534Y-81343571D01*
X131940362Y-81338141D01*
X131927270Y-81343571D01*
X131618804Y-81343571D01*
X131594349Y-81337341D01*
X131555156Y-81350405D01*
X131515480Y-81362055D01*
X131513560Y-81364270D01*
X131317818Y-81429518D01*
X131263942Y-81466961D01*
X131230270Y-81548359D01*
X130892858Y-81548359D01*
X130892858Y-81504302D01*
X130897600Y-81471322D01*
X130883759Y-81441015D01*
X130874374Y-81409051D01*
X130865748Y-81401576D01*
X130861007Y-81391195D01*
X130832979Y-81373182D01*
X130807801Y-81351366D01*
X130796503Y-81349741D01*
X130786902Y-81343571D01*
X130753589Y-81343571D01*
X130720609Y-81338829D01*
X130710226Y-81343571D01*
X130007004Y-81343571D01*
X129944052Y-81362055D01*
X129886367Y-81428628D01*
X129873830Y-81515820D01*
X129910423Y-81595947D01*
X129984528Y-81643571D01*
X130592858Y-81643571D01*
X130592858Y-82057857D01*
X130221290Y-82057857D01*
X130158338Y-82076341D01*
X130100653Y-82142914D01*
X130088116Y-82230106D01*
X130124709Y-82310233D01*
X130198814Y-82357857D01*
X130592858Y-82357857D01*
X130592858Y-82843571D01*
X130007004Y-82843571D01*
X129944052Y-82862055D01*
X129886367Y-82928628D01*
X129873830Y-83015820D01*
X124585713Y-83015820D01*
X124585713Y-80585820D01*
X125688114Y-80585820D01*
X125724707Y-80665947D01*
X125798812Y-80713571D01*
X126546411Y-80713571D01*
X126579391Y-80718313D01*
X126609697Y-80704472D01*
X126641662Y-80695087D01*
X126649136Y-80686461D01*
X126659518Y-80681720D01*
X126677530Y-80653692D01*
X126699347Y-80628514D01*
X126700971Y-80617216D01*
X126707142Y-80607615D01*
X126707142Y-80574302D01*
X126711884Y-80541322D01*
X126707142Y-80530939D01*
X126707142Y-80480989D01*
X127044064Y-80480989D01*
X127051146Y-80513546D01*
X127053523Y-80546773D01*
X127060362Y-80555909D01*
X127062789Y-80567064D01*
X127086344Y-80590619D01*
X127106311Y-80617293D01*
X127117007Y-80621282D01*
X127138289Y-80642564D01*
X127139912Y-80648091D01*
X127161011Y-80666373D01*
X127177742Y-80688723D01*
X127193653Y-80694657D01*
X127206485Y-80705776D01*
X127223290Y-80708192D01*
X127238197Y-80716332D01*
X127249582Y-80715517D01*
X127260276Y-80719506D01*
X127276868Y-80715896D01*
X127293677Y-80718313D01*
X127309124Y-80711258D01*
X127326061Y-80710047D01*
X127335199Y-80703206D01*
X127346351Y-80700780D01*
X127358355Y-80688775D01*
X127373804Y-80681720D01*
X127382983Y-80667435D01*
X127396580Y-80657258D01*
X127400570Y-80646560D01*
X127441336Y-80605793D01*
X127468007Y-80585828D01*
X127479648Y-80554614D01*
X127495617Y-80525372D01*
X127494802Y-80513986D01*
X127498790Y-80503295D01*
X127491708Y-80470740D01*
X127489331Y-80437509D01*
X127482492Y-80428373D01*
X127480066Y-80417219D01*
X127456505Y-80393659D01*
X127436542Y-80366990D01*
X127425847Y-80363001D01*
X127404566Y-80341720D01*
X127402944Y-80336194D01*
X127381844Y-80317911D01*
X127365115Y-80295563D01*
X127349203Y-80289628D01*
X127336371Y-80278509D01*
X127319565Y-80276092D01*
X127304659Y-80267953D01*
X127293274Y-80268767D01*
X127282582Y-80264779D01*
X127265988Y-80268388D01*
X127249179Y-80265972D01*
X127233731Y-80273026D01*
X127216796Y-80274238D01*
X127207658Y-80281078D01*
X127196507Y-80283504D01*
X127184501Y-80295509D01*
X127169052Y-80302565D01*
X127159872Y-80316849D01*
X127146276Y-80327027D01*
X127142286Y-80337723D01*
X127101523Y-80378485D01*
X127074847Y-80398455D01*
X127063202Y-80429675D01*
X127047239Y-80458910D01*
X127048053Y-80470293D01*
X127044064Y-80480989D01*
X126707142Y-80480989D01*
X126707142Y-79069221D01*
X127615197Y-79069221D01*
X128120543Y-80585262D01*
X128119932Y-80602165D01*
X128134203Y-80626243D01*
X128135945Y-80631467D01*
X128145154Y-80644718D01*
X128164847Y-80677942D01*
X128170059Y-80680554D01*
X128173388Y-80685343D01*
X128209071Y-80700104D01*
X128243601Y-80717408D01*
X128249400Y-80716787D01*
X128254786Y-80719015D01*
X128292783Y-80712142D01*
X128331187Y-80708031D01*
X128335727Y-80704375D01*
X128341468Y-80703337D01*
X128369728Y-80677001D01*
X128399802Y-80652789D01*
X128401645Y-80647257D01*
X128405911Y-80643283D01*
X128415443Y-80605865D01*
X128422125Y-80585820D01*
X129945256Y-80585820D01*
X129981849Y-80665947D01*
X130055954Y-80713571D01*
X130517839Y-80713571D01*
X130550819Y-80718313D01*
X130561202Y-80713571D01*
X130978709Y-80713571D01*
X131041661Y-80695087D01*
X131099346Y-80628514D01*
X131107514Y-80571705D01*
X132586734Y-80571705D01*
X132600033Y-80609582D01*
X132611340Y-80648091D01*
X132614521Y-80650847D01*
X132615916Y-80654819D01*
X132647578Y-80679491D01*
X132677913Y-80705776D01*
X132682078Y-80706374D01*
X132685400Y-80708963D01*
X132725381Y-80712601D01*
X132765105Y-80718313D01*
X132768933Y-80716564D01*
X132773125Y-80716946D01*
X132808716Y-80698396D01*
X132845232Y-80681720D01*
X132847507Y-80678178D01*
X132851241Y-80676233D01*
X132871158Y-80641376D01*
X132892856Y-80607615D01*
X132892856Y-80603407D01*
X133449999Y-79628405D01*
X133449999Y-80585139D01*
X133468483Y-80648091D01*
X133535056Y-80705776D01*
X133622248Y-80718313D01*
X133702375Y-80681720D01*
X133749999Y-80607615D01*
X133749999Y-80480989D01*
X134986921Y-80480989D01*
X134994003Y-80513546D01*
X134996380Y-80546773D01*
X135003219Y-80555909D01*
X135005646Y-80567064D01*
X135029201Y-80590619D01*
X135049168Y-80617293D01*
X135059864Y-80621282D01*
X135081146Y-80642564D01*
X135082769Y-80648091D01*
X135103868Y-80666373D01*
X135120599Y-80688723D01*
X135136510Y-80694657D01*
X135149342Y-80705776D01*
X135166147Y-80708192D01*
X135181054Y-80716332D01*
X135192439Y-80715517D01*
X135203133Y-80719506D01*
X135219725Y-80715896D01*
X135236534Y-80718313D01*
X135251981Y-80711258D01*
X135268918Y-80710047D01*
X135278056Y-80703206D01*
X135289208Y-80700780D01*
X135301212Y-80688775D01*
X135316661Y-80681720D01*
X135325840Y-80667435D01*
X135339437Y-80657258D01*
X135343427Y-80646560D01*
X135384193Y-80605793D01*
X135410864Y-80585828D01*
X135422505Y-80554614D01*
X135438474Y-80525372D01*
X135437659Y-80513986D01*
X135441647Y-80503295D01*
X135434565Y-80470740D01*
X135432188Y-80437509D01*
X135425349Y-80428373D01*
X135422923Y-80417219D01*
X135399362Y-80393659D01*
X135379399Y-80366990D01*
X135368704Y-80363001D01*
X135347423Y-80341720D01*
X135345801Y-80336194D01*
X135324701Y-80317911D01*
X135307972Y-80295563D01*
X135292060Y-80289628D01*
X135279228Y-80278509D01*
X135262422Y-80276092D01*
X135247516Y-80267953D01*
X135236131Y-80268767D01*
X135225439Y-80264779D01*
X135208845Y-80268388D01*
X135192036Y-80265972D01*
X135176588Y-80273026D01*
X135159653Y-80274238D01*
X135150515Y-80281078D01*
X135139364Y-80283504D01*
X135127358Y-80295509D01*
X135111909Y-80302565D01*
X135102729Y-80316849D01*
X135089133Y-80327027D01*
X135085143Y-80337723D01*
X135044380Y-80378485D01*
X135017704Y-80398455D01*
X135006059Y-80429675D01*
X134990096Y-80458910D01*
X134990910Y-80470293D01*
X134986921Y-80480989D01*
X133749999Y-80480989D01*
X133749999Y-79085820D01*
X135559543Y-79085820D01*
X135596136Y-79165947D01*
X135670241Y-79213571D01*
X135992856Y-79213571D01*
X135992856Y-80585139D01*
X136011340Y-80648091D01*
X136077913Y-80705776D01*
X136165105Y-80718313D01*
X136245232Y-80681720D01*
X136292856Y-80607615D01*
X136292856Y-80480989D01*
X136844064Y-80480989D01*
X136851146Y-80513546D01*
X136853523Y-80546773D01*
X136860362Y-80555909D01*
X136862789Y-80567064D01*
X136886344Y-80590619D01*
X136906311Y-80617293D01*
X136917007Y-80621282D01*
X136938289Y-80642564D01*
X136939912Y-80648091D01*
X136961011Y-80666373D01*
X136977742Y-80688723D01*
X136993653Y-80694657D01*
X137006485Y-80705776D01*
X137023290Y-80708192D01*
X137038197Y-80716332D01*
X137049582Y-80715517D01*
X137060276Y-80719506D01*
X137076868Y-80715896D01*
X137093677Y-80718313D01*
X137109124Y-80711258D01*
X137126061Y-80710047D01*
X137135199Y-80703206D01*
X137146351Y-80700780D01*
X137158355Y-80688775D01*
X137173804Y-80681720D01*
X137182983Y-80667435D01*
X137196580Y-80657258D01*
X137200570Y-80646560D01*
X137241336Y-80605793D01*
X137268007Y-80585828D01*
X137279648Y-80554614D01*
X137295617Y-80525372D01*
X137294802Y-80513986D01*
X137298790Y-80503295D01*
X137291708Y-80470740D01*
X137289331Y-80437509D01*
X137282492Y-80428373D01*
X137280066Y-80417219D01*
X137256505Y-80393659D01*
X137236542Y-80366990D01*
X137225847Y-80363001D01*
X137204566Y-80341720D01*
X137202944Y-80336194D01*
X137181844Y-80317911D01*
X137165115Y-80295563D01*
X137149203Y-80289628D01*
X137136371Y-80278509D01*
X137119565Y-80276092D01*
X137104659Y-80267953D01*
X137093274Y-80268767D01*
X137082582Y-80264779D01*
X137065988Y-80268388D01*
X137049179Y-80265972D01*
X137033731Y-80273026D01*
X137016796Y-80274238D01*
X137007658Y-80281078D01*
X136996507Y-80283504D01*
X136984501Y-80295509D01*
X136969052Y-80302565D01*
X136959872Y-80316849D01*
X136946276Y-80327027D01*
X136942286Y-80337723D01*
X136901523Y-80378485D01*
X136874847Y-80398455D01*
X136863202Y-80429675D01*
X136847239Y-80458910D01*
X136848053Y-80470293D01*
X136844064Y-80480989D01*
X136292856Y-80480989D01*
X136292856Y-79213571D01*
X136592995Y-79213571D01*
X136655947Y-79195087D01*
X136713632Y-79128514D01*
X136715092Y-79118359D01*
X137558840Y-79118359D01*
X137574519Y-79205041D01*
X137634572Y-79269485D01*
X137719935Y-79291230D01*
X137952911Y-79213571D01*
X138250302Y-79213571D01*
X138339717Y-79258278D01*
X138376720Y-79295281D01*
X138421427Y-79384695D01*
X138421427Y-79456733D01*
X138376720Y-79546146D01*
X138339717Y-79583149D01*
X138233360Y-79636328D01*
X137989538Y-79697284D01*
X137972310Y-79695424D01*
X137947641Y-79707758D01*
X137942695Y-79708995D01*
X137928425Y-79717366D01*
X137806882Y-79778139D01*
X137782221Y-79783504D01*
X137753006Y-79812718D01*
X137722729Y-79840881D01*
X137722002Y-79843721D01*
X137692946Y-79872776D01*
X137671246Y-79885666D01*
X137652764Y-79922628D01*
X137632953Y-79958910D01*
X137633162Y-79961833D01*
X137583729Y-80060697D01*
X137564284Y-80090956D01*
X137564284Y-80121607D01*
X137558854Y-80151781D01*
X137564284Y-80164873D01*
X137564284Y-80269782D01*
X137560423Y-80305545D01*
X137574130Y-80332959D01*
X137582768Y-80362377D01*
X137593480Y-80371659D01*
X137643138Y-80470974D01*
X137648504Y-80495637D01*
X137677717Y-80524849D01*
X137705880Y-80555127D01*
X137708721Y-80555853D01*
X137737775Y-80584906D01*
X137750665Y-80606609D01*
X137787639Y-80625096D01*
X137823912Y-80644903D01*
X137826834Y-80644693D01*
X137925693Y-80694123D01*
X137955955Y-80713571D01*
X137986608Y-80713571D01*
X138016780Y-80719001D01*
X138029872Y-80713571D01*
X138338337Y-80713571D01*
X138362793Y-80719801D01*
X138401983Y-80706737D01*
X138441662Y-80695087D01*
X138443582Y-80692871D01*
X138639322Y-80627624D01*
X138693199Y-80590181D01*
X138726871Y-80508783D01*
X138721844Y-80480989D01*
X138986921Y-80480989D01*
X138994003Y-80513546D01*
X138996380Y-80546773D01*
X139003219Y-80555909D01*
X139005646Y-80567064D01*
X139029201Y-80590619D01*
X139049168Y-80617293D01*
X139059864Y-80621282D01*
X139081146Y-80642564D01*
X139082769Y-80648091D01*
X139103868Y-80666373D01*
X139120599Y-80688723D01*
X139136510Y-80694657D01*
X139149342Y-80705776D01*
X139166147Y-80708192D01*
X139181054Y-80716332D01*
X139192439Y-80715517D01*
X139203133Y-80719506D01*
X139219725Y-80715896D01*
X139236534Y-80718313D01*
X139251981Y-80711258D01*
X139268918Y-80710047D01*
X139278056Y-80703206D01*
X139289208Y-80700780D01*
X139301212Y-80688775D01*
X139316661Y-80681720D01*
X139325840Y-80667435D01*
X139339437Y-80657258D01*
X139343427Y-80646560D01*
X139384193Y-80605793D01*
X139410864Y-80585828D01*
X139410867Y-80585820D01*
X139702400Y-80585820D01*
X139738993Y-80665947D01*
X139813098Y-80713571D01*
X140560697Y-80713571D01*
X140593677Y-80718313D01*
X140623983Y-80704472D01*
X140655948Y-80695087D01*
X140663422Y-80686461D01*
X140673804Y-80681720D01*
X140691816Y-80653692D01*
X140713633Y-80628514D01*
X140715257Y-80617216D01*
X140721428Y-80607615D01*
X140721428Y-80574302D01*
X140726170Y-80541322D01*
X140721428Y-80530939D01*
X140721428Y-80480989D01*
X141058350Y-80480989D01*
X141065432Y-80513546D01*
X141067809Y-80546773D01*
X141074648Y-80555909D01*
X141077075Y-80567064D01*
X141100630Y-80590619D01*
X141120597Y-80617293D01*
X141131293Y-80621282D01*
X141152575Y-80642564D01*
X141154198Y-80648091D01*
X141175297Y-80666373D01*
X141192028Y-80688723D01*
X141207939Y-80694657D01*
X141220771Y-80705776D01*
X141237576Y-80708192D01*
X141252483Y-80716332D01*
X141263868Y-80715517D01*
X141274562Y-80719506D01*
X141291154Y-80715896D01*
X141307963Y-80718313D01*
X141323410Y-80711258D01*
X141340347Y-80710047D01*
X141349485Y-80703206D01*
X141360637Y-80700780D01*
X141372641Y-80688775D01*
X141388090Y-80681720D01*
X141397269Y-80667435D01*
X141410866Y-80657258D01*
X141414856Y-80646560D01*
X141455622Y-80605793D01*
X141482293Y-80585828D01*
X141482296Y-80585820D01*
X141773829Y-80585820D01*
X141810422Y-80665947D01*
X141884527Y-80713571D01*
X142632126Y-80713571D01*
X142665106Y-80718313D01*
X142695412Y-80704472D01*
X142727377Y-80695087D01*
X142734851Y-80686461D01*
X142745233Y-80681720D01*
X142763245Y-80653692D01*
X142785062Y-80628514D01*
X142786686Y-80617216D01*
X142792857Y-80607615D01*
X142792857Y-80574302D01*
X142797599Y-80541322D01*
X142792857Y-80530939D01*
X142792857Y-79788588D01*
X142797599Y-79755608D01*
X142792857Y-79745225D01*
X142792857Y-79074302D01*
X142797599Y-79041322D01*
X142783758Y-79011015D01*
X142774373Y-78979051D01*
X142765747Y-78971576D01*
X142761006Y-78961195D01*
X142732978Y-78943182D01*
X142707800Y-78921366D01*
X142696502Y-78919741D01*
X142686901Y-78913571D01*
X142653588Y-78913571D01*
X142620608Y-78908829D01*
X142610225Y-78913571D01*
X141907003Y-78913571D01*
X141844051Y-78932055D01*
X141786366Y-78998628D01*
X141773829Y-79085820D01*
X141810422Y-79165947D01*
X141884527Y-79213571D01*
X142492857Y-79213571D01*
X142492857Y-79627857D01*
X142121289Y-79627857D01*
X142058337Y-79646341D01*
X142000652Y-79712914D01*
X141988115Y-79800106D01*
X142024708Y-79880233D01*
X142098813Y-79927857D01*
X142492857Y-79927857D01*
X142492857Y-80413571D01*
X141907003Y-80413571D01*
X141844051Y-80432055D01*
X141786366Y-80498628D01*
X141773829Y-80585820D01*
X141482296Y-80585820D01*
X141493934Y-80554614D01*
X141509903Y-80525372D01*
X141509088Y-80513986D01*
X141513076Y-80503295D01*
X141505994Y-80470740D01*
X141503617Y-80437509D01*
X141496778Y-80428373D01*
X141494352Y-80417219D01*
X141470791Y-80393659D01*
X141450828Y-80366990D01*
X141440133Y-80363001D01*
X141418852Y-80341720D01*
X141417230Y-80336194D01*
X141396130Y-80317911D01*
X141379401Y-80295563D01*
X141363489Y-80289628D01*
X141350657Y-80278509D01*
X141333851Y-80276092D01*
X141318945Y-80267953D01*
X141307560Y-80268767D01*
X141296868Y-80264779D01*
X141280274Y-80268388D01*
X141263465Y-80265972D01*
X141248017Y-80273026D01*
X141231082Y-80274238D01*
X141221944Y-80281078D01*
X141210793Y-80283504D01*
X141198787Y-80295509D01*
X141183338Y-80302565D01*
X141174158Y-80316849D01*
X141160562Y-80327027D01*
X141156572Y-80337723D01*
X141115809Y-80378485D01*
X141089133Y-80398455D01*
X141077488Y-80429675D01*
X141061525Y-80458910D01*
X141062339Y-80470293D01*
X141058350Y-80480989D01*
X140721428Y-80480989D01*
X140721428Y-79788588D01*
X140726170Y-79755608D01*
X140721428Y-79745225D01*
X140721428Y-79074302D01*
X140726170Y-79041322D01*
X140712329Y-79011015D01*
X140702944Y-78979051D01*
X140694318Y-78971576D01*
X140689577Y-78961195D01*
X140661549Y-78943182D01*
X140636371Y-78921366D01*
X140625073Y-78919741D01*
X140615472Y-78913571D01*
X140582159Y-78913571D01*
X140549179Y-78908829D01*
X140538796Y-78913571D01*
X139835574Y-78913571D01*
X139772622Y-78932055D01*
X139714937Y-78998628D01*
X139702400Y-79085820D01*
X139738993Y-79165947D01*
X139813098Y-79213571D01*
X140421428Y-79213571D01*
X140421428Y-79627857D01*
X140049860Y-79627857D01*
X139986908Y-79646341D01*
X139929223Y-79712914D01*
X139916686Y-79800106D01*
X139953279Y-79880233D01*
X140027384Y-79927857D01*
X140421428Y-79927857D01*
X140421428Y-80413571D01*
X139835574Y-80413571D01*
X139772622Y-80432055D01*
X139714937Y-80498628D01*
X139702400Y-80585820D01*
X139410867Y-80585820D01*
X139422505Y-80554614D01*
X139438474Y-80525372D01*
X139437659Y-80513986D01*
X139441647Y-80503295D01*
X139434565Y-80470740D01*
X139432188Y-80437509D01*
X139425349Y-80428373D01*
X139422923Y-80417219D01*
X139399362Y-80393659D01*
X139379399Y-80366990D01*
X139368704Y-80363001D01*
X139347423Y-80341720D01*
X139345801Y-80336194D01*
X139324701Y-80317911D01*
X139307972Y-80295563D01*
X139292060Y-80289628D01*
X139279228Y-80278509D01*
X139262422Y-80276092D01*
X139247516Y-80267953D01*
X139236131Y-80268767D01*
X139225439Y-80264779D01*
X139208845Y-80268388D01*
X139192036Y-80265972D01*
X139176588Y-80273026D01*
X139159653Y-80274238D01*
X139150515Y-80281078D01*
X139139364Y-80283504D01*
X139127358Y-80295509D01*
X139111909Y-80302565D01*
X139102729Y-80316849D01*
X139089133Y-80327027D01*
X139085143Y-80337723D01*
X139044380Y-80378485D01*
X139017704Y-80398455D01*
X139006059Y-80429675D01*
X138990096Y-80458910D01*
X138990910Y-80470293D01*
X138986921Y-80480989D01*
X138721844Y-80480989D01*
X138711192Y-80422101D01*
X138651138Y-80357658D01*
X138565776Y-80335912D01*
X138332800Y-80413571D01*
X138035409Y-80413571D01*
X137945996Y-80368864D01*
X137908990Y-80331859D01*
X137864284Y-80242447D01*
X137864284Y-80170410D01*
X137908991Y-80080994D01*
X137945995Y-80043991D01*
X138052350Y-79990813D01*
X138296172Y-79929858D01*
X138313401Y-79931718D01*
X138338068Y-79919384D01*
X138343017Y-79918147D01*
X138357289Y-79909773D01*
X138478829Y-79849002D01*
X138503491Y-79843638D01*
X138532705Y-79814423D01*
X138562983Y-79786261D01*
X138563709Y-79783420D01*
X138592764Y-79754365D01*
X138614467Y-79741476D01*
X138632953Y-79704501D01*
X138652759Y-79668232D01*
X138652549Y-79665308D01*
X138701980Y-79566445D01*
X138721427Y-79536186D01*
X138721427Y-79505534D01*
X138726857Y-79475360D01*
X138721427Y-79462268D01*
X138721427Y-79357361D01*
X138725288Y-79321598D01*
X138711580Y-79294183D01*
X138702943Y-79264765D01*
X138692231Y-79255483D01*
X138642573Y-79156165D01*
X138637208Y-79131505D01*
X138608000Y-79102297D01*
X138579832Y-79072015D01*
X138576991Y-79071288D01*
X138547933Y-79042231D01*
X138535046Y-79020533D01*
X138498096Y-79002058D01*
X138461800Y-78982239D01*
X138458876Y-78982448D01*
X138360022Y-78933021D01*
X138329757Y-78913571D01*
X138299104Y-78913571D01*
X138268932Y-78908141D01*
X138255840Y-78913571D01*
X137947374Y-78913571D01*
X137922919Y-78907341D01*
X137883726Y-78920405D01*
X137844050Y-78932055D01*
X137842130Y-78934270D01*
X137646388Y-78999518D01*
X137592512Y-79036961D01*
X137558840Y-79118359D01*
X136715092Y-79118359D01*
X136726169Y-79041322D01*
X136689576Y-78961195D01*
X136615471Y-78913571D01*
X136153587Y-78913571D01*
X136120607Y-78908829D01*
X136110224Y-78913571D01*
X135692717Y-78913571D01*
X135629765Y-78932055D01*
X135572080Y-78998628D01*
X135559543Y-79085820D01*
X133749999Y-79085820D01*
X133749999Y-79081170D01*
X133756121Y-79055437D01*
X133742821Y-79017559D01*
X133731515Y-78979051D01*
X133728333Y-78976294D01*
X133726939Y-78972323D01*
X133695271Y-78947646D01*
X133664942Y-78921366D01*
X133660777Y-78920767D01*
X133657455Y-78918178D01*
X133617462Y-78914539D01*
X133577750Y-78908829D01*
X133573921Y-78910577D01*
X133569730Y-78910196D01*
X133534141Y-78928744D01*
X133497623Y-78945422D01*
X133495346Y-78948964D01*
X133491615Y-78950909D01*
X133471704Y-78985751D01*
X133449999Y-79019527D01*
X133449999Y-79023737D01*
X132892856Y-79998737D01*
X132892856Y-79042003D01*
X132874372Y-78979051D01*
X132807799Y-78921366D01*
X132720607Y-78908829D01*
X132640480Y-78945422D01*
X132592856Y-79019527D01*
X132592856Y-80545972D01*
X132586734Y-80571705D01*
X131107514Y-80571705D01*
X131111883Y-80541322D01*
X131075290Y-80461195D01*
X131001185Y-80413571D01*
X130678570Y-80413571D01*
X130678570Y-79497132D01*
X130694919Y-79513481D01*
X130707808Y-79535181D01*
X130744765Y-79553659D01*
X130781053Y-79573474D01*
X130783976Y-79573264D01*
X130909351Y-79635952D01*
X130973923Y-79647572D01*
X131055290Y-79613825D01*
X131105497Y-79541444D01*
X131108601Y-79453412D01*
X131063617Y-79377675D01*
X130903137Y-79297435D01*
X130900340Y-79294638D01*
X131444568Y-79294638D01*
X131446747Y-79299892D01*
X131446137Y-79305545D01*
X131463465Y-79340202D01*
X131478315Y-79376005D01*
X131482988Y-79379246D01*
X131520172Y-79453614D01*
X131519967Y-79459444D01*
X131539694Y-79492657D01*
X131546909Y-79507087D01*
X131550659Y-79511118D01*
X131564951Y-79535181D01*
X131580074Y-79542742D01*
X131591594Y-79555127D01*
X131618710Y-79562060D01*
X131732712Y-79619061D01*
X131754392Y-79636548D01*
X131792920Y-79640707D01*
X131831066Y-79647572D01*
X131836319Y-79645392D01*
X131841971Y-79646003D01*
X131876623Y-79628676D01*
X131912433Y-79613825D01*
X131915674Y-79609151D01*
X131990042Y-79571968D01*
X131995871Y-79572174D01*
X132029080Y-79552449D01*
X132043514Y-79545233D01*
X132047546Y-79541481D01*
X132071608Y-79527191D01*
X132079170Y-79512065D01*
X132091554Y-79500547D01*
X132098487Y-79473431D01*
X132155490Y-79359426D01*
X132172976Y-79337748D01*
X132177135Y-79299218D01*
X132184000Y-79261076D01*
X132181820Y-79255821D01*
X132182431Y-79250168D01*
X132165100Y-79215506D01*
X132150253Y-79179709D01*
X132145580Y-79176467D01*
X132108395Y-79102099D01*
X132108601Y-79096270D01*
X132088873Y-79063056D01*
X132081659Y-79048627D01*
X132077908Y-79044595D01*
X132063617Y-79020533D01*
X132048493Y-79012971D01*
X132036974Y-79000587D01*
X132009858Y-78993653D01*
X131895855Y-78936652D01*
X131874175Y-78919165D01*
X131835644Y-78915005D01*
X131797503Y-78908141D01*
X131792248Y-78910320D01*
X131786595Y-78909710D01*
X131751933Y-78927040D01*
X131716136Y-78941888D01*
X131712894Y-78946560D01*
X131638526Y-78983745D01*
X131632697Y-78983540D01*
X131599483Y-79003267D01*
X131585054Y-79010482D01*
X131581022Y-79014232D01*
X131556960Y-79028524D01*
X131549398Y-79043647D01*
X131537014Y-79055167D01*
X131530080Y-79082282D01*
X131473079Y-79196285D01*
X131455592Y-79217966D01*
X131451432Y-79256497D01*
X131444568Y-79294638D01*
X130900340Y-79294638D01*
X130787996Y-79182294D01*
X130666055Y-78999382D01*
X130660086Y-78979051D01*
X130642127Y-78963489D01*
X130641414Y-78962420D01*
X130625822Y-78949361D01*
X130593513Y-78921366D01*
X130592163Y-78921171D01*
X130591115Y-78920294D01*
X130548648Y-78914915D01*
X130506321Y-78908829D01*
X130505078Y-78909396D01*
X130503725Y-78909225D01*
X130465118Y-78927645D01*
X130426194Y-78945422D01*
X130425456Y-78946570D01*
X130424222Y-78947159D01*
X130401697Y-78983540D01*
X130378570Y-79019527D01*
X130378570Y-79020892D01*
X130377851Y-79022053D01*
X130378570Y-79064841D01*
X130378570Y-80413571D01*
X130078430Y-80413571D01*
X130015478Y-80432055D01*
X129957793Y-80498628D01*
X129945256Y-80585820D01*
X128422125Y-80585820D01*
X128920550Y-79090544D01*
X128922922Y-79024977D01*
X128878007Y-78949200D01*
X128799254Y-78909734D01*
X128711667Y-78919111D01*
X128643052Y-78974353D01*
X128271426Y-80089229D01*
X127906909Y-78995676D01*
X127869466Y-78941799D01*
X127788068Y-78908127D01*
X127701386Y-78923806D01*
X127636943Y-78983859D01*
X127615197Y-79069221D01*
X126707142Y-79069221D01*
X126707142Y-79042003D01*
X126688658Y-78979051D01*
X126622085Y-78921366D01*
X126534893Y-78908829D01*
X126454766Y-78945422D01*
X126407142Y-79019527D01*
X126407142Y-80413571D01*
X125821288Y-80413571D01*
X125758336Y-80432055D01*
X125700651Y-80498628D01*
X125688114Y-80585820D01*
X124585713Y-80585820D01*
X124585713Y-77975714D01*
X143664286Y-77975714D01*
X143664286Y-86414286D01*
G37*
%TO.C,G\u002A\u002A\u002A*%
G36*
X143375824Y-63495780D02*
G01*
X143258505Y-63651939D01*
X143041318Y-63901345D01*
X142752179Y-64210496D01*
X142410050Y-64557812D01*
X141356418Y-65602439D01*
X141071607Y-65326390D01*
X140878166Y-65151781D01*
X140717449Y-65068549D01*
X140576503Y-65108357D01*
X140405270Y-65266723D01*
X140294048Y-65411243D01*
X140260831Y-65528520D01*
X140331555Y-65548030D01*
X140491638Y-65440444D01*
X140567636Y-65379909D01*
X140698444Y-65332830D01*
X140726530Y-65406013D01*
X140622154Y-65569947D01*
X140537935Y-65691152D01*
X140554277Y-65743857D01*
X140619085Y-65723597D01*
X140750915Y-65614777D01*
X140825528Y-65551082D01*
X140940555Y-65536694D01*
X140960609Y-65608257D01*
X140878896Y-65747001D01*
X140798449Y-65870425D01*
X140787973Y-65992472D01*
X140789605Y-65995132D01*
X140820450Y-66102764D01*
X140748087Y-66119369D01*
X140610417Y-66053611D01*
X140445341Y-65914153D01*
X140391596Y-65860621D01*
X140213847Y-65715440D01*
X140087316Y-65657167D01*
X139980193Y-65699874D01*
X139845653Y-65857609D01*
X139757330Y-66067273D01*
X139753460Y-66259841D01*
X139766208Y-66293833D01*
X139899818Y-66467790D01*
X140085118Y-66568574D01*
X140255034Y-66556514D01*
X140258751Y-66554399D01*
X140282741Y-66567523D01*
X140201937Y-66676489D01*
X140042270Y-66858719D01*
X139777275Y-66556906D01*
X139698514Y-66471401D01*
X139528895Y-66335949D01*
X139422288Y-66345085D01*
X139418749Y-66348774D01*
X139404662Y-66469130D01*
X139538055Y-66654096D01*
X139601832Y-66725774D01*
X139683670Y-66870399D01*
X139642082Y-66974847D01*
X139605689Y-67003574D01*
X139491475Y-67001464D01*
X139321331Y-66870819D01*
X139301490Y-66852485D01*
X139125917Y-66733142D01*
X139010726Y-66756647D01*
X138988553Y-66800711D01*
X139046245Y-66927963D01*
X139248349Y-67119594D01*
X139309368Y-67170947D01*
X139457933Y-67318657D01*
X139459304Y-67380348D01*
X139311869Y-67356912D01*
X139014012Y-67249244D01*
X138927016Y-67216362D01*
X138670165Y-67159078D01*
X138540901Y-67217099D01*
X138536126Y-67394242D01*
X138652739Y-67694326D01*
X138718791Y-67837179D01*
X138787789Y-68014996D01*
X138794284Y-68084471D01*
X138770874Y-68076294D01*
X138639262Y-67995181D01*
X138445820Y-67855298D01*
X138145358Y-67626125D01*
X137931468Y-67827064D01*
X137758762Y-68038096D01*
X137734896Y-68207911D01*
X137869283Y-68319265D01*
X138068034Y-68452694D01*
X138149697Y-68676909D01*
X138133594Y-68704185D01*
X138020075Y-68668909D01*
X137816855Y-68527888D01*
X137482685Y-68263221D01*
X137296718Y-68461174D01*
X137166111Y-68634290D01*
X137110751Y-68776748D01*
X137113157Y-68805137D01*
X137199279Y-68983204D01*
X137359229Y-69142463D01*
X137524904Y-69211434D01*
X137531265Y-69211467D01*
X137606149Y-69238080D01*
X137544927Y-69340590D01*
X137482365Y-69401081D01*
X137395316Y-69392763D01*
X137267952Y-69253901D01*
X137096571Y-69102675D01*
X136916234Y-69038055D01*
X136895594Y-69038702D01*
X136673243Y-69114787D01*
X136492088Y-69277905D01*
X136417236Y-69471502D01*
X136468216Y-69621041D01*
X136628880Y-69800510D01*
X136840047Y-69918988D01*
X136824607Y-69983166D01*
X136691654Y-70153207D01*
X136449054Y-70417795D01*
X136106757Y-70766102D01*
X135674715Y-71187297D01*
X135572022Y-71285647D01*
X135193717Y-71646154D01*
X134864049Y-71957542D01*
X134602064Y-72202005D01*
X134426806Y-72361741D01*
X134357319Y-72418942D01*
X134298732Y-72370121D01*
X134121323Y-72213309D01*
X133835270Y-71957335D01*
X133450698Y-71611351D01*
X132977736Y-71184506D01*
X132426511Y-70685953D01*
X131807150Y-70124843D01*
X131129781Y-69510328D01*
X130404532Y-68851557D01*
X129641528Y-68157683D01*
X124958405Y-63896425D01*
X125003910Y-63851273D01*
X126361263Y-63851273D01*
X126393027Y-63891847D01*
X126535877Y-64036492D01*
X126777621Y-64268593D01*
X127100698Y-64571571D01*
X127487553Y-64928846D01*
X127920628Y-65323836D01*
X128018082Y-65412263D01*
X128487242Y-65840790D01*
X128840725Y-66170577D01*
X129090950Y-66414854D01*
X129250336Y-66586853D01*
X129331304Y-66699803D01*
X129346271Y-66766936D01*
X129307658Y-66801482D01*
X129207026Y-66863876D01*
X129135324Y-66998060D01*
X129102617Y-67077181D01*
X128954721Y-67130888D01*
X128849888Y-67151505D01*
X128812448Y-67239249D01*
X128918349Y-67310517D01*
X129138741Y-67323486D01*
X129163480Y-67321430D01*
X129337327Y-67314803D01*
X129366226Y-67354394D01*
X129275367Y-67466586D01*
X129193830Y-67575014D01*
X129176461Y-67676090D01*
X129260452Y-67696563D01*
X129413190Y-67634355D01*
X129602061Y-67487391D01*
X129715157Y-67382452D01*
X129895720Y-67246251D01*
X129984967Y-67232445D01*
X129971749Y-67345319D01*
X129969642Y-67431606D01*
X130070114Y-67555540D01*
X130144285Y-67615356D01*
X130155298Y-67700220D01*
X130094230Y-67715512D01*
X129958874Y-67651024D01*
X129870537Y-67597008D01*
X129768056Y-67596222D01*
X129771317Y-67661972D01*
X129878377Y-67774866D01*
X129971061Y-67869330D01*
X129980941Y-67961266D01*
X129890071Y-67962543D01*
X129742150Y-67867748D01*
X129708908Y-67838741D01*
X129565648Y-67750811D01*
X129512934Y-67781489D01*
X129556115Y-67902678D01*
X129700541Y-68086283D01*
X129949705Y-68346354D01*
X130265447Y-68038041D01*
X130357639Y-67949608D01*
X130513714Y-67821745D01*
X130611632Y-67798710D01*
X130692420Y-67863755D01*
X130709099Y-67884228D01*
X130755165Y-67976208D01*
X130663004Y-67997782D01*
X130578584Y-68017823D01*
X130399544Y-68130318D01*
X130242794Y-68289628D01*
X130175597Y-68435368D01*
X130177537Y-68448890D01*
X130254117Y-68576091D01*
X130407729Y-68741329D01*
X130639860Y-68956461D01*
X130955625Y-68648125D01*
X131101283Y-68509265D01*
X131232277Y-68411654D01*
X131320596Y-68411988D01*
X131411820Y-68494963D01*
X131464658Y-68558551D01*
X131482881Y-68637006D01*
X131391220Y-68710030D01*
X131163503Y-68810923D01*
X130950270Y-68923030D01*
X130825253Y-69041600D01*
X130823657Y-69132073D01*
X130960466Y-69168089D01*
X131061289Y-69214746D01*
X131178725Y-69364675D01*
X131271004Y-69531963D01*
X131351278Y-69590410D01*
X131434653Y-69503122D01*
X131550510Y-69261983D01*
X131616024Y-69120632D01*
X131713833Y-68936677D01*
X131771682Y-68864676D01*
X131773637Y-68865196D01*
X131859837Y-68930958D01*
X132051483Y-69094347D01*
X132328187Y-69337468D01*
X132669564Y-69642425D01*
X133055226Y-69991324D01*
X133092081Y-70024839D01*
X133475190Y-70370601D01*
X133812852Y-70670751D01*
X134084510Y-70907365D01*
X134269610Y-71062518D01*
X134347598Y-71118286D01*
X134351208Y-71116414D01*
X134441218Y-71036654D01*
X134641728Y-70846851D01*
X134942136Y-70557364D01*
X135331836Y-70178553D01*
X135800227Y-69720776D01*
X136336705Y-69194392D01*
X136930665Y-68609760D01*
X137571505Y-67977240D01*
X138248622Y-67307191D01*
X142095393Y-63495780D01*
X141748635Y-63167771D01*
X141721941Y-63142612D01*
X141471185Y-62910981D01*
X141159434Y-62628556D01*
X140847814Y-62350775D01*
X140293750Y-61861788D01*
X140711507Y-61676994D01*
X140895628Y-61588014D01*
X141040407Y-61481944D01*
X141037136Y-61400071D01*
X141033991Y-61397019D01*
X140900343Y-61362846D01*
X140674978Y-61447580D01*
X140542167Y-61512771D01*
X140430052Y-61539585D01*
X140431405Y-61454342D01*
X140533696Y-61238497D01*
X140569536Y-61165686D01*
X140612513Y-61017050D01*
X140555368Y-60951847D01*
X140514178Y-60957274D01*
X140399849Y-61070086D01*
X140274915Y-61287825D01*
X140210995Y-61422076D01*
X140120818Y-61569675D01*
X140040578Y-61598409D01*
X139933005Y-61535249D01*
X139861039Y-61477061D01*
X139823617Y-61400310D01*
X139882605Y-61294660D01*
X140051112Y-61113277D01*
X140199408Y-60939919D01*
X140289332Y-60767677D01*
X140256352Y-60695686D01*
X140117240Y-60743015D01*
X139888769Y-60928730D01*
X139788192Y-61025073D01*
X139632655Y-61151711D01*
X139534930Y-61174394D01*
X139454679Y-61109966D01*
X139441200Y-61093498D01*
X139389474Y-60998549D01*
X139470660Y-60975939D01*
X139545196Y-60965711D01*
X139725794Y-60845183D01*
X139842114Y-60638102D01*
X139868873Y-60406666D01*
X139780785Y-60213072D01*
X139739811Y-60179581D01*
X139580925Y-60117960D01*
X139431119Y-60122313D01*
X139364676Y-60195734D01*
X139377553Y-60233954D01*
X139489594Y-60282423D01*
X139598910Y-60307012D01*
X139680744Y-60425710D01*
X139621593Y-60589634D01*
X139501420Y-60689994D01*
X139350896Y-60692228D01*
X139252868Y-60542492D01*
X139244109Y-60512964D01*
X139155783Y-60385134D01*
X139061718Y-60399358D01*
X139017918Y-60553106D01*
X139017054Y-60600143D01*
X138986537Y-60685793D01*
X138883891Y-60625867D01*
X138847087Y-60591577D01*
X138816793Y-60508623D01*
X138881575Y-60391405D01*
X139058178Y-60198894D01*
X139366491Y-59883153D01*
X139106419Y-59633988D01*
X139070174Y-59600483D01*
X138898396Y-59477117D01*
X138788531Y-59448197D01*
X138770436Y-59510354D01*
X138873967Y-59660220D01*
X138947022Y-59748587D01*
X139013237Y-59870953D01*
X138977090Y-59898558D01*
X138844008Y-59805151D01*
X138768843Y-59745215D01*
X138637873Y-59697907D01*
X138609683Y-59771131D01*
X138714024Y-59935134D01*
X138773700Y-60003954D01*
X138816293Y-60088819D01*
X138738556Y-60109045D01*
X138649132Y-60087689D01*
X138494376Y-59974907D01*
X138391457Y-59890293D01*
X138312843Y-59953235D01*
X138257983Y-59991349D01*
X138137445Y-59940210D01*
X137938966Y-59762287D01*
X137635297Y-59458874D01*
X137944893Y-59442780D01*
X137987316Y-59440645D01*
X138160759Y-59440852D01*
X138192755Y-59481450D01*
X138110420Y-59585880D01*
X138034284Y-59687103D01*
X138016931Y-59788551D01*
X138100215Y-59810983D01*
X138249736Y-59751927D01*
X138431098Y-59608913D01*
X138580678Y-59428398D01*
X138630475Y-59265222D01*
X138535394Y-59181271D01*
X138299879Y-59190707D01*
X138126218Y-59219621D01*
X138094395Y-59190028D01*
X138186006Y-59078013D01*
X138267140Y-58969939D01*
X138283573Y-58869831D01*
X138198962Y-58850046D01*
X138046071Y-58912479D01*
X137857666Y-59059026D01*
X137777784Y-59133952D01*
X137610595Y-59273490D01*
X137513970Y-59328840D01*
X137513398Y-59328791D01*
X137430582Y-59270076D01*
X137236912Y-59110635D01*
X136949760Y-58865452D01*
X136586498Y-58549511D01*
X136164497Y-58177794D01*
X135701131Y-57765284D01*
X133953611Y-56201729D01*
X130157437Y-59997167D01*
X130064955Y-60089649D01*
X129399177Y-60756464D01*
X128772564Y-61385837D01*
X128195573Y-61967151D01*
X127678660Y-62489789D01*
X127232282Y-62943135D01*
X126866897Y-63316574D01*
X126592960Y-63599487D01*
X126420930Y-63781259D01*
X126361263Y-63851273D01*
X125003910Y-63851273D01*
X126591745Y-62275753D01*
X128225086Y-60655081D01*
X128642025Y-60694615D01*
X128830552Y-60714218D01*
X128971617Y-60745240D01*
X128988518Y-60799537D01*
X128909849Y-60898921D01*
X128823809Y-61021290D01*
X128811822Y-61114780D01*
X128821701Y-61119826D01*
X128917541Y-61072524D01*
X129060186Y-60940699D01*
X129206652Y-60772701D01*
X129313961Y-60616881D01*
X129339131Y-60521591D01*
X129331867Y-60513565D01*
X129205101Y-60472521D01*
X128989560Y-60455802D01*
X128817697Y-60449167D01*
X128741604Y-60413152D01*
X128785415Y-60329566D01*
X128833232Y-60246549D01*
X128834258Y-60112842D01*
X128834809Y-60057386D01*
X128952522Y-60022355D01*
X129061104Y-59997836D01*
X129211204Y-59871371D01*
X129273676Y-59794451D01*
X129359463Y-59784150D01*
X129360545Y-59874274D01*
X129265840Y-60021824D01*
X129196814Y-60101661D01*
X129162457Y-60178705D01*
X129246807Y-60195734D01*
X129314296Y-60186544D01*
X129438737Y-60109045D01*
X129456401Y-60086009D01*
X129587323Y-60022355D01*
X129608696Y-60072010D01*
X129524946Y-60196266D01*
X129519202Y-60202660D01*
X129414961Y-60358852D01*
X129433861Y-60426417D01*
X129545572Y-60395820D01*
X129719765Y-60257523D01*
X129952195Y-60025094D01*
X129666260Y-59730084D01*
X129575030Y-59627727D01*
X129469525Y-59468199D01*
X129465465Y-59382455D01*
X129515184Y-59373706D01*
X129600312Y-59459372D01*
X129709518Y-59564099D01*
X129892902Y-59578843D01*
X130067896Y-59488555D01*
X130158552Y-59433405D01*
X130294240Y-59492764D01*
X130392155Y-59550395D01*
X130481038Y-59498938D01*
X130487355Y-59459818D01*
X130422511Y-59310056D01*
X130270508Y-59120598D01*
X130192359Y-59034472D01*
X130077056Y-58872406D01*
X130058487Y-58781331D01*
X130089236Y-58754219D01*
X130205426Y-58738861D01*
X130286373Y-58891445D01*
X130354554Y-59014448D01*
X130539502Y-59117631D01*
X130767606Y-59116658D01*
X130975067Y-59001346D01*
X131062718Y-58883076D01*
X131109577Y-58652054D01*
X131023102Y-58446528D01*
X130816211Y-58321767D01*
X130592571Y-58265636D01*
X130815164Y-58043043D01*
X131037757Y-57820450D01*
X131256719Y-58026153D01*
X131391709Y-58166931D01*
X131418768Y-58268452D01*
X131340128Y-58381639D01*
X131292830Y-58438830D01*
X131246048Y-58548164D01*
X131304851Y-58575136D01*
X131434346Y-58519715D01*
X131599636Y-58381870D01*
X131836554Y-58134581D01*
X131520337Y-57893390D01*
X131204119Y-57652199D01*
X132530959Y-56323284D01*
X132688037Y-56166476D01*
X133067594Y-55792012D01*
X133400504Y-55469759D01*
X133667994Y-55217527D01*
X133851293Y-55053127D01*
X133931627Y-54994369D01*
X133953557Y-55001770D01*
X134089055Y-55095066D01*
X134316223Y-55279232D01*
X134612818Y-55533796D01*
X134956594Y-55838288D01*
X135325307Y-56172239D01*
X135696712Y-56515178D01*
X136048565Y-56846635D01*
X136358620Y-57146140D01*
X136604634Y-57393222D01*
X136764361Y-57567412D01*
X136815557Y-57648239D01*
X136813055Y-57722240D01*
X136899180Y-57859396D01*
X136964262Y-57926615D01*
X137024062Y-58052549D01*
X136974573Y-58070146D01*
X136850151Y-57984673D01*
X136775318Y-57925425D01*
X136644944Y-57878542D01*
X136611203Y-57945552D01*
X136706921Y-58100019D01*
X136783889Y-58204178D01*
X136797933Y-58305845D01*
X136705924Y-58309609D01*
X136541174Y-58196151D01*
X136540356Y-58195383D01*
X136388234Y-58091010D01*
X136296114Y-58100767D01*
X136291405Y-58127496D01*
X136358176Y-58254407D01*
X136516175Y-58415606D01*
X136788959Y-58645138D01*
X137078848Y-58364166D01*
X137179264Y-58265036D01*
X137293024Y-58127634D01*
X137303093Y-58031242D01*
X137226308Y-57925812D01*
X137179944Y-57873220D01*
X137110569Y-57777760D01*
X137142050Y-57780971D01*
X137252359Y-57870510D01*
X137419471Y-58034038D01*
X137535521Y-58161971D01*
X137582353Y-58245046D01*
X137507330Y-58235712D01*
X137476992Y-58224564D01*
X137381286Y-58218434D01*
X137401565Y-58330338D01*
X137408110Y-58471704D01*
X137270391Y-58693294D01*
X137237780Y-58729095D01*
X137139749Y-58885277D01*
X137175469Y-58994786D01*
X137209773Y-59020020D01*
X137321889Y-59001719D01*
X137485142Y-58844749D01*
X137596975Y-58725363D01*
X137717374Y-58656977D01*
X137823986Y-58702407D01*
X137961561Y-58765319D01*
X138019248Y-58704600D01*
X137955221Y-58560032D01*
X137964874Y-58563562D01*
X138077393Y-58656055D01*
X138298822Y-58846330D01*
X138616589Y-59123364D01*
X139018122Y-59476133D01*
X139490849Y-59893615D01*
X140022198Y-60364786D01*
X140599597Y-60878623D01*
X140928026Y-61171682D01*
X141493296Y-61677488D01*
X142011022Y-62142532D01*
X142467522Y-62554418D01*
X142849115Y-62900752D01*
X143142119Y-63169139D01*
X143332852Y-63347185D01*
X143407633Y-63422495D01*
X143384781Y-63483857D01*
X143375824Y-63495780D01*
G37*
G36*
X138688952Y-61469725D02*
G01*
X138757850Y-61525093D01*
X138757850Y-61557067D01*
X138757850Y-63981233D01*
X138757850Y-66437372D01*
X138497782Y-66437372D01*
X138441937Y-66437919D01*
X138303636Y-66462945D01*
X138247983Y-66561786D01*
X138237714Y-66784130D01*
X138237714Y-67130888D01*
X137409859Y-67130888D01*
X137090153Y-67125453D01*
X136654415Y-67086448D01*
X136346138Y-67002066D01*
X136137961Y-66863163D01*
X136002524Y-66660597D01*
X135920933Y-66528075D01*
X135782348Y-66455029D01*
X135535271Y-66437372D01*
X135450543Y-66435403D01*
X135166202Y-66375183D01*
X135131822Y-66350683D01*
X135194084Y-66350683D01*
X135545592Y-66350683D01*
X135567683Y-66350641D01*
X135782689Y-66336418D01*
X135876496Y-66277419D01*
X135897099Y-66145650D01*
X135897125Y-66142161D01*
X135951970Y-65929952D01*
X136080406Y-65707581D01*
X136263713Y-65474544D01*
X135755321Y-65500839D01*
X135246929Y-65527133D01*
X135220506Y-65938908D01*
X135194084Y-66350683D01*
X135131822Y-66350683D01*
X134926587Y-66204430D01*
X134683447Y-65971488D01*
X134683447Y-66594532D01*
X134683447Y-67217577D01*
X134206656Y-67217577D01*
X133729864Y-67217577D01*
X133729864Y-66827475D01*
X133729864Y-66437372D01*
X132646246Y-66437372D01*
X131562628Y-66437372D01*
X131562628Y-66827475D01*
X131562628Y-67217577D01*
X131042492Y-67217577D01*
X130522355Y-67217577D01*
X130518974Y-66849147D01*
X130513585Y-66705045D01*
X130471110Y-66525438D01*
X130355086Y-66376274D01*
X130322933Y-66350683D01*
X131553129Y-66350683D01*
X132641496Y-66350683D01*
X133729864Y-66350683D01*
X133729864Y-65527133D01*
X133729864Y-65492452D01*
X134698584Y-65492452D01*
X134702511Y-65756965D01*
X134761270Y-65931565D01*
X134896291Y-66086970D01*
X135116894Y-66294216D01*
X135116894Y-65872917D01*
X135113817Y-65749442D01*
X135059776Y-65454135D01*
X134921843Y-65229308D01*
X134726792Y-65006997D01*
X134949103Y-65202048D01*
X135062483Y-65287747D01*
X135227080Y-65356205D01*
X135460985Y-65388635D01*
X135815997Y-65396669D01*
X136137033Y-65390383D01*
X136382215Y-65361150D01*
X136558412Y-65295839D01*
X136720649Y-65181355D01*
X136980717Y-64966472D01*
X135853754Y-64986734D01*
X134726792Y-65006997D01*
X134701240Y-65443360D01*
X134698584Y-65492452D01*
X133729864Y-65492452D01*
X133729864Y-64790273D01*
X134683447Y-64790273D01*
X134757461Y-64824903D01*
X134988369Y-64852984D01*
X135359474Y-64870758D01*
X135853754Y-64876963D01*
X136321253Y-64871480D01*
X136700355Y-64854376D01*
X136940298Y-64826887D01*
X137024062Y-64790273D01*
X136970758Y-64751631D01*
X136785246Y-64716909D01*
X136511149Y-64703584D01*
X136338946Y-64699370D01*
X136068573Y-64663735D01*
X135947668Y-64595222D01*
X135903462Y-64531470D01*
X135865884Y-64573550D01*
X135846530Y-64595222D01*
X135803165Y-64634665D01*
X135596935Y-64685968D01*
X135239704Y-64703584D01*
X134973140Y-64713767D01*
X134762960Y-64744830D01*
X134683447Y-64790273D01*
X133729864Y-64790273D01*
X133729864Y-64703584D01*
X133326326Y-64703584D01*
X133164278Y-64704798D01*
X133014276Y-64719794D01*
X132991277Y-64766336D01*
X133010016Y-64790273D01*
X133066257Y-64862116D01*
X133179134Y-65007278D01*
X133194422Y-65095710D01*
X133079693Y-65081691D01*
X133073885Y-65079540D01*
X132977874Y-65095254D01*
X132950109Y-65251610D01*
X132949659Y-65254144D01*
X132946449Y-65339108D01*
X132913580Y-65418331D01*
X132815120Y-65463032D01*
X132615167Y-65486448D01*
X132277816Y-65501814D01*
X131605973Y-65527133D01*
X131579551Y-65938908D01*
X131578160Y-65960580D01*
X131556610Y-66296431D01*
X131553129Y-66350683D01*
X130322933Y-66350683D01*
X130128872Y-66196229D01*
X130082146Y-66161790D01*
X129887080Y-66005891D01*
X129785977Y-65868704D01*
X129747961Y-65686201D01*
X129742929Y-65433500D01*
X129828840Y-65433500D01*
X129835369Y-65585225D01*
X129906328Y-65827204D01*
X130088908Y-66047270D01*
X130348976Y-66296431D01*
X130348976Y-65962343D01*
X130445722Y-65962343D01*
X130461332Y-66200168D01*
X130476601Y-66241314D01*
X130492052Y-66166167D01*
X130497561Y-65960580D01*
X130493661Y-65800258D01*
X130480010Y-65706563D01*
X130460148Y-65766721D01*
X130445722Y-65962343D01*
X130348976Y-65962343D01*
X130348976Y-65874025D01*
X130345753Y-65747341D01*
X130291555Y-65453301D01*
X130153925Y-65229308D01*
X129969426Y-65019022D01*
X129858108Y-65162164D01*
X129828840Y-65433500D01*
X129742929Y-65433500D01*
X129742150Y-65394352D01*
X129742150Y-65006997D01*
X129958874Y-65006997D01*
X129969426Y-65019022D01*
X129970055Y-65018213D01*
X129971332Y-65017926D01*
X130181185Y-65202048D01*
X130276904Y-65283217D01*
X130430071Y-65380875D01*
X130503486Y-65347129D01*
X130522355Y-65180376D01*
X130522163Y-65170533D01*
X131562628Y-65170533D01*
X131562773Y-65180376D01*
X131563506Y-65230322D01*
X131585260Y-65325242D01*
X131665582Y-65374920D01*
X131842741Y-65393994D01*
X132155006Y-65397099D01*
X132156480Y-65397099D01*
X132462148Y-65389134D01*
X132695160Y-65368378D01*
X132805177Y-65339306D01*
X132857114Y-65251610D01*
X132839948Y-65114347D01*
X132722321Y-65050342D01*
X132681604Y-65051530D01*
X132627635Y-65085813D01*
X132700648Y-65200552D01*
X132768714Y-65292438D01*
X132744089Y-65298637D01*
X132595697Y-65208033D01*
X132529957Y-65171931D01*
X132266498Y-65073171D01*
X131967199Y-65004635D01*
X131788132Y-64979628D01*
X131632616Y-64977754D01*
X131572566Y-65035190D01*
X131562628Y-65170533D01*
X130522163Y-65170533D01*
X130521692Y-65146398D01*
X130472802Y-65001201D01*
X130312722Y-64963652D01*
X130200898Y-64966481D01*
X129971332Y-65017926D01*
X129958874Y-65006997D01*
X129742150Y-65006997D01*
X129742150Y-64876963D01*
X130132253Y-64876963D01*
X130290574Y-64872124D01*
X130469269Y-64833645D01*
X130496379Y-64790273D01*
X131562628Y-64790273D01*
X131579169Y-64831702D01*
X131697778Y-64876963D01*
X131759699Y-64864488D01*
X131779352Y-64790273D01*
X131761608Y-64766598D01*
X131644201Y-64703584D01*
X131624848Y-64706065D01*
X131562628Y-64790273D01*
X130496379Y-64790273D01*
X130522355Y-64748714D01*
X130480994Y-64653290D01*
X130418882Y-64573550D01*
X132776280Y-64573550D01*
X132819625Y-64616894D01*
X132862970Y-64573550D01*
X132819625Y-64530205D01*
X132776280Y-64573550D01*
X130418882Y-64573550D01*
X130339523Y-64471669D01*
X130132253Y-64260881D01*
X129918034Y-64053081D01*
X129799514Y-63887604D01*
X129751290Y-63703769D01*
X129742871Y-63456708D01*
X129828840Y-63456708D01*
X129846080Y-63743661D01*
X129917793Y-63943547D01*
X130071979Y-64123884D01*
X130117649Y-64166656D01*
X130279693Y-64302195D01*
X130375392Y-64356826D01*
X130391722Y-64342825D01*
X130423175Y-64210474D01*
X130435666Y-63983729D01*
X130415976Y-63737662D01*
X130388649Y-63675037D01*
X131955452Y-63675037D01*
X131985223Y-63744193D01*
X132113236Y-63898769D01*
X132196142Y-63983729D01*
X132311715Y-64102165D01*
X132321320Y-64111407D01*
X132504736Y-64275828D01*
X132612218Y-64348427D01*
X132620770Y-64313481D01*
X132526358Y-64173661D01*
X132421146Y-64053413D01*
X135810410Y-64053413D01*
X135814388Y-64169995D01*
X135837086Y-64313481D01*
X135845400Y-64366034D01*
X135897099Y-64443516D01*
X135923006Y-64425616D01*
X135966570Y-64286061D01*
X135983789Y-64053413D01*
X135979811Y-63936831D01*
X135948799Y-63740793D01*
X135897099Y-63663311D01*
X135871192Y-63681211D01*
X135827628Y-63820765D01*
X135810410Y-64053413D01*
X132421146Y-64053413D01*
X132365954Y-63990334D01*
X132189169Y-63819092D01*
X132038252Y-63700479D01*
X131955452Y-63675037D01*
X130388649Y-63675037D01*
X130327321Y-63534494D01*
X130132253Y-63316553D01*
X129863931Y-63056485D01*
X129969781Y-63056485D01*
X130218942Y-63316553D01*
X130468103Y-63576621D01*
X131638411Y-63576621D01*
X132808718Y-63576621D01*
X132559557Y-63316553D01*
X132310395Y-63056485D01*
X131140088Y-63056485D01*
X129969781Y-63056485D01*
X129863931Y-63056485D01*
X129828840Y-63022474D01*
X129828840Y-63456708D01*
X129742871Y-63456708D01*
X129742150Y-63435547D01*
X129742150Y-62969795D01*
X130955802Y-62969795D01*
X132169454Y-62969795D01*
X132169454Y-62851341D01*
X132271810Y-62851341D01*
X132399282Y-63070964D01*
X132533505Y-63199682D01*
X132710293Y-63327633D01*
X132762984Y-63351845D01*
X132828110Y-63340372D01*
X132856649Y-63223510D01*
X132862970Y-62967353D01*
X132862970Y-62525363D01*
X132581939Y-62552528D01*
X132487206Y-62568316D01*
X132304193Y-62675065D01*
X132271810Y-62851341D01*
X132169454Y-62851341D01*
X132169454Y-62753072D01*
X132169454Y-62536348D01*
X131293363Y-62536348D01*
X131160437Y-62536230D01*
X130801118Y-62531303D01*
X130557804Y-62511901D01*
X130386078Y-62468239D01*
X130351513Y-62449659D01*
X130412837Y-62449659D01*
X131688362Y-62449659D01*
X132963886Y-62449659D01*
X132960296Y-62525363D01*
X132935100Y-63056680D01*
X132910443Y-63576621D01*
X132906314Y-63663701D01*
X133407529Y-63663506D01*
X133908745Y-63663311D01*
X133884321Y-62644710D01*
X133859898Y-61626109D01*
X132212799Y-61658407D01*
X132183278Y-61658990D01*
X131670749Y-61670426D01*
X131222582Y-61682812D01*
X130866026Y-61695208D01*
X130628329Y-61706672D01*
X130536739Y-61716265D01*
X130528781Y-61731710D01*
X130514512Y-61792155D01*
X130496282Y-61869375D01*
X130460307Y-62095742D01*
X130412837Y-62449659D01*
X130351513Y-62449659D01*
X130241519Y-62390532D01*
X130079711Y-62268996D01*
X129890585Y-62108393D01*
X129789497Y-61967547D01*
X129749331Y-61782536D01*
X129742497Y-61502974D01*
X129828840Y-61502974D01*
X129839838Y-61714571D01*
X129911141Y-61936676D01*
X130078675Y-62136442D01*
X130328510Y-62375799D01*
X130371729Y-62044299D01*
X130376572Y-62004768D01*
X130377508Y-61792155D01*
X130302383Y-61618943D01*
X130121894Y-61410831D01*
X129828840Y-61108863D01*
X129828840Y-61502974D01*
X129742497Y-61502974D01*
X129742150Y-61488791D01*
X129742150Y-61062628D01*
X129969781Y-61062628D01*
X130218942Y-61322697D01*
X130468103Y-61582765D01*
X131557175Y-61566061D01*
X131979287Y-61558113D01*
X132460788Y-61545946D01*
X132887052Y-61532101D01*
X133199013Y-61518296D01*
X133751779Y-61487233D01*
X133552332Y-61274931D01*
X133507347Y-61228135D01*
X133434152Y-61167145D01*
X133339708Y-61123349D01*
X133198660Y-61093898D01*
X132985654Y-61075948D01*
X132675334Y-61066650D01*
X132242345Y-61063159D01*
X131661332Y-61062628D01*
X129969781Y-61062628D01*
X129742150Y-61062628D01*
X129742150Y-60975939D01*
X131537301Y-60975939D01*
X133332451Y-60975939D01*
X133661192Y-61296945D01*
X133856064Y-61487233D01*
X133989932Y-61617952D01*
X133989932Y-62640631D01*
X133989932Y-63663311D01*
X134250000Y-63663311D01*
X134305845Y-63662764D01*
X134444146Y-63637738D01*
X134499799Y-63538897D01*
X134508852Y-63342892D01*
X134596758Y-63342892D01*
X134596949Y-63396998D01*
X134614568Y-63578198D01*
X134693274Y-63644430D01*
X134878499Y-63644296D01*
X134906810Y-63642582D01*
X135129232Y-63633061D01*
X135474289Y-63621672D01*
X135900406Y-63609696D01*
X136366008Y-63598415D01*
X137571776Y-63571549D01*
X137325045Y-63314017D01*
X137078313Y-63056485D01*
X135908006Y-63056485D01*
X134737699Y-63056485D01*
X134992132Y-63338226D01*
X135246565Y-63619966D01*
X134921662Y-63321220D01*
X134596758Y-63022474D01*
X134596758Y-63342892D01*
X134508852Y-63342892D01*
X134510068Y-63316553D01*
X134510068Y-62969795D01*
X135723720Y-62969795D01*
X136937372Y-62969795D01*
X136937372Y-62785307D01*
X137067406Y-62785307D01*
X137136429Y-62985984D01*
X137349147Y-63208191D01*
X137630888Y-63425463D01*
X137630888Y-62975413D01*
X137630888Y-62525363D01*
X137349147Y-62552528D01*
X137230270Y-62569285D01*
X137099881Y-62637166D01*
X137067406Y-62785307D01*
X136937372Y-62785307D01*
X136937372Y-62753072D01*
X136937372Y-62536348D01*
X136044727Y-62536348D01*
X135152081Y-62536348D01*
X135067431Y-62449659D01*
X135290273Y-62449659D01*
X136503925Y-62449659D01*
X137717577Y-62449659D01*
X137717577Y-62525363D01*
X137717577Y-63056485D01*
X137707630Y-63387957D01*
X137676939Y-63571549D01*
X137672454Y-63598381D01*
X137609215Y-63666704D01*
X137594680Y-63669068D01*
X137623975Y-63711616D01*
X137775768Y-63789683D01*
X137844423Y-63821971D01*
X138076597Y-64000558D01*
X138101629Y-64053413D01*
X138200854Y-64262929D01*
X138237714Y-64647173D01*
X138231542Y-64790273D01*
X138229117Y-64846508D01*
X138194481Y-64966472D01*
X138179077Y-65019826D01*
X138055751Y-65183931D01*
X137827432Y-65396751D01*
X137735583Y-65474544D01*
X137632334Y-65561992D01*
X137373908Y-65764244D01*
X137177262Y-65899601D01*
X137166675Y-65905920D01*
X137004369Y-66022709D01*
X136937372Y-66109305D01*
X136940213Y-66115665D01*
X137046868Y-66146955D01*
X137276765Y-66168978D01*
X137587543Y-66177304D01*
X137618032Y-66177385D01*
X137938658Y-66189867D01*
X138157039Y-66220313D01*
X138237714Y-66263993D01*
X138291521Y-66321008D01*
X138454437Y-66350683D01*
X138671161Y-66350683D01*
X138671161Y-63953875D01*
X138671161Y-61557067D01*
X137955973Y-61612741D01*
X137743399Y-61626833D01*
X137275431Y-61648327D01*
X136756705Y-61663229D01*
X136265529Y-61668935D01*
X135290273Y-61669454D01*
X135290273Y-61999283D01*
X135290273Y-62059557D01*
X135290273Y-62449659D01*
X135067431Y-62449659D01*
X134825809Y-62202216D01*
X134701921Y-62071101D01*
X134570744Y-61890491D01*
X134522189Y-61706507D01*
X134525027Y-61532476D01*
X134596758Y-61532476D01*
X134601504Y-61663389D01*
X134667215Y-61914414D01*
X134839897Y-62130027D01*
X134885567Y-62172799D01*
X135047611Y-62308338D01*
X135143310Y-62362970D01*
X135158663Y-62350938D01*
X135190790Y-62222665D01*
X135203584Y-61999283D01*
X135202639Y-61941315D01*
X135143492Y-61635876D01*
X134965188Y-61370785D01*
X134735009Y-61115100D01*
X134733882Y-61115248D01*
X134717004Y-61122996D01*
X134625719Y-61255689D01*
X134596758Y-61532476D01*
X134525027Y-61532476D01*
X134526475Y-61443683D01*
X134547911Y-61105973D01*
X134726792Y-61105973D01*
X134735009Y-61115100D01*
X134736687Y-61114880D01*
X134991604Y-61344369D01*
X135124891Y-61454612D01*
X135258032Y-61525040D01*
X135432957Y-61563492D01*
X135693520Y-61579542D01*
X136083576Y-61582765D01*
X136164404Y-61582518D01*
X136675652Y-61573246D01*
X137225107Y-61553261D01*
X137706993Y-61526245D01*
X138503249Y-61469725D01*
X138312026Y-61266177D01*
X138286662Y-61239562D01*
X138214026Y-61175191D01*
X138123527Y-61128693D01*
X137989245Y-61097163D01*
X137785260Y-61077696D01*
X137485655Y-61067389D01*
X137064509Y-61063334D01*
X136495904Y-61062628D01*
X135983502Y-61065251D01*
X135515706Y-61072717D01*
X135131567Y-61084134D01*
X134860990Y-61098609D01*
X134736687Y-61114880D01*
X134726792Y-61105973D01*
X134547911Y-61105973D01*
X134553413Y-61019284D01*
X136311712Y-60995807D01*
X138070012Y-60972331D01*
X138413931Y-61248712D01*
X138688952Y-61469725D01*
G37*
G36*
X144115460Y-63411085D02*
G01*
X144194360Y-63481454D01*
X141020986Y-66629174D01*
X140456779Y-67188667D01*
X139747386Y-67891758D01*
X139032000Y-68600414D01*
X138332127Y-69293351D01*
X137669273Y-69949282D01*
X137064945Y-70546921D01*
X136540647Y-71064982D01*
X136117886Y-71482179D01*
X134388160Y-73187463D01*
X134016121Y-72868219D01*
X133912516Y-72776806D01*
X133684056Y-72572166D01*
X133348202Y-72269759D01*
X132916039Y-71879612D01*
X132398649Y-71411756D01*
X131807116Y-70876219D01*
X131152523Y-70283031D01*
X130445952Y-69642221D01*
X129698488Y-68963817D01*
X128921214Y-68257850D01*
X124198346Y-63966724D01*
X124231245Y-63933975D01*
X124368058Y-63933975D01*
X124370533Y-63937963D01*
X124457248Y-64025365D01*
X124660678Y-64218427D01*
X124971031Y-64508136D01*
X125378509Y-64885480D01*
X125873319Y-65341446D01*
X126445664Y-65867021D01*
X127085751Y-66453194D01*
X127783782Y-67090951D01*
X128529965Y-67771280D01*
X129314502Y-68485169D01*
X129465233Y-68622160D01*
X130245732Y-69330390D01*
X130988387Y-70002452D01*
X131683173Y-70629378D01*
X132320064Y-71202203D01*
X132889034Y-71711960D01*
X133380056Y-72149685D01*
X133783106Y-72506412D01*
X134088157Y-72773174D01*
X134285184Y-72941005D01*
X134364161Y-73000941D01*
X134372407Y-72997709D01*
X134478744Y-72911205D01*
X134695968Y-72714008D01*
X135014515Y-72415347D01*
X135424820Y-72024451D01*
X135917319Y-71550551D01*
X136482449Y-71002875D01*
X137110644Y-70390654D01*
X137792342Y-69723117D01*
X138517977Y-69009493D01*
X139277987Y-68259012D01*
X139504670Y-68034690D01*
X140368189Y-67179366D01*
X141117276Y-66435688D01*
X141759466Y-65795798D01*
X142302291Y-65251842D01*
X142753284Y-64795963D01*
X143119978Y-64420306D01*
X143409906Y-64117015D01*
X143630600Y-63878233D01*
X143789593Y-63696105D01*
X143894418Y-63562775D01*
X143952608Y-63470387D01*
X143971697Y-63411085D01*
X143959215Y-63377013D01*
X143885688Y-63310252D01*
X143689576Y-63134382D01*
X143388233Y-62865161D01*
X142994014Y-62513569D01*
X142519274Y-62090585D01*
X141976368Y-61607191D01*
X141377650Y-61074366D01*
X140735475Y-60503091D01*
X140062196Y-59904347D01*
X139370170Y-59289113D01*
X138671751Y-58668369D01*
X137979292Y-58053097D01*
X137305149Y-57454275D01*
X136661677Y-56882886D01*
X136061230Y-56349908D01*
X135516162Y-55866322D01*
X135038829Y-55443109D01*
X134641584Y-55091249D01*
X134336783Y-54821722D01*
X134136780Y-54645508D01*
X134053930Y-54573587D01*
X134036832Y-54564270D01*
X133990085Y-54565080D01*
X133918183Y-54596872D01*
X133812981Y-54667256D01*
X133666337Y-54783844D01*
X133470107Y-54954246D01*
X133216146Y-55186074D01*
X132896312Y-55486939D01*
X132502460Y-55864452D01*
X132026448Y-56326225D01*
X131460130Y-56879867D01*
X130795365Y-57532991D01*
X130024007Y-58293207D01*
X129137914Y-59168127D01*
X128975658Y-59328464D01*
X128227310Y-60068772D01*
X127517783Y-60771978D01*
X126856486Y-61428681D01*
X126252826Y-62029483D01*
X125716210Y-62564983D01*
X125256046Y-63025782D01*
X124881742Y-63402480D01*
X124602704Y-63685678D01*
X124428340Y-63865976D01*
X124368058Y-63933975D01*
X124231245Y-63933975D01*
X129051617Y-59135630D01*
X133904888Y-54304536D01*
X139049624Y-58892995D01*
X144115460Y-63411085D01*
G37*
G36*
X136936086Y-69297435D02*
G01*
X137041900Y-69380192D01*
X137110751Y-69517897D01*
X137100056Y-69561890D01*
X136993317Y-69633749D01*
X136838383Y-69633674D01*
X136718083Y-69554040D01*
X136698522Y-69500940D01*
X136711681Y-69333578D01*
X136713469Y-69329002D01*
X136788844Y-69249883D01*
X136936086Y-69297435D01*
G37*
G36*
X140097173Y-65954252D02*
G01*
X140229584Y-66048017D01*
X140334405Y-66175164D01*
X140351616Y-66280155D01*
X140333049Y-66302105D01*
X140208147Y-66328427D01*
X140187425Y-66319969D01*
X140064390Y-66211363D01*
X139986092Y-66062732D01*
X139995709Y-65950822D01*
X139997191Y-65949407D01*
X140097173Y-65954252D01*
G37*
G36*
X130802276Y-58596608D02*
G01*
X130885844Y-58728750D01*
X130854269Y-58869934D01*
X130807406Y-58917441D01*
X130713451Y-58927095D01*
X130572835Y-58810576D01*
X130494589Y-58726895D01*
X130447689Y-58625506D01*
X130520375Y-58550167D01*
X130656680Y-58524374D01*
X130802276Y-58596608D01*
G37*
G36*
X137599521Y-68694269D02*
G01*
X137740507Y-68793647D01*
X137804266Y-68885529D01*
X137770626Y-68924115D01*
X137628167Y-68951365D01*
X137606036Y-68950132D01*
X137459990Y-68881867D01*
X137373385Y-68756048D01*
X137395013Y-68638207D01*
X137456744Y-68632982D01*
X137599521Y-68694269D01*
G37*
G36*
X130849388Y-68318358D02*
G01*
X130785473Y-68470900D01*
X130711477Y-68545441D01*
X130603546Y-68604608D01*
X130514195Y-68573805D01*
X130486355Y-68455660D01*
X130576668Y-68302611D01*
X130658971Y-68241148D01*
X130790778Y-68228521D01*
X130849388Y-68318358D01*
G37*
G36*
X131428631Y-68958044D02*
G01*
X131432594Y-69038055D01*
X131414879Y-69061482D01*
X131292328Y-69124744D01*
X131263178Y-69118065D01*
X131259215Y-69038055D01*
X131276931Y-69014627D01*
X131399482Y-68951365D01*
X131428631Y-68958044D01*
G37*
G36*
X138453989Y-68180111D02*
G01*
X138541853Y-68267730D01*
X138524321Y-68375793D01*
X138497330Y-68399329D01*
X138377642Y-68420752D01*
X138324403Y-68301195D01*
X138333581Y-68241452D01*
X138405976Y-68171161D01*
X138453989Y-68180111D01*
G37*
G36*
X138865260Y-67393475D02*
G01*
X138931229Y-67477645D01*
X138928710Y-67498366D01*
X138844539Y-67564335D01*
X138823819Y-67561816D01*
X138757850Y-67477645D01*
X138760369Y-67456924D01*
X138844539Y-67390956D01*
X138865260Y-67393475D01*
G37*
G36*
X139243323Y-67589749D02*
G01*
X139191297Y-67694369D01*
X139119138Y-67764638D01*
X138996689Y-67824403D01*
X138965893Y-67798988D01*
X139017918Y-67694369D01*
X139090078Y-67624099D01*
X139212526Y-67564335D01*
X139243323Y-67589749D01*
G37*
G36*
X129482832Y-67042202D02*
G01*
X129555768Y-67135222D01*
X129560372Y-67177306D01*
X129486417Y-67204574D01*
X129439609Y-67180957D01*
X129390752Y-67094251D01*
X129458243Y-67037697D01*
X129482832Y-67042202D01*
G37*
G36*
X129967555Y-59178590D02*
G01*
X129983493Y-59212852D01*
X129951683Y-59340475D01*
X129895029Y-59406080D01*
X129847283Y-59340824D01*
X129836658Y-59260204D01*
X129881856Y-59164354D01*
X129967555Y-59178590D01*
G37*
G36*
X138116360Y-67934221D02*
G01*
X138132298Y-67968483D01*
X138100489Y-68096106D01*
X138043835Y-68161712D01*
X137996088Y-68096456D01*
X137985463Y-68015836D01*
X138030661Y-67919986D01*
X138116360Y-67934221D01*
G37*
%TD*%
M02*
