%TF.GenerationSoftware,KiCad,Pcbnew,7.0.0-rc1-unknown-098b03e17a~164~ubuntu22.04.1*%
%TF.CreationDate,2023-01-20T19:13:21-03:00*%
%TF.ProjectId,Placa_base,506c6163-615f-4626-9173-652e6b696361,Rev. 2.0*%
%TF.SameCoordinates,Original*%
%TF.FileFunction,Soldermask,Top*%
%TF.FilePolarity,Negative*%
%FSLAX46Y46*%
G04 Gerber Fmt 4.6, Leading zero omitted, Abs format (unit mm)*
G04 Created by KiCad (PCBNEW 7.0.0-rc1-unknown-098b03e17a~164~ubuntu22.04.1) date 2023-01-20 19:13:21*
%MOMM*%
%LPD*%
G01*
G04 APERTURE LIST*
G04 Aperture macros list*
%AMRoundRect*
0 Rectangle with rounded corners*
0 $1 Rounding radius*
0 $2 $3 $4 $5 $6 $7 $8 $9 X,Y pos of 4 corners*
0 Add a 4 corners polygon primitive as box body*
4,1,4,$2,$3,$4,$5,$6,$7,$8,$9,$2,$3,0*
0 Add four circle primitives for the rounded corners*
1,1,$1+$1,$2,$3*
1,1,$1+$1,$4,$5*
1,1,$1+$1,$6,$7*
1,1,$1+$1,$8,$9*
0 Add four rect primitives between the rounded corners*
20,1,$1+$1,$2,$3,$4,$5,0*
20,1,$1+$1,$4,$5,$6,$7,0*
20,1,$1+$1,$6,$7,$8,$9,0*
20,1,$1+$1,$8,$9,$2,$3,0*%
G04 Aperture macros list end*
%ADD10C,2.200000*%
%ADD11RoundRect,0.100000X-1.000000X-1.000000X1.000000X-1.000000X1.000000X1.000000X-1.000000X1.000000X0*%
%ADD12C,2.800000*%
%ADD13RoundRect,0.100000X1.300000X1.300000X-1.300000X1.300000X-1.300000X-1.300000X1.300000X-1.300000X0*%
%ADD14C,2.700000*%
%ADD15C,3.400000*%
%ADD16C,2.000000*%
%ADD17RoundRect,0.100000X-0.900000X0.900000X-0.900000X-0.900000X0.900000X-0.900000X0.900000X0.900000X0*%
%ADD18O,3.000000X3.000000*%
%ADD19C,3.000000*%
%ADD20O,1.800000X1.800000*%
%ADD21RoundRect,0.100000X-0.800000X-0.800000X0.800000X-0.800000X0.800000X0.800000X-0.800000X0.800000X0*%
%ADD22RoundRect,0.100000X1.000000X1.000000X-1.000000X1.000000X-1.000000X-1.000000X1.000000X-1.000000X0*%
%ADD23RoundRect,0.975000X-0.875000X-0.875000X0.875000X-0.875000X0.875000X0.875000X-0.875000X0.875000X0*%
%ADD24RoundRect,0.850000X-0.750000X-1.000000X0.750000X-1.000000X0.750000X1.000000X-0.750000X1.000000X0*%
%ADD25RoundRect,0.100000X-1.750000X-1.750000X1.750000X-1.750000X1.750000X1.750000X-1.750000X1.750000X0*%
%ADD26C,1.910000*%
%ADD27O,2.200000X2.200000*%
%ADD28RoundRect,0.100000X1.000000X-1.000000X1.000000X1.000000X-1.000000X1.000000X-1.000000X-1.000000X0*%
%ADD29O,2.400000X2.400000*%
%ADD30RoundRect,0.100000X-1.100000X1.100000X-1.100000X-1.100000X1.100000X-1.100000X1.100000X1.100000X0*%
%ADD31C,1.800000*%
%ADD32RoundRect,0.100000X-1.000000X1.000000X-1.000000X-1.000000X1.000000X-1.000000X1.000000X1.000000X0*%
%ADD33RoundRect,0.100000X1.100000X1.100000X-1.100000X1.100000X-1.100000X-1.100000X1.100000X-1.100000X0*%
G04 APERTURE END LIST*
D10*
%TO.C,J7*%
X184000000Y-108080000D03*
X184000000Y-105540000D03*
D11*
X184000000Y-103000000D03*
%TD*%
D12*
%TO.C,J9*%
X137000000Y-47000000D03*
D13*
X142000000Y-47000000D03*
%TD*%
D14*
%TO.C,SW1*%
X120750000Y-131750000D03*
X127250000Y-131750000D03*
X120750000Y-136250000D03*
X127250000Y-136250000D03*
%TD*%
D15*
%TO.C,H3*%
X123000000Y-59000000D03*
%TD*%
%TO.C,H4*%
X204500000Y-45500000D03*
%TD*%
D16*
%TO.C,D3*%
X209500000Y-62040000D03*
D17*
X209500000Y-59500000D03*
%TD*%
D18*
%TO.C,R14*%
X153349999Y-49999999D03*
D19*
X178750000Y-50000000D03*
%TD*%
D10*
%TO.C,J6*%
X193500000Y-108080000D03*
X193500000Y-105540000D03*
D11*
X193500000Y-103000000D03*
%TD*%
D10*
%TO.C,Q2*%
X193540000Y-53250000D03*
X191000000Y-50710000D03*
D11*
X188460000Y-53250000D03*
%TD*%
D10*
%TO.C,C3*%
X170000000Y-133750000D03*
X170000000Y-126250000D03*
%TD*%
%TO.C,R6*%
X144500000Y-127330000D03*
X144500000Y-117170000D03*
%TD*%
%TO.C,R5*%
X208080000Y-122000000D03*
X197920000Y-122000000D03*
%TD*%
D20*
%TO.C,SW5*%
X155619999Y-43999999D03*
D21*
X148000000Y-44000000D03*
%TD*%
D10*
%TO.C,C5*%
X197250000Y-65000000D03*
X204750000Y-65000000D03*
%TD*%
%TO.C,R7*%
X197840000Y-85000000D03*
X208000000Y-85000000D03*
%TD*%
%TO.C,R3*%
X132750000Y-127330000D03*
X132750000Y-117170000D03*
%TD*%
%TO.C,J11*%
X211250000Y-44630000D03*
X211250000Y-47170000D03*
X211250000Y-49710000D03*
D22*
X211250000Y-52250000D03*
%TD*%
D10*
%TO.C,J3*%
X201000000Y-108080000D03*
X201000000Y-105540000D03*
D11*
X201000000Y-103000000D03*
%TD*%
D23*
%TO.C,J10*%
X128000000Y-52700000D03*
D24*
X125000000Y-48000000D03*
D25*
X131000000Y-48000000D03*
%TD*%
D10*
%TO.C,C1*%
X198250000Y-128000000D03*
X205750000Y-128000000D03*
%TD*%
D26*
%TO.C,F1*%
X179050000Y-44600000D03*
X173950000Y-43400000D03*
%TD*%
D10*
%TO.C,Q1*%
X195040000Y-46500000D03*
D27*
X192499999Y-46499999D03*
D11*
X189960000Y-46500000D03*
%TD*%
D10*
%TO.C,R15*%
X204620000Y-60000000D03*
X189380000Y-60000000D03*
%TD*%
%TO.C,R4*%
X139250000Y-127330000D03*
X139250000Y-117170000D03*
%TD*%
%TO.C,J2*%
X207780000Y-116000000D03*
X205240000Y-116000000D03*
X202700000Y-116000000D03*
X200160000Y-116000000D03*
X197620000Y-116000000D03*
X195080000Y-116000000D03*
X192540000Y-116000000D03*
X190000000Y-116000000D03*
X187460000Y-116000000D03*
X184920000Y-116000000D03*
X182380000Y-116000000D03*
X179840000Y-116000000D03*
X177300000Y-116000000D03*
X174760000Y-116000000D03*
X172220000Y-116000000D03*
D28*
X169680000Y-116000000D03*
%TD*%
D10*
%TO.C,R13*%
X179000000Y-103660000D03*
X179000000Y-93500000D03*
%TD*%
%TO.C,R9*%
X179000000Y-123840000D03*
X179000000Y-134000000D03*
%TD*%
%TO.C,R12*%
X189000000Y-103660000D03*
X189000000Y-93500000D03*
%TD*%
D15*
%TO.C,H1*%
X125000000Y-110000000D03*
%TD*%
D29*
%TO.C,D2*%
X183999999Y-59349999D03*
D30*
X184000000Y-46650000D03*
%TD*%
D10*
%TO.C,R8*%
X175000000Y-134000000D03*
X175000000Y-123840000D03*
%TD*%
%TO.C,J1*%
X207780000Y-76000000D03*
X205240000Y-76000000D03*
X202700000Y-76000000D03*
X200160000Y-76000000D03*
X197620000Y-76000000D03*
X195080000Y-76000000D03*
X192540000Y-76000000D03*
X190000000Y-76000000D03*
X187460000Y-76000000D03*
X184920000Y-76000000D03*
X182380000Y-76000000D03*
X179840000Y-76000000D03*
X177300000Y-76000000D03*
X174760000Y-76000000D03*
X172220000Y-76000000D03*
D28*
X169680000Y-76000000D03*
%TD*%
D10*
%TO.C,C6*%
X198500000Y-53000000D03*
D22*
X201000000Y-53000000D03*
%TD*%
D10*
%TO.C,J5*%
X164610000Y-126500000D03*
X162070000Y-126500000D03*
X159530000Y-126500000D03*
X156990000Y-126500000D03*
D28*
X154450000Y-126500000D03*
%TD*%
D10*
%TO.C,C4*%
X184000000Y-134000000D03*
X184000000Y-126500000D03*
%TD*%
D14*
%TO.C,SW3*%
X144750000Y-131750000D03*
X151250000Y-131750000D03*
X144750000Y-136250000D03*
X151250000Y-136250000D03*
%TD*%
D10*
%TO.C,R11*%
X189000000Y-123840000D03*
X189000000Y-134000000D03*
%TD*%
%TO.C,C2*%
X184250000Y-85000000D03*
X191750000Y-85000000D03*
%TD*%
D31*
%TO.C,RV1*%
X198445000Y-134925000D03*
X200985000Y-134925000D03*
X203525000Y-134925000D03*
%TD*%
D10*
%TO.C,R2*%
X120750000Y-116920000D03*
X120750000Y-127080000D03*
%TD*%
D14*
%TO.C,SW2*%
X132750000Y-131750000D03*
X139250000Y-131750000D03*
X132750000Y-136250000D03*
X139250000Y-136250000D03*
%TD*%
%TO.C,SW4*%
X156750000Y-131750000D03*
X163250000Y-131750000D03*
X156750000Y-136250000D03*
X163250000Y-136250000D03*
%TD*%
D10*
%TO.C,J4*%
X206000000Y-108080000D03*
X206000000Y-105540000D03*
D11*
X206000000Y-103000000D03*
%TD*%
D20*
%TO.C,R16*%
X215079999Y-55999999D03*
D31*
X204920000Y-56000000D03*
%TD*%
D10*
%TO.C,A1*%
X156480000Y-90240000D03*
X153940000Y-90240000D03*
X151400000Y-90240000D03*
X148860000Y-90240000D03*
X146320000Y-90240000D03*
X143780000Y-90240000D03*
X141240000Y-90240000D03*
X138700000Y-90240000D03*
X136160000Y-90240000D03*
X133620000Y-90240000D03*
X131080000Y-90240000D03*
X128540000Y-90240000D03*
X126000000Y-90240000D03*
X123460000Y-90240000D03*
X120920000Y-90240000D03*
X120920000Y-75000000D03*
X123460000Y-75000000D03*
X126000000Y-75000000D03*
X128540000Y-75000000D03*
X131080000Y-75000000D03*
D27*
X133619999Y-74999999D03*
D10*
X136160000Y-75000000D03*
X138700000Y-75000000D03*
X141240000Y-75000000D03*
X143780000Y-75000000D03*
X146320000Y-75000000D03*
X148860000Y-75000000D03*
X151400000Y-75000000D03*
X153940000Y-75000000D03*
D32*
X156480000Y-75000000D03*
%TD*%
D10*
%TO.C,R10*%
X194000000Y-134000000D03*
X194000000Y-123840000D03*
%TD*%
%TO.C,J8*%
X162080000Y-118000000D03*
X159540000Y-118000000D03*
X157000000Y-118000000D03*
D28*
X154460000Y-118000000D03*
%TD*%
D29*
%TO.C,D1*%
X159839999Y-43999999D03*
D33*
X170000000Y-44000000D03*
%TD*%
D10*
%TO.C,R1*%
X127250000Y-127330000D03*
X127250000Y-117170000D03*
%TD*%
D15*
%TO.C,H2*%
X210000000Y-134000000D03*
%TD*%
M02*
