%TF.GenerationSoftware,KiCad,Pcbnew,7.0.0-rc1-unknown-098b03e17a~164~ubuntu22.04.1*%
%TF.CreationDate,2023-01-20T19:14:08-03:00*%
%TF.ProjectId,Placa_base,506c6163-615f-4626-9173-652e6b696361,Rev. 2.0*%
%TF.SameCoordinates,PX6f94740PY8583b00*%
%TF.FileFunction,Drillmap*%
%TF.FilePolarity,Positive*%
%FSLAX45Y45*%
G04 Gerber Fmt 4.5, Leading zero omitted, Abs format (unit mm)*
G04 Created by KiCad (PCBNEW 7.0.0-rc1-unknown-098b03e17a~164~ubuntu22.04.1) date 2023-01-20 19:14:08*
%MOMM*%
%LPD*%
G01*
G04 APERTURE LIST*
%ADD10C,0.100000*%
%ADD11C,0.200000*%
%ADD12C,0.070000*%
%ADD13C,0.071000*%
%ADD14C,0.080000*%
%ADD15C,0.090000*%
%ADD16C,0.110000*%
%ADD17C,0.130000*%
%ADD18C,0.140000*%
G04 APERTURE END LIST*
D10*
X9700000Y0D02*
G75*
G03*
X10000000Y300000I0J300000D01*
G01*
X10000000Y9700000D02*
G75*
G03*
X9700000Y10000000I-300000J0D01*
G01*
X300000Y10000000D02*
G75*
G03*
X0Y9700000I0J-300000D01*
G01*
X0Y300000D02*
G75*
G03*
X300000Y0I300000J0D01*
G01*
X9700000Y0D02*
X300000Y0D01*
X10000000Y9700000D02*
X10000000Y300000D01*
X300000Y10000000D02*
X9700000Y10000000D01*
X0Y300000D02*
X0Y9700000D01*
D11*
D12*
X565000Y5785000D02*
X635000Y5715000D01*
X635000Y5785000D02*
X565000Y5715000D01*
X565000Y3985000D02*
X635000Y3915000D01*
X635000Y3985000D02*
X565000Y3915000D01*
X1265000Y1085000D02*
X1335000Y1015000D01*
X1335000Y1085000D02*
X1265000Y1015000D01*
X1265000Y185000D02*
X1335000Y115000D01*
X1335000Y185000D02*
X1265000Y115000D01*
X1665000Y8135000D02*
X1735000Y8065000D01*
X1735000Y8135000D02*
X1665000Y8065000D01*
X1865000Y2635000D02*
X1935000Y2565000D01*
X1935000Y2635000D02*
X1865000Y2565000D01*
X2765000Y5760000D02*
X2835000Y5690000D01*
X2835000Y5760000D02*
X2765000Y5690000D01*
X3065000Y9035000D02*
X3135000Y8965000D01*
X3135000Y9035000D02*
X3065000Y8965000D01*
X3065000Y8135000D02*
X3135000Y8065000D01*
X3135000Y8135000D02*
X3065000Y8065000D01*
X3665000Y185000D02*
X3735000Y115000D01*
X3735000Y185000D02*
X3665000Y115000D01*
X4865000Y8135000D02*
X4935000Y8065000D01*
X4935000Y8135000D02*
X4865000Y8065000D01*
X4865000Y5835000D02*
X4935000Y5765000D01*
X4935000Y5835000D02*
X4865000Y5765000D01*
X4865000Y5835000D02*
X4935000Y5765000D01*
X4935000Y5835000D02*
X4865000Y5765000D01*
X4865000Y4885000D02*
X4935000Y4815000D01*
X4935000Y4885000D02*
X4865000Y4815000D01*
X5865000Y5835000D02*
X5935000Y5765000D01*
X5935000Y5835000D02*
X5865000Y5765000D01*
X5865000Y4985000D02*
X5935000Y4915000D01*
X5935000Y4985000D02*
X5865000Y4915000D01*
X8165000Y9735000D02*
X8235000Y9665000D01*
X8235000Y9735000D02*
X8165000Y9665000D01*
X8865000Y835000D02*
X8935000Y765000D01*
X8935000Y835000D02*
X8865000Y765000D01*
X9465000Y4685000D02*
X9535000Y4615000D01*
X9535000Y4685000D02*
X9465000Y4615000D01*
X9465000Y1635000D02*
X9535000Y1565000D01*
X9535000Y1635000D02*
X9465000Y1565000D01*
X9765000Y9735000D02*
X9835000Y9665000D01*
X9835000Y9735000D02*
X9765000Y9665000D01*
X9765000Y7135000D02*
X9835000Y7065000D01*
X9835000Y7135000D02*
X9765000Y7065000D01*
X9765000Y5435000D02*
X9835000Y5365000D01*
X9835000Y5435000D02*
X9765000Y5365000D01*
D13*
X5730500Y9660000D02*
G75*
G03*
X5730500Y9660000I-35500J0D01*
G01*
X6240500Y9540000D02*
G75*
G03*
X6240500Y9540000I-35500J0D01*
G01*
D14*
X375000Y2348000D02*
X375000Y2268000D01*
X335000Y2308000D02*
X415000Y2308000D01*
X375000Y1332000D02*
X375000Y1252000D01*
X335000Y1292000D02*
X415000Y1292000D01*
X1025000Y2323000D02*
X1025000Y2243000D01*
X985000Y2283000D02*
X1065000Y2283000D01*
X1025000Y1307000D02*
X1025000Y1227000D01*
X985000Y1267000D02*
X1065000Y1267000D01*
X1575000Y2323000D02*
X1575000Y2243000D01*
X1535000Y2283000D02*
X1615000Y2283000D01*
X1575000Y1307000D02*
X1575000Y1227000D01*
X1535000Y1267000D02*
X1615000Y1267000D01*
X2225000Y2323000D02*
X2225000Y2243000D01*
X2185000Y2283000D02*
X2265000Y2283000D01*
X2225000Y1307000D02*
X2225000Y1227000D01*
X2185000Y1267000D02*
X2265000Y1267000D01*
X2750000Y2323000D02*
X2750000Y2243000D01*
X2710000Y2283000D02*
X2790000Y2283000D01*
X2750000Y1307000D02*
X2750000Y1227000D01*
X2710000Y1267000D02*
X2790000Y1267000D01*
X3100000Y9640000D02*
X3100000Y9560000D01*
X3060000Y9600000D02*
X3140000Y9600000D01*
X3862000Y9640000D02*
X3862000Y9560000D01*
X3822000Y9600000D02*
X3902000Y9600000D01*
X5800000Y1656000D02*
X5800000Y1576000D01*
X5760000Y1616000D02*
X5840000Y1616000D01*
X5800000Y640000D02*
X5800000Y560000D01*
X5760000Y600000D02*
X5840000Y600000D01*
X6200000Y4690000D02*
X6200000Y4610000D01*
X6160000Y4650000D02*
X6240000Y4650000D01*
X6200000Y3674000D02*
X6200000Y3594000D01*
X6160000Y3634000D02*
X6240000Y3634000D01*
X6200000Y1656000D02*
X6200000Y1576000D01*
X6160000Y1616000D02*
X6240000Y1616000D01*
X6200000Y640000D02*
X6200000Y560000D01*
X6160000Y600000D02*
X6240000Y600000D01*
X7146000Y8715000D02*
X7146000Y8635000D01*
X7106000Y8675000D02*
X7186000Y8675000D01*
X7200000Y4690000D02*
X7200000Y4610000D01*
X7160000Y4650000D02*
X7240000Y4650000D01*
X7200000Y3674000D02*
X7200000Y3594000D01*
X7160000Y3634000D02*
X7240000Y3634000D01*
X7200000Y1656000D02*
X7200000Y1576000D01*
X7160000Y1616000D02*
X7240000Y1616000D01*
X7200000Y640000D02*
X7200000Y560000D01*
X7160000Y600000D02*
X7240000Y600000D01*
X7238000Y8040000D02*
X7238000Y7960000D01*
X7198000Y8000000D02*
X7278000Y8000000D01*
X7400000Y8969000D02*
X7400000Y8889000D01*
X7360000Y8929000D02*
X7440000Y8929000D01*
X7654000Y8715000D02*
X7654000Y8635000D01*
X7614000Y8675000D02*
X7694000Y8675000D01*
X7700000Y1656000D02*
X7700000Y1576000D01*
X7660000Y1616000D02*
X7740000Y1616000D01*
X7700000Y640000D02*
X7700000Y560000D01*
X7660000Y600000D02*
X7740000Y600000D01*
X8084000Y5540000D02*
X8084000Y5460000D01*
X8044000Y5500000D02*
X8124000Y5500000D01*
X8092000Y1840000D02*
X8092000Y1760000D01*
X8052000Y1800000D02*
X8132000Y1800000D01*
X8144500Y547500D02*
X8144500Y467500D01*
X8104500Y507500D02*
X8184500Y507500D01*
X8150000Y8740000D02*
X8150000Y8660000D01*
X8110000Y8700000D02*
X8190000Y8700000D01*
X8398500Y547500D02*
X8398500Y467500D01*
X8358500Y507500D02*
X8438500Y507500D01*
X8400000Y8740000D02*
X8400000Y8660000D01*
X8360000Y8700000D02*
X8440000Y8700000D01*
X8652500Y547500D02*
X8652500Y467500D01*
X8612500Y507500D02*
X8692500Y507500D01*
X8762000Y8040000D02*
X8762000Y7960000D01*
X8722000Y8000000D02*
X8802000Y8000000D01*
X8792000Y8440000D02*
X8792000Y8360000D01*
X8752000Y8400000D02*
X8832000Y8400000D01*
X9100000Y5540000D02*
X9100000Y5460000D01*
X9060000Y5500000D02*
X9140000Y5500000D01*
X9108000Y1840000D02*
X9108000Y1760000D01*
X9068000Y1800000D02*
X9148000Y1800000D01*
X9808000Y8440000D02*
X9808000Y8360000D01*
X9768000Y8400000D02*
X9848000Y8400000D01*
D15*
X9281820Y8018180D02*
X9281820Y8081820D01*
X9218180Y8081820D01*
X9218180Y8018180D01*
X9281820Y8018180D01*
X9281820Y7764180D02*
X9281820Y7827820D01*
X9218180Y7827820D01*
X9218180Y7764180D01*
X9281820Y7764180D01*
D10*
X392000Y6450000D02*
X442000Y6500000D01*
X392000Y6550000D01*
X342000Y6500000D01*
X392000Y6450000D01*
X392000Y4926000D02*
X442000Y4976000D01*
X392000Y5026000D01*
X342000Y4976000D01*
X392000Y4926000D01*
X646000Y6450000D02*
X696000Y6500000D01*
X646000Y6550000D01*
X596000Y6500000D01*
X646000Y6450000D01*
X646000Y4926000D02*
X696000Y4976000D01*
X646000Y5026000D01*
X596000Y4976000D01*
X646000Y4926000D01*
X800000Y9150000D02*
X850000Y9200000D01*
X800000Y9250000D01*
X750000Y9200000D01*
X800000Y9150000D01*
D11*
X750000Y9290000D02*
X750000Y9110000D01*
X750000Y9110000D02*
G75*
G03*
X850000Y9110000I50000J0D01*
G01*
X850000Y9110000D02*
X850000Y9290000D01*
X850000Y9290000D02*
G75*
G03*
X750000Y9290000I-50000J0D01*
G01*
D10*
X900000Y6450000D02*
X950000Y6500000D01*
X900000Y6550000D01*
X850000Y6500000D01*
X900000Y6450000D01*
X900000Y4926000D02*
X950000Y4976000D01*
X900000Y5026000D01*
X850000Y4976000D01*
X900000Y4926000D01*
X1100000Y8680000D02*
X1150000Y8730000D01*
X1100000Y8780000D01*
X1050000Y8730000D01*
X1100000Y8680000D01*
D11*
X1010000Y8680000D02*
X1190000Y8680000D01*
X1190000Y8680000D02*
G75*
G03*
X1190000Y8780000I0J50000D01*
G01*
X1190000Y8780000D02*
X1010000Y8780000D01*
X1010000Y8780000D02*
G75*
G03*
X1010000Y8680000I0J-50000D01*
G01*
D10*
X1154000Y6450000D02*
X1204000Y6500000D01*
X1154000Y6550000D01*
X1104000Y6500000D01*
X1154000Y6450000D01*
X1154000Y4926000D02*
X1204000Y4976000D01*
X1154000Y5026000D01*
X1104000Y4976000D01*
X1154000Y4926000D01*
X1400000Y9150000D02*
X1450000Y9200000D01*
X1400000Y9250000D01*
X1350000Y9200000D01*
X1400000Y9150000D01*
D11*
X1350000Y9290000D02*
X1350000Y9110000D01*
X1350000Y9110000D02*
G75*
G03*
X1450000Y9110000I50000J0D01*
G01*
X1450000Y9110000D02*
X1450000Y9290000D01*
X1450000Y9290000D02*
G75*
G03*
X1350000Y9290000I-50000J0D01*
G01*
D10*
X1408000Y6450000D02*
X1458000Y6500000D01*
X1408000Y6550000D01*
X1358000Y6500000D01*
X1408000Y6450000D01*
X1408000Y4926000D02*
X1458000Y4976000D01*
X1408000Y5026000D01*
X1358000Y4976000D01*
X1408000Y4926000D01*
X1662000Y6450000D02*
X1712000Y6500000D01*
X1662000Y6550000D01*
X1612000Y6500000D01*
X1662000Y6450000D01*
X1662000Y4926000D02*
X1712000Y4976000D01*
X1662000Y5026000D01*
X1612000Y4976000D01*
X1662000Y4926000D01*
X1916000Y6450000D02*
X1966000Y6500000D01*
X1916000Y6550000D01*
X1866000Y6500000D01*
X1916000Y6450000D01*
X1916000Y4926000D02*
X1966000Y4976000D01*
X1916000Y5026000D01*
X1866000Y4976000D01*
X1916000Y4926000D01*
X2170000Y6450000D02*
X2220000Y6500000D01*
X2170000Y6550000D01*
X2120000Y6500000D01*
X2170000Y6450000D01*
X2170000Y4926000D02*
X2220000Y4976000D01*
X2170000Y5026000D01*
X2120000Y4976000D01*
X2170000Y4926000D01*
X2424000Y6450000D02*
X2474000Y6500000D01*
X2424000Y6550000D01*
X2374000Y6500000D01*
X2424000Y6450000D01*
X2424000Y4926000D02*
X2474000Y4976000D01*
X2424000Y5026000D01*
X2374000Y4976000D01*
X2424000Y4926000D01*
X2678000Y6450000D02*
X2728000Y6500000D01*
X2678000Y6550000D01*
X2628000Y6500000D01*
X2678000Y6450000D01*
X2678000Y4926000D02*
X2728000Y4976000D01*
X2678000Y5026000D01*
X2628000Y4976000D01*
X2678000Y4926000D01*
X2932000Y6450000D02*
X2982000Y6500000D01*
X2932000Y6550000D01*
X2882000Y6500000D01*
X2932000Y6450000D01*
X2932000Y4926000D02*
X2982000Y4976000D01*
X2932000Y5026000D01*
X2882000Y4976000D01*
X2932000Y4926000D01*
X3186000Y6450000D02*
X3236000Y6500000D01*
X3186000Y6550000D01*
X3136000Y6500000D01*
X3186000Y6450000D01*
X3186000Y4926000D02*
X3236000Y4976000D01*
X3186000Y5026000D01*
X3136000Y4976000D01*
X3186000Y4926000D01*
X3440000Y6450000D02*
X3490000Y6500000D01*
X3440000Y6550000D01*
X3390000Y6500000D01*
X3440000Y6450000D01*
X3440000Y4926000D02*
X3490000Y4976000D01*
X3440000Y5026000D01*
X3390000Y4976000D01*
X3440000Y4926000D01*
X3694000Y6450000D02*
X3744000Y6500000D01*
X3694000Y6550000D01*
X3644000Y6500000D01*
X3694000Y6450000D01*
X3694000Y4926000D02*
X3744000Y4976000D01*
X3694000Y5026000D01*
X3644000Y4976000D01*
X3694000Y4926000D01*
X3745000Y1300000D02*
X3795000Y1350000D01*
X3745000Y1400000D01*
X3695000Y1350000D01*
X3745000Y1300000D01*
X3746000Y2150000D02*
X3796000Y2200000D01*
X3746000Y2250000D01*
X3696000Y2200000D01*
X3746000Y2150000D01*
X3948000Y6450000D02*
X3998000Y6500000D01*
X3948000Y6550000D01*
X3898000Y6500000D01*
X3948000Y6450000D01*
X3948000Y4926000D02*
X3998000Y4976000D01*
X3948000Y5026000D01*
X3898000Y4976000D01*
X3948000Y4926000D01*
X3999000Y1300000D02*
X4049000Y1350000D01*
X3999000Y1400000D01*
X3949000Y1350000D01*
X3999000Y1300000D01*
X4000000Y2150000D02*
X4050000Y2200000D01*
X4000000Y2250000D01*
X3950000Y2200000D01*
X4000000Y2150000D01*
X4253000Y1300000D02*
X4303000Y1350000D01*
X4253000Y1400000D01*
X4203000Y1350000D01*
X4253000Y1300000D01*
X4254000Y2150000D02*
X4304000Y2200000D01*
X4254000Y2250000D01*
X4204000Y2200000D01*
X4254000Y2150000D01*
X4507000Y1300000D02*
X4557000Y1350000D01*
X4507000Y1400000D01*
X4457000Y1350000D01*
X4507000Y1300000D01*
X4508000Y2150000D02*
X4558000Y2200000D01*
X4508000Y2250000D01*
X4458000Y2200000D01*
X4508000Y2150000D01*
X4761000Y1300000D02*
X4811000Y1350000D01*
X4761000Y1400000D01*
X4711000Y1350000D01*
X4761000Y1300000D01*
X5268000Y6350000D02*
X5318000Y6400000D01*
X5268000Y6450000D01*
X5218000Y6400000D01*
X5268000Y6350000D01*
X5268000Y2350000D02*
X5318000Y2400000D01*
X5268000Y2450000D01*
X5218000Y2400000D01*
X5268000Y2350000D01*
X5300000Y1325000D02*
X5350000Y1375000D01*
X5300000Y1425000D01*
X5250000Y1375000D01*
X5300000Y1325000D01*
X5300000Y575000D02*
X5350000Y625000D01*
X5300000Y675000D01*
X5250000Y625000D01*
X5300000Y575000D01*
X5522000Y6350000D02*
X5572000Y6400000D01*
X5522000Y6450000D01*
X5472000Y6400000D01*
X5522000Y6350000D01*
X5522000Y2350000D02*
X5572000Y2400000D01*
X5522000Y2450000D01*
X5472000Y2400000D01*
X5522000Y2350000D01*
X5776000Y6350000D02*
X5826000Y6400000D01*
X5776000Y6450000D01*
X5726000Y6400000D01*
X5776000Y6350000D01*
X5776000Y2350000D02*
X5826000Y2400000D01*
X5776000Y2450000D01*
X5726000Y2400000D01*
X5776000Y2350000D01*
X6030000Y6350000D02*
X6080000Y6400000D01*
X6030000Y6450000D01*
X5980000Y6400000D01*
X6030000Y6350000D01*
X6030000Y2350000D02*
X6080000Y2400000D01*
X6030000Y2450000D01*
X5980000Y2400000D01*
X6030000Y2350000D01*
X6284000Y6350000D02*
X6334000Y6400000D01*
X6284000Y6450000D01*
X6234000Y6400000D01*
X6284000Y6350000D01*
X6284000Y2350000D02*
X6334000Y2400000D01*
X6284000Y2450000D01*
X6234000Y2400000D01*
X6284000Y2350000D01*
X6538000Y6350000D02*
X6588000Y6400000D01*
X6538000Y6450000D01*
X6488000Y6400000D01*
X6538000Y6350000D01*
X6538000Y2350000D02*
X6588000Y2400000D01*
X6538000Y2450000D01*
X6488000Y2400000D01*
X6538000Y2350000D01*
X6700000Y3650000D02*
X6750000Y3700000D01*
X6700000Y3750000D01*
X6650000Y3700000D01*
X6700000Y3650000D01*
X6700000Y3396000D02*
X6750000Y3446000D01*
X6700000Y3496000D01*
X6650000Y3446000D01*
X6700000Y3396000D01*
X6700000Y3142000D02*
X6750000Y3192000D01*
X6700000Y3242000D01*
X6650000Y3192000D01*
X6700000Y3142000D01*
X6700000Y1300000D02*
X6750000Y1350000D01*
X6700000Y1400000D01*
X6650000Y1350000D01*
X6700000Y1300000D01*
X6700000Y550000D02*
X6750000Y600000D01*
X6700000Y650000D01*
X6650000Y600000D01*
X6700000Y550000D01*
X6725000Y5450000D02*
X6775000Y5500000D01*
X6725000Y5550000D01*
X6675000Y5500000D01*
X6725000Y5450000D01*
X6792000Y6350000D02*
X6842000Y6400000D01*
X6792000Y6450000D01*
X6742000Y6400000D01*
X6792000Y6350000D01*
X6792000Y2350000D02*
X6842000Y2400000D01*
X6792000Y2450000D01*
X6742000Y2400000D01*
X6792000Y2350000D01*
X7046000Y6350000D02*
X7096000Y6400000D01*
X7046000Y6450000D01*
X6996000Y6400000D01*
X7046000Y6350000D01*
X7046000Y2350000D02*
X7096000Y2400000D01*
X7046000Y2450000D01*
X6996000Y2400000D01*
X7046000Y2350000D01*
X7296000Y9300000D02*
X7346000Y9350000D01*
X7296000Y9400000D01*
X7246000Y9350000D01*
X7296000Y9300000D01*
X7300000Y6350000D02*
X7350000Y6400000D01*
X7300000Y6450000D01*
X7250000Y6400000D01*
X7300000Y6350000D01*
X7300000Y2350000D02*
X7350000Y2400000D01*
X7300000Y2450000D01*
X7250000Y2400000D01*
X7300000Y2350000D01*
X7475000Y5450000D02*
X7525000Y5500000D01*
X7475000Y5550000D01*
X7425000Y5500000D01*
X7475000Y5450000D01*
X7550000Y9300000D02*
X7600000Y9350000D01*
X7550000Y9400000D01*
X7500000Y9350000D01*
X7550000Y9300000D01*
X7554000Y6350000D02*
X7604000Y6400000D01*
X7554000Y6450000D01*
X7504000Y6400000D01*
X7554000Y6350000D01*
X7554000Y2350000D02*
X7604000Y2400000D01*
X7554000Y2450000D01*
X7504000Y2400000D01*
X7554000Y2350000D01*
X7650000Y3650000D02*
X7700000Y3700000D01*
X7650000Y3750000D01*
X7600000Y3700000D01*
X7650000Y3650000D01*
X7650000Y3396000D02*
X7700000Y3446000D01*
X7650000Y3496000D01*
X7600000Y3446000D01*
X7650000Y3396000D01*
X7650000Y3142000D02*
X7700000Y3192000D01*
X7650000Y3242000D01*
X7600000Y3192000D01*
X7650000Y3142000D01*
X7804000Y9300000D02*
X7854000Y9350000D01*
X7804000Y9400000D01*
X7754000Y9350000D01*
X7804000Y9300000D01*
X7808000Y6350000D02*
X7858000Y6400000D01*
X7808000Y6450000D01*
X7758000Y6400000D01*
X7808000Y6350000D01*
X7808000Y2350000D02*
X7858000Y2400000D01*
X7808000Y2450000D01*
X7758000Y2400000D01*
X7808000Y2350000D01*
X8025000Y7450000D02*
X8075000Y7500000D01*
X8025000Y7550000D01*
X7975000Y7500000D01*
X8025000Y7450000D01*
X8062000Y6350000D02*
X8112000Y6400000D01*
X8062000Y6450000D01*
X8012000Y6400000D01*
X8062000Y6350000D01*
X8062000Y2350000D02*
X8112000Y2400000D01*
X8062000Y2450000D01*
X8012000Y2400000D01*
X8062000Y2350000D01*
X8125000Y1150000D02*
X8175000Y1200000D01*
X8125000Y1250000D01*
X8075000Y1200000D01*
X8125000Y1150000D01*
X8316000Y6350000D02*
X8366000Y6400000D01*
X8316000Y6450000D01*
X8266000Y6400000D01*
X8316000Y6350000D01*
X8316000Y2350000D02*
X8366000Y2400000D01*
X8316000Y2450000D01*
X8266000Y2400000D01*
X8316000Y2350000D01*
X8400000Y3650000D02*
X8450000Y3700000D01*
X8400000Y3750000D01*
X8350000Y3700000D01*
X8400000Y3650000D01*
X8400000Y3396000D02*
X8450000Y3446000D01*
X8400000Y3496000D01*
X8350000Y3446000D01*
X8400000Y3396000D01*
X8400000Y3142000D02*
X8450000Y3192000D01*
X8400000Y3242000D01*
X8350000Y3192000D01*
X8400000Y3142000D01*
X8570000Y6350000D02*
X8620000Y6400000D01*
X8570000Y6450000D01*
X8520000Y6400000D01*
X8570000Y6350000D01*
X8570000Y2350000D02*
X8620000Y2400000D01*
X8570000Y2450000D01*
X8520000Y2400000D01*
X8570000Y2350000D01*
X8775000Y7450000D02*
X8825000Y7500000D01*
X8775000Y7550000D01*
X8725000Y7500000D01*
X8775000Y7450000D01*
X8824000Y6350000D02*
X8874000Y6400000D01*
X8824000Y6450000D01*
X8774000Y6400000D01*
X8824000Y6350000D01*
X8824000Y2350000D02*
X8874000Y2400000D01*
X8824000Y2450000D01*
X8774000Y2400000D01*
X8824000Y2350000D01*
X8875000Y1150000D02*
X8925000Y1200000D01*
X8875000Y1250000D01*
X8825000Y1200000D01*
X8875000Y1150000D01*
X8900000Y3650000D02*
X8950000Y3700000D01*
X8900000Y3750000D01*
X8850000Y3700000D01*
X8900000Y3650000D01*
X8900000Y3396000D02*
X8950000Y3446000D01*
X8900000Y3496000D01*
X8850000Y3446000D01*
X8900000Y3396000D01*
X8900000Y3142000D02*
X8950000Y3192000D01*
X8900000Y3242000D01*
X8850000Y3192000D01*
X8900000Y3142000D01*
X9078000Y6350000D02*
X9128000Y6400000D01*
X9078000Y6450000D01*
X9028000Y6400000D01*
X9078000Y6350000D01*
X9078000Y2350000D02*
X9128000Y2400000D01*
X9078000Y2450000D01*
X9028000Y2400000D01*
X9078000Y2350000D01*
X9425000Y9487000D02*
X9475000Y9537000D01*
X9425000Y9587000D01*
X9375000Y9537000D01*
X9425000Y9487000D01*
X9425000Y9233000D02*
X9475000Y9283000D01*
X9425000Y9333000D01*
X9375000Y9283000D01*
X9425000Y9233000D01*
X9425000Y8979000D02*
X9475000Y9029000D01*
X9425000Y9079000D01*
X9375000Y9029000D01*
X9425000Y8979000D01*
X9425000Y8725000D02*
X9475000Y8775000D01*
X9425000Y8825000D01*
X9375000Y8775000D01*
X9425000Y8725000D01*
D16*
X320000Y880000D02*
X430000Y770000D01*
X430000Y880000D02*
X320000Y770000D01*
X430000Y825000D02*
G75*
G03*
X430000Y825000I-55000J0D01*
G01*
X320000Y430000D02*
X430000Y320000D01*
X430000Y430000D02*
X320000Y320000D01*
X430000Y375000D02*
G75*
G03*
X430000Y375000I-55000J0D01*
G01*
X970000Y880000D02*
X1080000Y770000D01*
X1080000Y880000D02*
X970000Y770000D01*
X1080000Y825000D02*
G75*
G03*
X1080000Y825000I-55000J0D01*
G01*
X970000Y430000D02*
X1080000Y320000D01*
X1080000Y430000D02*
X970000Y320000D01*
X1080000Y375000D02*
G75*
G03*
X1080000Y375000I-55000J0D01*
G01*
X1520000Y880000D02*
X1630000Y770000D01*
X1630000Y880000D02*
X1520000Y770000D01*
X1630000Y825000D02*
G75*
G03*
X1630000Y825000I-55000J0D01*
G01*
X1520000Y430000D02*
X1630000Y320000D01*
X1630000Y430000D02*
X1520000Y320000D01*
X1630000Y375000D02*
G75*
G03*
X1630000Y375000I-55000J0D01*
G01*
X2170000Y880000D02*
X2280000Y770000D01*
X2280000Y880000D02*
X2170000Y770000D01*
X2280000Y825000D02*
G75*
G03*
X2280000Y825000I-55000J0D01*
G01*
X2170000Y430000D02*
X2280000Y320000D01*
X2280000Y430000D02*
X2170000Y320000D01*
X2280000Y375000D02*
G75*
G03*
X2280000Y375000I-55000J0D01*
G01*
X2720000Y880000D02*
X2830000Y770000D01*
X2830000Y880000D02*
X2720000Y770000D01*
X2830000Y825000D02*
G75*
G03*
X2830000Y825000I-55000J0D01*
G01*
X2720000Y430000D02*
X2830000Y320000D01*
X2830000Y430000D02*
X2720000Y320000D01*
X2830000Y375000D02*
G75*
G03*
X2830000Y375000I-55000J0D01*
G01*
X3370000Y880000D02*
X3480000Y770000D01*
X3480000Y880000D02*
X3370000Y770000D01*
X3480000Y825000D02*
G75*
G03*
X3480000Y825000I-55000J0D01*
G01*
X3370000Y430000D02*
X3480000Y320000D01*
X3480000Y430000D02*
X3370000Y320000D01*
X3480000Y375000D02*
G75*
G03*
X3480000Y375000I-55000J0D01*
G01*
X3920000Y880000D02*
X4030000Y770000D01*
X4030000Y880000D02*
X3920000Y770000D01*
X4030000Y825000D02*
G75*
G03*
X4030000Y825000I-55000J0D01*
G01*
X3920000Y430000D02*
X4030000Y320000D01*
X4030000Y430000D02*
X3920000Y320000D01*
X4030000Y375000D02*
G75*
G03*
X4030000Y375000I-55000J0D01*
G01*
X4229000Y9655000D02*
X4339000Y9545000D01*
X4339000Y9655000D02*
X4229000Y9545000D01*
X4339000Y9600000D02*
G75*
G03*
X4339000Y9600000I-55000J0D01*
G01*
X4570000Y880000D02*
X4680000Y770000D01*
X4680000Y880000D02*
X4570000Y770000D01*
X4680000Y825000D02*
G75*
G03*
X4680000Y825000I-55000J0D01*
G01*
X4570000Y430000D02*
X4680000Y320000D01*
X4680000Y430000D02*
X4570000Y320000D01*
X4680000Y375000D02*
G75*
G03*
X4680000Y375000I-55000J0D01*
G01*
X5245000Y9655000D02*
X5355000Y9545000D01*
X5355000Y9655000D02*
X5245000Y9545000D01*
X5355000Y9600000D02*
G75*
G03*
X5355000Y9600000I-55000J0D01*
G01*
X6645000Y9390000D02*
X6755000Y9280000D01*
X6755000Y9390000D02*
X6645000Y9280000D01*
X6755000Y9335000D02*
G75*
G03*
X6755000Y9335000I-55000J0D01*
G01*
X6645000Y8120000D02*
X6755000Y8010000D01*
X6755000Y8120000D02*
X6645000Y8010000D01*
X6755000Y8065000D02*
G75*
G03*
X6755000Y8065000I-55000J0D01*
G01*
D17*
X1935000Y9365000D02*
X2065000Y9235000D01*
X2065000Y9365000D02*
X1935000Y9235000D01*
X2000000Y9365000D02*
X2000000Y9235000D01*
X1935000Y9300000D02*
X2065000Y9300000D01*
X2435000Y9365000D02*
X2565000Y9235000D01*
X2565000Y9365000D02*
X2435000Y9235000D01*
X2500000Y9365000D02*
X2500000Y9235000D01*
X2435000Y9300000D02*
X2565000Y9300000D01*
D18*
X3565000Y9070000D02*
X3705000Y8930000D01*
X3705000Y9070000D02*
X3565000Y8930000D01*
X3684498Y8950502D02*
X3684498Y9049498D01*
X3585502Y9049498D01*
X3585502Y8950502D01*
X3684498Y8950502D01*
X6105000Y9070000D02*
X6245000Y8930000D01*
X6245000Y9070000D02*
X6105000Y8930000D01*
X6224498Y8950502D02*
X6224498Y9049498D01*
X6125502Y9049498D01*
X6125502Y8950502D01*
X6224498Y8950502D01*
D11*
X242619Y-298476D02*
X242619Y-98476D01*
X242619Y-98476D02*
X290238Y-98476D01*
X290238Y-98476D02*
X318810Y-108000D01*
X318810Y-108000D02*
X337857Y-127048D01*
X337857Y-127048D02*
X347381Y-146095D01*
X347381Y-146095D02*
X356905Y-184190D01*
X356905Y-184190D02*
X356905Y-212762D01*
X356905Y-212762D02*
X347381Y-250857D01*
X347381Y-250857D02*
X337857Y-269905D01*
X337857Y-269905D02*
X318810Y-288952D01*
X318810Y-288952D02*
X290238Y-298476D01*
X290238Y-298476D02*
X242619Y-298476D01*
X442619Y-298476D02*
X442619Y-165143D01*
X442619Y-203238D02*
X452143Y-184190D01*
X452143Y-184190D02*
X461667Y-174667D01*
X461667Y-174667D02*
X480714Y-165143D01*
X480714Y-165143D02*
X499762Y-165143D01*
X566429Y-298476D02*
X566429Y-165143D01*
X566429Y-98476D02*
X556905Y-108000D01*
X556905Y-108000D02*
X566429Y-117524D01*
X566429Y-117524D02*
X575952Y-108000D01*
X575952Y-108000D02*
X566429Y-98476D01*
X566429Y-98476D02*
X566429Y-117524D01*
X690238Y-298476D02*
X671190Y-288952D01*
X671190Y-288952D02*
X661667Y-269905D01*
X661667Y-269905D02*
X661667Y-98476D01*
X795000Y-298476D02*
X775952Y-288952D01*
X775952Y-288952D02*
X766428Y-269905D01*
X766428Y-269905D02*
X766428Y-98476D01*
X991190Y-298476D02*
X991190Y-98476D01*
X991190Y-98476D02*
X1057857Y-241333D01*
X1057857Y-241333D02*
X1124524Y-98476D01*
X1124524Y-98476D02*
X1124524Y-298476D01*
X1305476Y-298476D02*
X1305476Y-193714D01*
X1305476Y-193714D02*
X1295952Y-174667D01*
X1295952Y-174667D02*
X1276905Y-165143D01*
X1276905Y-165143D02*
X1238809Y-165143D01*
X1238809Y-165143D02*
X1219762Y-174667D01*
X1305476Y-288952D02*
X1286429Y-298476D01*
X1286429Y-298476D02*
X1238809Y-298476D01*
X1238809Y-298476D02*
X1219762Y-288952D01*
X1219762Y-288952D02*
X1210238Y-269905D01*
X1210238Y-269905D02*
X1210238Y-250857D01*
X1210238Y-250857D02*
X1219762Y-231809D01*
X1219762Y-231809D02*
X1238809Y-222286D01*
X1238809Y-222286D02*
X1286429Y-222286D01*
X1286429Y-222286D02*
X1305476Y-212762D01*
X1400714Y-165143D02*
X1400714Y-365143D01*
X1400714Y-174667D02*
X1419762Y-165143D01*
X1419762Y-165143D02*
X1457857Y-165143D01*
X1457857Y-165143D02*
X1476905Y-174667D01*
X1476905Y-174667D02*
X1486428Y-184190D01*
X1486428Y-184190D02*
X1495952Y-203238D01*
X1495952Y-203238D02*
X1495952Y-260381D01*
X1495952Y-260381D02*
X1486428Y-279429D01*
X1486428Y-279429D02*
X1476905Y-288952D01*
X1476905Y-288952D02*
X1457857Y-298476D01*
X1457857Y-298476D02*
X1419762Y-298476D01*
X1419762Y-298476D02*
X1400714Y-288952D01*
X1581667Y-279429D02*
X1591190Y-288952D01*
X1591190Y-288952D02*
X1581667Y-298476D01*
X1581667Y-298476D02*
X1572143Y-288952D01*
X1572143Y-288952D02*
X1581667Y-279429D01*
X1581667Y-279429D02*
X1581667Y-298476D01*
X1581667Y-174667D02*
X1591190Y-184190D01*
X1591190Y-184190D02*
X1581667Y-193714D01*
X1581667Y-193714D02*
X1572143Y-184190D01*
X1572143Y-184190D02*
X1581667Y-174667D01*
X1581667Y-174667D02*
X1581667Y-193714D01*
D12*
X-75000Y-610000D02*
X-5000Y-680000D01*
X-5000Y-610000D02*
X-75000Y-680000D01*
D11*
X280714Y-518476D02*
X299762Y-518476D01*
X299762Y-518476D02*
X318810Y-528000D01*
X318810Y-528000D02*
X328333Y-537524D01*
X328333Y-537524D02*
X337857Y-556571D01*
X337857Y-556571D02*
X347381Y-594667D01*
X347381Y-594667D02*
X347381Y-642286D01*
X347381Y-642286D02*
X337857Y-680381D01*
X337857Y-680381D02*
X328333Y-699428D01*
X328333Y-699428D02*
X318810Y-708952D01*
X318810Y-708952D02*
X299762Y-718476D01*
X299762Y-718476D02*
X280714Y-718476D01*
X280714Y-718476D02*
X261667Y-708952D01*
X261667Y-708952D02*
X252143Y-699428D01*
X252143Y-699428D02*
X242619Y-680381D01*
X242619Y-680381D02*
X233095Y-642286D01*
X233095Y-642286D02*
X233095Y-594667D01*
X233095Y-594667D02*
X242619Y-556571D01*
X242619Y-556571D02*
X252143Y-537524D01*
X252143Y-537524D02*
X261667Y-528000D01*
X261667Y-528000D02*
X280714Y-518476D01*
X433095Y-699428D02*
X442619Y-708952D01*
X442619Y-708952D02*
X433095Y-718476D01*
X433095Y-718476D02*
X423571Y-708952D01*
X423571Y-708952D02*
X433095Y-699428D01*
X433095Y-699428D02*
X433095Y-718476D01*
X509286Y-518476D02*
X642619Y-518476D01*
X642619Y-518476D02*
X556905Y-718476D01*
X756905Y-518476D02*
X775952Y-518476D01*
X775952Y-518476D02*
X795000Y-528000D01*
X795000Y-528000D02*
X804524Y-537524D01*
X804524Y-537524D02*
X814048Y-556571D01*
X814048Y-556571D02*
X823571Y-594667D01*
X823571Y-594667D02*
X823571Y-642286D01*
X823571Y-642286D02*
X814048Y-680381D01*
X814048Y-680381D02*
X804524Y-699428D01*
X804524Y-699428D02*
X795000Y-708952D01*
X795000Y-708952D02*
X775952Y-718476D01*
X775952Y-718476D02*
X756905Y-718476D01*
X756905Y-718476D02*
X737857Y-708952D01*
X737857Y-708952D02*
X728333Y-699428D01*
X728333Y-699428D02*
X718809Y-680381D01*
X718809Y-680381D02*
X709286Y-642286D01*
X709286Y-642286D02*
X709286Y-594667D01*
X709286Y-594667D02*
X718809Y-556571D01*
X718809Y-556571D02*
X728333Y-537524D01*
X728333Y-537524D02*
X737857Y-528000D01*
X737857Y-528000D02*
X756905Y-518476D01*
X947381Y-518476D02*
X966429Y-518476D01*
X966429Y-518476D02*
X985476Y-528000D01*
X985476Y-528000D02*
X995000Y-537524D01*
X995000Y-537524D02*
X1004524Y-556571D01*
X1004524Y-556571D02*
X1014048Y-594667D01*
X1014048Y-594667D02*
X1014048Y-642286D01*
X1014048Y-642286D02*
X1004524Y-680381D01*
X1004524Y-680381D02*
X995000Y-699428D01*
X995000Y-699428D02*
X985476Y-708952D01*
X985476Y-708952D02*
X966429Y-718476D01*
X966429Y-718476D02*
X947381Y-718476D01*
X947381Y-718476D02*
X928333Y-708952D01*
X928333Y-708952D02*
X918809Y-699428D01*
X918809Y-699428D02*
X909286Y-680381D01*
X909286Y-680381D02*
X899762Y-642286D01*
X899762Y-642286D02*
X899762Y-594667D01*
X899762Y-594667D02*
X909286Y-556571D01*
X909286Y-556571D02*
X918809Y-537524D01*
X918809Y-537524D02*
X928333Y-528000D01*
X928333Y-528000D02*
X947381Y-518476D01*
X1099762Y-718476D02*
X1099762Y-585143D01*
X1099762Y-604190D02*
X1109286Y-594667D01*
X1109286Y-594667D02*
X1128333Y-585143D01*
X1128333Y-585143D02*
X1156905Y-585143D01*
X1156905Y-585143D02*
X1175952Y-594667D01*
X1175952Y-594667D02*
X1185476Y-613714D01*
X1185476Y-613714D02*
X1185476Y-718476D01*
X1185476Y-613714D02*
X1195000Y-594667D01*
X1195000Y-594667D02*
X1214048Y-585143D01*
X1214048Y-585143D02*
X1242619Y-585143D01*
X1242619Y-585143D02*
X1261667Y-594667D01*
X1261667Y-594667D02*
X1271191Y-613714D01*
X1271191Y-613714D02*
X1271191Y-718476D01*
X1366429Y-718476D02*
X1366429Y-585143D01*
X1366429Y-604190D02*
X1375952Y-594667D01*
X1375952Y-594667D02*
X1395000Y-585143D01*
X1395000Y-585143D02*
X1423571Y-585143D01*
X1423571Y-585143D02*
X1442619Y-594667D01*
X1442619Y-594667D02*
X1452143Y-613714D01*
X1452143Y-613714D02*
X1452143Y-718476D01*
X1452143Y-613714D02*
X1461667Y-594667D01*
X1461667Y-594667D02*
X1480714Y-585143D01*
X1480714Y-585143D02*
X1509286Y-585143D01*
X1509286Y-585143D02*
X1528333Y-594667D01*
X1528333Y-594667D02*
X1537857Y-613714D01*
X1537857Y-613714D02*
X1537857Y-718476D01*
X1895952Y-508952D02*
X1724524Y-766095D01*
X2120714Y-518476D02*
X2139762Y-518476D01*
X2139762Y-518476D02*
X2158810Y-528000D01*
X2158810Y-528000D02*
X2168333Y-537524D01*
X2168333Y-537524D02*
X2177857Y-556571D01*
X2177857Y-556571D02*
X2187381Y-594667D01*
X2187381Y-594667D02*
X2187381Y-642286D01*
X2187381Y-642286D02*
X2177857Y-680381D01*
X2177857Y-680381D02*
X2168333Y-699428D01*
X2168333Y-699428D02*
X2158810Y-708952D01*
X2158810Y-708952D02*
X2139762Y-718476D01*
X2139762Y-718476D02*
X2120714Y-718476D01*
X2120714Y-718476D02*
X2101667Y-708952D01*
X2101667Y-708952D02*
X2092143Y-699428D01*
X2092143Y-699428D02*
X2082619Y-680381D01*
X2082619Y-680381D02*
X2073095Y-642286D01*
X2073095Y-642286D02*
X2073095Y-594667D01*
X2073095Y-594667D02*
X2082619Y-556571D01*
X2082619Y-556571D02*
X2092143Y-537524D01*
X2092143Y-537524D02*
X2101667Y-528000D01*
X2101667Y-528000D02*
X2120714Y-518476D01*
X2273095Y-699428D02*
X2282619Y-708952D01*
X2282619Y-708952D02*
X2273095Y-718476D01*
X2273095Y-718476D02*
X2263572Y-708952D01*
X2263572Y-708952D02*
X2273095Y-699428D01*
X2273095Y-699428D02*
X2273095Y-718476D01*
X2406429Y-518476D02*
X2425476Y-518476D01*
X2425476Y-518476D02*
X2444524Y-528000D01*
X2444524Y-528000D02*
X2454048Y-537524D01*
X2454048Y-537524D02*
X2463572Y-556571D01*
X2463572Y-556571D02*
X2473095Y-594667D01*
X2473095Y-594667D02*
X2473095Y-642286D01*
X2473095Y-642286D02*
X2463572Y-680381D01*
X2463572Y-680381D02*
X2454048Y-699428D01*
X2454048Y-699428D02*
X2444524Y-708952D01*
X2444524Y-708952D02*
X2425476Y-718476D01*
X2425476Y-718476D02*
X2406429Y-718476D01*
X2406429Y-718476D02*
X2387381Y-708952D01*
X2387381Y-708952D02*
X2377857Y-699428D01*
X2377857Y-699428D02*
X2368333Y-680381D01*
X2368333Y-680381D02*
X2358810Y-642286D01*
X2358810Y-642286D02*
X2358810Y-594667D01*
X2358810Y-594667D02*
X2368333Y-556571D01*
X2368333Y-556571D02*
X2377857Y-537524D01*
X2377857Y-537524D02*
X2387381Y-528000D01*
X2387381Y-528000D02*
X2406429Y-518476D01*
X2549286Y-537524D02*
X2558810Y-528000D01*
X2558810Y-528000D02*
X2577857Y-518476D01*
X2577857Y-518476D02*
X2625476Y-518476D01*
X2625476Y-518476D02*
X2644524Y-528000D01*
X2644524Y-528000D02*
X2654048Y-537524D01*
X2654048Y-537524D02*
X2663572Y-556571D01*
X2663572Y-556571D02*
X2663572Y-575619D01*
X2663572Y-575619D02*
X2654048Y-604190D01*
X2654048Y-604190D02*
X2539762Y-718476D01*
X2539762Y-718476D02*
X2663572Y-718476D01*
X2730238Y-518476D02*
X2863571Y-518476D01*
X2863571Y-518476D02*
X2777857Y-718476D01*
X3025476Y-518476D02*
X2987381Y-518476D01*
X2987381Y-518476D02*
X2968333Y-528000D01*
X2968333Y-528000D02*
X2958810Y-537524D01*
X2958810Y-537524D02*
X2939762Y-566095D01*
X2939762Y-566095D02*
X2930238Y-604190D01*
X2930238Y-604190D02*
X2930238Y-680381D01*
X2930238Y-680381D02*
X2939762Y-699428D01*
X2939762Y-699428D02*
X2949286Y-708952D01*
X2949286Y-708952D02*
X2968333Y-718476D01*
X2968333Y-718476D02*
X3006429Y-718476D01*
X3006429Y-718476D02*
X3025476Y-708952D01*
X3025476Y-708952D02*
X3035000Y-699428D01*
X3035000Y-699428D02*
X3044524Y-680381D01*
X3044524Y-680381D02*
X3044524Y-632762D01*
X3044524Y-632762D02*
X3035000Y-613714D01*
X3035000Y-613714D02*
X3025476Y-604190D01*
X3025476Y-604190D02*
X3006429Y-594667D01*
X3006429Y-594667D02*
X2968333Y-594667D01*
X2968333Y-594667D02*
X2949286Y-604190D01*
X2949286Y-604190D02*
X2939762Y-613714D01*
X2939762Y-613714D02*
X2930238Y-632762D01*
X3120714Y-518476D02*
X3120714Y-556571D01*
X3196905Y-518476D02*
X3196905Y-556571D01*
X3459762Y-794667D02*
X3450238Y-785143D01*
X3450238Y-785143D02*
X3431191Y-756571D01*
X3431191Y-756571D02*
X3421667Y-737524D01*
X3421667Y-737524D02*
X3412143Y-708952D01*
X3412143Y-708952D02*
X3402619Y-661333D01*
X3402619Y-661333D02*
X3402619Y-623238D01*
X3402619Y-623238D02*
X3412143Y-575619D01*
X3412143Y-575619D02*
X3421667Y-547048D01*
X3421667Y-547048D02*
X3431191Y-528000D01*
X3431191Y-528000D02*
X3450238Y-499428D01*
X3450238Y-499428D02*
X3459762Y-489905D01*
X3526429Y-537524D02*
X3535952Y-528000D01*
X3535952Y-528000D02*
X3555000Y-518476D01*
X3555000Y-518476D02*
X3602619Y-518476D01*
X3602619Y-518476D02*
X3621667Y-528000D01*
X3621667Y-528000D02*
X3631191Y-537524D01*
X3631191Y-537524D02*
X3640714Y-556571D01*
X3640714Y-556571D02*
X3640714Y-575619D01*
X3640714Y-575619D02*
X3631191Y-604190D01*
X3631191Y-604190D02*
X3516905Y-718476D01*
X3516905Y-718476D02*
X3640714Y-718476D01*
X3707381Y-518476D02*
X3831191Y-518476D01*
X3831191Y-518476D02*
X3764524Y-594667D01*
X3764524Y-594667D02*
X3793095Y-594667D01*
X3793095Y-594667D02*
X3812143Y-604190D01*
X3812143Y-604190D02*
X3821667Y-613714D01*
X3821667Y-613714D02*
X3831191Y-632762D01*
X3831191Y-632762D02*
X3831191Y-680381D01*
X3831191Y-680381D02*
X3821667Y-699428D01*
X3821667Y-699428D02*
X3812143Y-708952D01*
X3812143Y-708952D02*
X3793095Y-718476D01*
X3793095Y-718476D02*
X3735952Y-718476D01*
X3735952Y-718476D02*
X3716905Y-708952D01*
X3716905Y-708952D02*
X3707381Y-699428D01*
X4036905Y-718476D02*
X4036905Y-518476D01*
X4122619Y-718476D02*
X4122619Y-613714D01*
X4122619Y-613714D02*
X4113095Y-594667D01*
X4113095Y-594667D02*
X4094048Y-585143D01*
X4094048Y-585143D02*
X4065476Y-585143D01*
X4065476Y-585143D02*
X4046429Y-594667D01*
X4046429Y-594667D02*
X4036905Y-604190D01*
X4246429Y-718476D02*
X4227381Y-708952D01*
X4227381Y-708952D02*
X4217857Y-699428D01*
X4217857Y-699428D02*
X4208334Y-680381D01*
X4208334Y-680381D02*
X4208334Y-623238D01*
X4208334Y-623238D02*
X4217857Y-604190D01*
X4217857Y-604190D02*
X4227381Y-594667D01*
X4227381Y-594667D02*
X4246429Y-585143D01*
X4246429Y-585143D02*
X4275000Y-585143D01*
X4275000Y-585143D02*
X4294048Y-594667D01*
X4294048Y-594667D02*
X4303572Y-604190D01*
X4303572Y-604190D02*
X4313095Y-623238D01*
X4313095Y-623238D02*
X4313095Y-680381D01*
X4313095Y-680381D02*
X4303572Y-699428D01*
X4303572Y-699428D02*
X4294048Y-708952D01*
X4294048Y-708952D02*
X4275000Y-718476D01*
X4275000Y-718476D02*
X4246429Y-718476D01*
X4427381Y-718476D02*
X4408334Y-708952D01*
X4408334Y-708952D02*
X4398810Y-689905D01*
X4398810Y-689905D02*
X4398810Y-518476D01*
X4579762Y-708952D02*
X4560715Y-718476D01*
X4560715Y-718476D02*
X4522619Y-718476D01*
X4522619Y-718476D02*
X4503572Y-708952D01*
X4503572Y-708952D02*
X4494048Y-689905D01*
X4494048Y-689905D02*
X4494048Y-613714D01*
X4494048Y-613714D02*
X4503572Y-594667D01*
X4503572Y-594667D02*
X4522619Y-585143D01*
X4522619Y-585143D02*
X4560715Y-585143D01*
X4560715Y-585143D02*
X4579762Y-594667D01*
X4579762Y-594667D02*
X4589286Y-613714D01*
X4589286Y-613714D02*
X4589286Y-632762D01*
X4589286Y-632762D02*
X4494048Y-651810D01*
X4665476Y-708952D02*
X4684524Y-718476D01*
X4684524Y-718476D02*
X4722619Y-718476D01*
X4722619Y-718476D02*
X4741667Y-708952D01*
X4741667Y-708952D02*
X4751191Y-689905D01*
X4751191Y-689905D02*
X4751191Y-680381D01*
X4751191Y-680381D02*
X4741667Y-661333D01*
X4741667Y-661333D02*
X4722619Y-651810D01*
X4722619Y-651810D02*
X4694048Y-651810D01*
X4694048Y-651810D02*
X4675000Y-642286D01*
X4675000Y-642286D02*
X4665476Y-623238D01*
X4665476Y-623238D02*
X4665476Y-613714D01*
X4665476Y-613714D02*
X4675000Y-594667D01*
X4675000Y-594667D02*
X4694048Y-585143D01*
X4694048Y-585143D02*
X4722619Y-585143D01*
X4722619Y-585143D02*
X4741667Y-594667D01*
X4817857Y-794667D02*
X4827381Y-785143D01*
X4827381Y-785143D02*
X4846429Y-756571D01*
X4846429Y-756571D02*
X4855953Y-737524D01*
X4855953Y-737524D02*
X4865476Y-708952D01*
X4865476Y-708952D02*
X4875000Y-661333D01*
X4875000Y-661333D02*
X4875000Y-623238D01*
X4875000Y-623238D02*
X4865476Y-575619D01*
X4865476Y-575619D02*
X4855953Y-547048D01*
X4855953Y-547048D02*
X4846429Y-528000D01*
X4846429Y-528000D02*
X4827381Y-499428D01*
X4827381Y-499428D02*
X4817857Y-489905D01*
D13*
X-5000Y-909000D02*
G75*
G03*
X-5000Y-909000I-35500J0D01*
G01*
D11*
X280714Y-782476D02*
X299762Y-782476D01*
X299762Y-782476D02*
X318810Y-792000D01*
X318810Y-792000D02*
X328333Y-801524D01*
X328333Y-801524D02*
X337857Y-820571D01*
X337857Y-820571D02*
X347381Y-858667D01*
X347381Y-858667D02*
X347381Y-906286D01*
X347381Y-906286D02*
X337857Y-944381D01*
X337857Y-944381D02*
X328333Y-963428D01*
X328333Y-963428D02*
X318810Y-972952D01*
X318810Y-972952D02*
X299762Y-982476D01*
X299762Y-982476D02*
X280714Y-982476D01*
X280714Y-982476D02*
X261667Y-972952D01*
X261667Y-972952D02*
X252143Y-963428D01*
X252143Y-963428D02*
X242619Y-944381D01*
X242619Y-944381D02*
X233095Y-906286D01*
X233095Y-906286D02*
X233095Y-858667D01*
X233095Y-858667D02*
X242619Y-820571D01*
X242619Y-820571D02*
X252143Y-801524D01*
X252143Y-801524D02*
X261667Y-792000D01*
X261667Y-792000D02*
X280714Y-782476D01*
X433095Y-963428D02*
X442619Y-972952D01*
X442619Y-972952D02*
X433095Y-982476D01*
X433095Y-982476D02*
X423571Y-972952D01*
X423571Y-972952D02*
X433095Y-963428D01*
X433095Y-963428D02*
X433095Y-982476D01*
X509286Y-782476D02*
X642619Y-782476D01*
X642619Y-782476D02*
X556905Y-982476D01*
X823571Y-982476D02*
X709286Y-982476D01*
X766428Y-982476D02*
X766428Y-782476D01*
X766428Y-782476D02*
X747381Y-811048D01*
X747381Y-811048D02*
X728333Y-830095D01*
X728333Y-830095D02*
X709286Y-839619D01*
X947381Y-782476D02*
X966429Y-782476D01*
X966429Y-782476D02*
X985476Y-792000D01*
X985476Y-792000D02*
X995000Y-801524D01*
X995000Y-801524D02*
X1004524Y-820571D01*
X1004524Y-820571D02*
X1014048Y-858667D01*
X1014048Y-858667D02*
X1014048Y-906286D01*
X1014048Y-906286D02*
X1004524Y-944381D01*
X1004524Y-944381D02*
X995000Y-963428D01*
X995000Y-963428D02*
X985476Y-972952D01*
X985476Y-972952D02*
X966429Y-982476D01*
X966429Y-982476D02*
X947381Y-982476D01*
X947381Y-982476D02*
X928333Y-972952D01*
X928333Y-972952D02*
X918809Y-963428D01*
X918809Y-963428D02*
X909286Y-944381D01*
X909286Y-944381D02*
X899762Y-906286D01*
X899762Y-906286D02*
X899762Y-858667D01*
X899762Y-858667D02*
X909286Y-820571D01*
X909286Y-820571D02*
X918809Y-801524D01*
X918809Y-801524D02*
X928333Y-792000D01*
X928333Y-792000D02*
X947381Y-782476D01*
X1099762Y-982476D02*
X1099762Y-849143D01*
X1099762Y-868190D02*
X1109286Y-858667D01*
X1109286Y-858667D02*
X1128333Y-849143D01*
X1128333Y-849143D02*
X1156905Y-849143D01*
X1156905Y-849143D02*
X1175952Y-858667D01*
X1175952Y-858667D02*
X1185476Y-877714D01*
X1185476Y-877714D02*
X1185476Y-982476D01*
X1185476Y-877714D02*
X1195000Y-858667D01*
X1195000Y-858667D02*
X1214048Y-849143D01*
X1214048Y-849143D02*
X1242619Y-849143D01*
X1242619Y-849143D02*
X1261667Y-858667D01*
X1261667Y-858667D02*
X1271191Y-877714D01*
X1271191Y-877714D02*
X1271191Y-982476D01*
X1366429Y-982476D02*
X1366429Y-849143D01*
X1366429Y-868190D02*
X1375952Y-858667D01*
X1375952Y-858667D02*
X1395000Y-849143D01*
X1395000Y-849143D02*
X1423571Y-849143D01*
X1423571Y-849143D02*
X1442619Y-858667D01*
X1442619Y-858667D02*
X1452143Y-877714D01*
X1452143Y-877714D02*
X1452143Y-982476D01*
X1452143Y-877714D02*
X1461667Y-858667D01*
X1461667Y-858667D02*
X1480714Y-849143D01*
X1480714Y-849143D02*
X1509286Y-849143D01*
X1509286Y-849143D02*
X1528333Y-858667D01*
X1528333Y-858667D02*
X1537857Y-877714D01*
X1537857Y-877714D02*
X1537857Y-982476D01*
X1895952Y-772952D02*
X1724524Y-1030095D01*
X2120714Y-782476D02*
X2139762Y-782476D01*
X2139762Y-782476D02*
X2158810Y-792000D01*
X2158810Y-792000D02*
X2168333Y-801524D01*
X2168333Y-801524D02*
X2177857Y-820571D01*
X2177857Y-820571D02*
X2187381Y-858667D01*
X2187381Y-858667D02*
X2187381Y-906286D01*
X2187381Y-906286D02*
X2177857Y-944381D01*
X2177857Y-944381D02*
X2168333Y-963428D01*
X2168333Y-963428D02*
X2158810Y-972952D01*
X2158810Y-972952D02*
X2139762Y-982476D01*
X2139762Y-982476D02*
X2120714Y-982476D01*
X2120714Y-982476D02*
X2101667Y-972952D01*
X2101667Y-972952D02*
X2092143Y-963428D01*
X2092143Y-963428D02*
X2082619Y-944381D01*
X2082619Y-944381D02*
X2073095Y-906286D01*
X2073095Y-906286D02*
X2073095Y-858667D01*
X2073095Y-858667D02*
X2082619Y-820571D01*
X2082619Y-820571D02*
X2092143Y-801524D01*
X2092143Y-801524D02*
X2101667Y-792000D01*
X2101667Y-792000D02*
X2120714Y-782476D01*
X2273095Y-963428D02*
X2282619Y-972952D01*
X2282619Y-972952D02*
X2273095Y-982476D01*
X2273095Y-982476D02*
X2263572Y-972952D01*
X2263572Y-972952D02*
X2273095Y-963428D01*
X2273095Y-963428D02*
X2273095Y-982476D01*
X2406429Y-782476D02*
X2425476Y-782476D01*
X2425476Y-782476D02*
X2444524Y-792000D01*
X2444524Y-792000D02*
X2454048Y-801524D01*
X2454048Y-801524D02*
X2463572Y-820571D01*
X2463572Y-820571D02*
X2473095Y-858667D01*
X2473095Y-858667D02*
X2473095Y-906286D01*
X2473095Y-906286D02*
X2463572Y-944381D01*
X2463572Y-944381D02*
X2454048Y-963428D01*
X2454048Y-963428D02*
X2444524Y-972952D01*
X2444524Y-972952D02*
X2425476Y-982476D01*
X2425476Y-982476D02*
X2406429Y-982476D01*
X2406429Y-982476D02*
X2387381Y-972952D01*
X2387381Y-972952D02*
X2377857Y-963428D01*
X2377857Y-963428D02*
X2368333Y-944381D01*
X2368333Y-944381D02*
X2358810Y-906286D01*
X2358810Y-906286D02*
X2358810Y-858667D01*
X2358810Y-858667D02*
X2368333Y-820571D01*
X2368333Y-820571D02*
X2377857Y-801524D01*
X2377857Y-801524D02*
X2387381Y-792000D01*
X2387381Y-792000D02*
X2406429Y-782476D01*
X2549286Y-801524D02*
X2558810Y-792000D01*
X2558810Y-792000D02*
X2577857Y-782476D01*
X2577857Y-782476D02*
X2625476Y-782476D01*
X2625476Y-782476D02*
X2644524Y-792000D01*
X2644524Y-792000D02*
X2654048Y-801524D01*
X2654048Y-801524D02*
X2663572Y-820571D01*
X2663572Y-820571D02*
X2663572Y-839619D01*
X2663572Y-839619D02*
X2654048Y-868190D01*
X2654048Y-868190D02*
X2539762Y-982476D01*
X2539762Y-982476D02*
X2663572Y-982476D01*
X2777857Y-868190D02*
X2758810Y-858667D01*
X2758810Y-858667D02*
X2749286Y-849143D01*
X2749286Y-849143D02*
X2739762Y-830095D01*
X2739762Y-830095D02*
X2739762Y-820571D01*
X2739762Y-820571D02*
X2749286Y-801524D01*
X2749286Y-801524D02*
X2758810Y-792000D01*
X2758810Y-792000D02*
X2777857Y-782476D01*
X2777857Y-782476D02*
X2815952Y-782476D01*
X2815952Y-782476D02*
X2835000Y-792000D01*
X2835000Y-792000D02*
X2844524Y-801524D01*
X2844524Y-801524D02*
X2854048Y-820571D01*
X2854048Y-820571D02*
X2854048Y-830095D01*
X2854048Y-830095D02*
X2844524Y-849143D01*
X2844524Y-849143D02*
X2835000Y-858667D01*
X2835000Y-858667D02*
X2815952Y-868190D01*
X2815952Y-868190D02*
X2777857Y-868190D01*
X2777857Y-868190D02*
X2758810Y-877714D01*
X2758810Y-877714D02*
X2749286Y-887238D01*
X2749286Y-887238D02*
X2739762Y-906286D01*
X2739762Y-906286D02*
X2739762Y-944381D01*
X2739762Y-944381D02*
X2749286Y-963428D01*
X2749286Y-963428D02*
X2758810Y-972952D01*
X2758810Y-972952D02*
X2777857Y-982476D01*
X2777857Y-982476D02*
X2815952Y-982476D01*
X2815952Y-982476D02*
X2835000Y-972952D01*
X2835000Y-972952D02*
X2844524Y-963428D01*
X2844524Y-963428D02*
X2854048Y-944381D01*
X2854048Y-944381D02*
X2854048Y-906286D01*
X2854048Y-906286D02*
X2844524Y-887238D01*
X2844524Y-887238D02*
X2835000Y-877714D01*
X2835000Y-877714D02*
X2815952Y-868190D01*
X2977857Y-782476D02*
X2996905Y-782476D01*
X2996905Y-782476D02*
X3015952Y-792000D01*
X3015952Y-792000D02*
X3025476Y-801524D01*
X3025476Y-801524D02*
X3035000Y-820571D01*
X3035000Y-820571D02*
X3044524Y-858667D01*
X3044524Y-858667D02*
X3044524Y-906286D01*
X3044524Y-906286D02*
X3035000Y-944381D01*
X3035000Y-944381D02*
X3025476Y-963428D01*
X3025476Y-963428D02*
X3015952Y-972952D01*
X3015952Y-972952D02*
X2996905Y-982476D01*
X2996905Y-982476D02*
X2977857Y-982476D01*
X2977857Y-982476D02*
X2958810Y-972952D01*
X2958810Y-972952D02*
X2949286Y-963428D01*
X2949286Y-963428D02*
X2939762Y-944381D01*
X2939762Y-944381D02*
X2930238Y-906286D01*
X2930238Y-906286D02*
X2930238Y-858667D01*
X2930238Y-858667D02*
X2939762Y-820571D01*
X2939762Y-820571D02*
X2949286Y-801524D01*
X2949286Y-801524D02*
X2958810Y-792000D01*
X2958810Y-792000D02*
X2977857Y-782476D01*
X3120714Y-782476D02*
X3120714Y-820571D01*
X3196905Y-782476D02*
X3196905Y-820571D01*
X3459762Y-1058667D02*
X3450238Y-1049143D01*
X3450238Y-1049143D02*
X3431191Y-1020571D01*
X3431191Y-1020571D02*
X3421667Y-1001524D01*
X3421667Y-1001524D02*
X3412143Y-972952D01*
X3412143Y-972952D02*
X3402619Y-925333D01*
X3402619Y-925333D02*
X3402619Y-887238D01*
X3402619Y-887238D02*
X3412143Y-839619D01*
X3412143Y-839619D02*
X3421667Y-811048D01*
X3421667Y-811048D02*
X3431191Y-792000D01*
X3431191Y-792000D02*
X3450238Y-763428D01*
X3450238Y-763428D02*
X3459762Y-753905D01*
X3526429Y-801524D02*
X3535952Y-792000D01*
X3535952Y-792000D02*
X3555000Y-782476D01*
X3555000Y-782476D02*
X3602619Y-782476D01*
X3602619Y-782476D02*
X3621667Y-792000D01*
X3621667Y-792000D02*
X3631191Y-801524D01*
X3631191Y-801524D02*
X3640714Y-820571D01*
X3640714Y-820571D02*
X3640714Y-839619D01*
X3640714Y-839619D02*
X3631191Y-868190D01*
X3631191Y-868190D02*
X3516905Y-982476D01*
X3516905Y-982476D02*
X3640714Y-982476D01*
X3846429Y-982476D02*
X3846429Y-782476D01*
X3932143Y-982476D02*
X3932143Y-877714D01*
X3932143Y-877714D02*
X3922619Y-858667D01*
X3922619Y-858667D02*
X3903572Y-849143D01*
X3903572Y-849143D02*
X3875000Y-849143D01*
X3875000Y-849143D02*
X3855952Y-858667D01*
X3855952Y-858667D02*
X3846429Y-868190D01*
X4055952Y-982476D02*
X4036905Y-972952D01*
X4036905Y-972952D02*
X4027381Y-963428D01*
X4027381Y-963428D02*
X4017857Y-944381D01*
X4017857Y-944381D02*
X4017857Y-887238D01*
X4017857Y-887238D02*
X4027381Y-868190D01*
X4027381Y-868190D02*
X4036905Y-858667D01*
X4036905Y-858667D02*
X4055952Y-849143D01*
X4055952Y-849143D02*
X4084524Y-849143D01*
X4084524Y-849143D02*
X4103572Y-858667D01*
X4103572Y-858667D02*
X4113095Y-868190D01*
X4113095Y-868190D02*
X4122619Y-887238D01*
X4122619Y-887238D02*
X4122619Y-944381D01*
X4122619Y-944381D02*
X4113095Y-963428D01*
X4113095Y-963428D02*
X4103572Y-972952D01*
X4103572Y-972952D02*
X4084524Y-982476D01*
X4084524Y-982476D02*
X4055952Y-982476D01*
X4236905Y-982476D02*
X4217857Y-972952D01*
X4217857Y-972952D02*
X4208334Y-953905D01*
X4208334Y-953905D02*
X4208334Y-782476D01*
X4389286Y-972952D02*
X4370238Y-982476D01*
X4370238Y-982476D02*
X4332143Y-982476D01*
X4332143Y-982476D02*
X4313095Y-972952D01*
X4313095Y-972952D02*
X4303572Y-953905D01*
X4303572Y-953905D02*
X4303572Y-877714D01*
X4303572Y-877714D02*
X4313095Y-858667D01*
X4313095Y-858667D02*
X4332143Y-849143D01*
X4332143Y-849143D02*
X4370238Y-849143D01*
X4370238Y-849143D02*
X4389286Y-858667D01*
X4389286Y-858667D02*
X4398810Y-877714D01*
X4398810Y-877714D02*
X4398810Y-896762D01*
X4398810Y-896762D02*
X4303572Y-915809D01*
X4475000Y-972952D02*
X4494048Y-982476D01*
X4494048Y-982476D02*
X4532143Y-982476D01*
X4532143Y-982476D02*
X4551191Y-972952D01*
X4551191Y-972952D02*
X4560715Y-953905D01*
X4560715Y-953905D02*
X4560715Y-944381D01*
X4560715Y-944381D02*
X4551191Y-925333D01*
X4551191Y-925333D02*
X4532143Y-915809D01*
X4532143Y-915809D02*
X4503572Y-915809D01*
X4503572Y-915809D02*
X4484524Y-906286D01*
X4484524Y-906286D02*
X4475000Y-887238D01*
X4475000Y-887238D02*
X4475000Y-877714D01*
X4475000Y-877714D02*
X4484524Y-858667D01*
X4484524Y-858667D02*
X4503572Y-849143D01*
X4503572Y-849143D02*
X4532143Y-849143D01*
X4532143Y-849143D02*
X4551191Y-858667D01*
X4627381Y-1058667D02*
X4636905Y-1049143D01*
X4636905Y-1049143D02*
X4655953Y-1020571D01*
X4655953Y-1020571D02*
X4665476Y-1001524D01*
X4665476Y-1001524D02*
X4675000Y-972952D01*
X4675000Y-972952D02*
X4684524Y-925333D01*
X4684524Y-925333D02*
X4684524Y-887238D01*
X4684524Y-887238D02*
X4675000Y-839619D01*
X4675000Y-839619D02*
X4665476Y-811048D01*
X4665476Y-811048D02*
X4655953Y-792000D01*
X4655953Y-792000D02*
X4636905Y-763428D01*
X4636905Y-763428D02*
X4627381Y-753905D01*
D14*
X-45000Y-1133000D02*
X-45000Y-1213000D01*
X-85000Y-1173000D02*
X-5000Y-1173000D01*
D11*
X280714Y-1046476D02*
X299762Y-1046476D01*
X299762Y-1046476D02*
X318810Y-1056000D01*
X318810Y-1056000D02*
X328333Y-1065524D01*
X328333Y-1065524D02*
X337857Y-1084571D01*
X337857Y-1084571D02*
X347381Y-1122667D01*
X347381Y-1122667D02*
X347381Y-1170286D01*
X347381Y-1170286D02*
X337857Y-1208381D01*
X337857Y-1208381D02*
X328333Y-1227429D01*
X328333Y-1227429D02*
X318810Y-1236952D01*
X318810Y-1236952D02*
X299762Y-1246476D01*
X299762Y-1246476D02*
X280714Y-1246476D01*
X280714Y-1246476D02*
X261667Y-1236952D01*
X261667Y-1236952D02*
X252143Y-1227429D01*
X252143Y-1227429D02*
X242619Y-1208381D01*
X242619Y-1208381D02*
X233095Y-1170286D01*
X233095Y-1170286D02*
X233095Y-1122667D01*
X233095Y-1122667D02*
X242619Y-1084571D01*
X242619Y-1084571D02*
X252143Y-1065524D01*
X252143Y-1065524D02*
X261667Y-1056000D01*
X261667Y-1056000D02*
X280714Y-1046476D01*
X433095Y-1227429D02*
X442619Y-1236952D01*
X442619Y-1236952D02*
X433095Y-1246476D01*
X433095Y-1246476D02*
X423571Y-1236952D01*
X423571Y-1236952D02*
X433095Y-1227429D01*
X433095Y-1227429D02*
X433095Y-1246476D01*
X556905Y-1132190D02*
X537857Y-1122667D01*
X537857Y-1122667D02*
X528333Y-1113143D01*
X528333Y-1113143D02*
X518809Y-1094095D01*
X518809Y-1094095D02*
X518809Y-1084571D01*
X518809Y-1084571D02*
X528333Y-1065524D01*
X528333Y-1065524D02*
X537857Y-1056000D01*
X537857Y-1056000D02*
X556905Y-1046476D01*
X556905Y-1046476D02*
X595000Y-1046476D01*
X595000Y-1046476D02*
X614048Y-1056000D01*
X614048Y-1056000D02*
X623571Y-1065524D01*
X623571Y-1065524D02*
X633095Y-1084571D01*
X633095Y-1084571D02*
X633095Y-1094095D01*
X633095Y-1094095D02*
X623571Y-1113143D01*
X623571Y-1113143D02*
X614048Y-1122667D01*
X614048Y-1122667D02*
X595000Y-1132190D01*
X595000Y-1132190D02*
X556905Y-1132190D01*
X556905Y-1132190D02*
X537857Y-1141714D01*
X537857Y-1141714D02*
X528333Y-1151238D01*
X528333Y-1151238D02*
X518809Y-1170286D01*
X518809Y-1170286D02*
X518809Y-1208381D01*
X518809Y-1208381D02*
X528333Y-1227429D01*
X528333Y-1227429D02*
X537857Y-1236952D01*
X537857Y-1236952D02*
X556905Y-1246476D01*
X556905Y-1246476D02*
X595000Y-1246476D01*
X595000Y-1246476D02*
X614048Y-1236952D01*
X614048Y-1236952D02*
X623571Y-1227429D01*
X623571Y-1227429D02*
X633095Y-1208381D01*
X633095Y-1208381D02*
X633095Y-1170286D01*
X633095Y-1170286D02*
X623571Y-1151238D01*
X623571Y-1151238D02*
X614048Y-1141714D01*
X614048Y-1141714D02*
X595000Y-1132190D01*
X756905Y-1046476D02*
X775952Y-1046476D01*
X775952Y-1046476D02*
X795000Y-1056000D01*
X795000Y-1056000D02*
X804524Y-1065524D01*
X804524Y-1065524D02*
X814048Y-1084571D01*
X814048Y-1084571D02*
X823571Y-1122667D01*
X823571Y-1122667D02*
X823571Y-1170286D01*
X823571Y-1170286D02*
X814048Y-1208381D01*
X814048Y-1208381D02*
X804524Y-1227429D01*
X804524Y-1227429D02*
X795000Y-1236952D01*
X795000Y-1236952D02*
X775952Y-1246476D01*
X775952Y-1246476D02*
X756905Y-1246476D01*
X756905Y-1246476D02*
X737857Y-1236952D01*
X737857Y-1236952D02*
X728333Y-1227429D01*
X728333Y-1227429D02*
X718809Y-1208381D01*
X718809Y-1208381D02*
X709286Y-1170286D01*
X709286Y-1170286D02*
X709286Y-1122667D01*
X709286Y-1122667D02*
X718809Y-1084571D01*
X718809Y-1084571D02*
X728333Y-1065524D01*
X728333Y-1065524D02*
X737857Y-1056000D01*
X737857Y-1056000D02*
X756905Y-1046476D01*
X947381Y-1046476D02*
X966429Y-1046476D01*
X966429Y-1046476D02*
X985476Y-1056000D01*
X985476Y-1056000D02*
X995000Y-1065524D01*
X995000Y-1065524D02*
X1004524Y-1084571D01*
X1004524Y-1084571D02*
X1014048Y-1122667D01*
X1014048Y-1122667D02*
X1014048Y-1170286D01*
X1014048Y-1170286D02*
X1004524Y-1208381D01*
X1004524Y-1208381D02*
X995000Y-1227429D01*
X995000Y-1227429D02*
X985476Y-1236952D01*
X985476Y-1236952D02*
X966429Y-1246476D01*
X966429Y-1246476D02*
X947381Y-1246476D01*
X947381Y-1246476D02*
X928333Y-1236952D01*
X928333Y-1236952D02*
X918809Y-1227429D01*
X918809Y-1227429D02*
X909286Y-1208381D01*
X909286Y-1208381D02*
X899762Y-1170286D01*
X899762Y-1170286D02*
X899762Y-1122667D01*
X899762Y-1122667D02*
X909286Y-1084571D01*
X909286Y-1084571D02*
X918809Y-1065524D01*
X918809Y-1065524D02*
X928333Y-1056000D01*
X928333Y-1056000D02*
X947381Y-1046476D01*
X1099762Y-1246476D02*
X1099762Y-1113143D01*
X1099762Y-1132190D02*
X1109286Y-1122667D01*
X1109286Y-1122667D02*
X1128333Y-1113143D01*
X1128333Y-1113143D02*
X1156905Y-1113143D01*
X1156905Y-1113143D02*
X1175952Y-1122667D01*
X1175952Y-1122667D02*
X1185476Y-1141714D01*
X1185476Y-1141714D02*
X1185476Y-1246476D01*
X1185476Y-1141714D02*
X1195000Y-1122667D01*
X1195000Y-1122667D02*
X1214048Y-1113143D01*
X1214048Y-1113143D02*
X1242619Y-1113143D01*
X1242619Y-1113143D02*
X1261667Y-1122667D01*
X1261667Y-1122667D02*
X1271191Y-1141714D01*
X1271191Y-1141714D02*
X1271191Y-1246476D01*
X1366429Y-1246476D02*
X1366429Y-1113143D01*
X1366429Y-1132190D02*
X1375952Y-1122667D01*
X1375952Y-1122667D02*
X1395000Y-1113143D01*
X1395000Y-1113143D02*
X1423571Y-1113143D01*
X1423571Y-1113143D02*
X1442619Y-1122667D01*
X1442619Y-1122667D02*
X1452143Y-1141714D01*
X1452143Y-1141714D02*
X1452143Y-1246476D01*
X1452143Y-1141714D02*
X1461667Y-1122667D01*
X1461667Y-1122667D02*
X1480714Y-1113143D01*
X1480714Y-1113143D02*
X1509286Y-1113143D01*
X1509286Y-1113143D02*
X1528333Y-1122667D01*
X1528333Y-1122667D02*
X1537857Y-1141714D01*
X1537857Y-1141714D02*
X1537857Y-1246476D01*
X1895952Y-1036952D02*
X1724524Y-1294095D01*
X2120714Y-1046476D02*
X2139762Y-1046476D01*
X2139762Y-1046476D02*
X2158810Y-1056000D01*
X2158810Y-1056000D02*
X2168333Y-1065524D01*
X2168333Y-1065524D02*
X2177857Y-1084571D01*
X2177857Y-1084571D02*
X2187381Y-1122667D01*
X2187381Y-1122667D02*
X2187381Y-1170286D01*
X2187381Y-1170286D02*
X2177857Y-1208381D01*
X2177857Y-1208381D02*
X2168333Y-1227429D01*
X2168333Y-1227429D02*
X2158810Y-1236952D01*
X2158810Y-1236952D02*
X2139762Y-1246476D01*
X2139762Y-1246476D02*
X2120714Y-1246476D01*
X2120714Y-1246476D02*
X2101667Y-1236952D01*
X2101667Y-1236952D02*
X2092143Y-1227429D01*
X2092143Y-1227429D02*
X2082619Y-1208381D01*
X2082619Y-1208381D02*
X2073095Y-1170286D01*
X2073095Y-1170286D02*
X2073095Y-1122667D01*
X2073095Y-1122667D02*
X2082619Y-1084571D01*
X2082619Y-1084571D02*
X2092143Y-1065524D01*
X2092143Y-1065524D02*
X2101667Y-1056000D01*
X2101667Y-1056000D02*
X2120714Y-1046476D01*
X2273095Y-1227429D02*
X2282619Y-1236952D01*
X2282619Y-1236952D02*
X2273095Y-1246476D01*
X2273095Y-1246476D02*
X2263572Y-1236952D01*
X2263572Y-1236952D02*
X2273095Y-1227429D01*
X2273095Y-1227429D02*
X2273095Y-1246476D01*
X2406429Y-1046476D02*
X2425476Y-1046476D01*
X2425476Y-1046476D02*
X2444524Y-1056000D01*
X2444524Y-1056000D02*
X2454048Y-1065524D01*
X2454048Y-1065524D02*
X2463572Y-1084571D01*
X2463572Y-1084571D02*
X2473095Y-1122667D01*
X2473095Y-1122667D02*
X2473095Y-1170286D01*
X2473095Y-1170286D02*
X2463572Y-1208381D01*
X2463572Y-1208381D02*
X2454048Y-1227429D01*
X2454048Y-1227429D02*
X2444524Y-1236952D01*
X2444524Y-1236952D02*
X2425476Y-1246476D01*
X2425476Y-1246476D02*
X2406429Y-1246476D01*
X2406429Y-1246476D02*
X2387381Y-1236952D01*
X2387381Y-1236952D02*
X2377857Y-1227429D01*
X2377857Y-1227429D02*
X2368333Y-1208381D01*
X2368333Y-1208381D02*
X2358810Y-1170286D01*
X2358810Y-1170286D02*
X2358810Y-1122667D01*
X2358810Y-1122667D02*
X2368333Y-1084571D01*
X2368333Y-1084571D02*
X2377857Y-1065524D01*
X2377857Y-1065524D02*
X2387381Y-1056000D01*
X2387381Y-1056000D02*
X2406429Y-1046476D01*
X2539762Y-1046476D02*
X2663572Y-1046476D01*
X2663572Y-1046476D02*
X2596905Y-1122667D01*
X2596905Y-1122667D02*
X2625476Y-1122667D01*
X2625476Y-1122667D02*
X2644524Y-1132190D01*
X2644524Y-1132190D02*
X2654048Y-1141714D01*
X2654048Y-1141714D02*
X2663572Y-1160762D01*
X2663572Y-1160762D02*
X2663572Y-1208381D01*
X2663572Y-1208381D02*
X2654048Y-1227429D01*
X2654048Y-1227429D02*
X2644524Y-1236952D01*
X2644524Y-1236952D02*
X2625476Y-1246476D01*
X2625476Y-1246476D02*
X2568333Y-1246476D01*
X2568333Y-1246476D02*
X2549286Y-1236952D01*
X2549286Y-1236952D02*
X2539762Y-1227429D01*
X2854048Y-1246476D02*
X2739762Y-1246476D01*
X2796905Y-1246476D02*
X2796905Y-1046476D01*
X2796905Y-1046476D02*
X2777857Y-1075048D01*
X2777857Y-1075048D02*
X2758810Y-1094095D01*
X2758810Y-1094095D02*
X2739762Y-1103619D01*
X3035000Y-1046476D02*
X2939762Y-1046476D01*
X2939762Y-1046476D02*
X2930238Y-1141714D01*
X2930238Y-1141714D02*
X2939762Y-1132190D01*
X2939762Y-1132190D02*
X2958810Y-1122667D01*
X2958810Y-1122667D02*
X3006429Y-1122667D01*
X3006429Y-1122667D02*
X3025476Y-1132190D01*
X3025476Y-1132190D02*
X3035000Y-1141714D01*
X3035000Y-1141714D02*
X3044524Y-1160762D01*
X3044524Y-1160762D02*
X3044524Y-1208381D01*
X3044524Y-1208381D02*
X3035000Y-1227429D01*
X3035000Y-1227429D02*
X3025476Y-1236952D01*
X3025476Y-1236952D02*
X3006429Y-1246476D01*
X3006429Y-1246476D02*
X2958810Y-1246476D01*
X2958810Y-1246476D02*
X2939762Y-1236952D01*
X2939762Y-1236952D02*
X2930238Y-1227429D01*
X3120714Y-1046476D02*
X3120714Y-1084571D01*
X3196905Y-1046476D02*
X3196905Y-1084571D01*
X3459762Y-1322667D02*
X3450238Y-1313143D01*
X3450238Y-1313143D02*
X3431191Y-1284571D01*
X3431191Y-1284571D02*
X3421667Y-1265524D01*
X3421667Y-1265524D02*
X3412143Y-1236952D01*
X3412143Y-1236952D02*
X3402619Y-1189333D01*
X3402619Y-1189333D02*
X3402619Y-1151238D01*
X3402619Y-1151238D02*
X3412143Y-1103619D01*
X3412143Y-1103619D02*
X3421667Y-1075048D01*
X3421667Y-1075048D02*
X3431191Y-1056000D01*
X3431191Y-1056000D02*
X3450238Y-1027428D01*
X3450238Y-1027428D02*
X3459762Y-1017905D01*
X3621667Y-1113143D02*
X3621667Y-1246476D01*
X3574048Y-1036952D02*
X3526429Y-1179810D01*
X3526429Y-1179810D02*
X3650238Y-1179810D01*
X3764524Y-1046476D02*
X3783572Y-1046476D01*
X3783572Y-1046476D02*
X3802619Y-1056000D01*
X3802619Y-1056000D02*
X3812143Y-1065524D01*
X3812143Y-1065524D02*
X3821667Y-1084571D01*
X3821667Y-1084571D02*
X3831191Y-1122667D01*
X3831191Y-1122667D02*
X3831191Y-1170286D01*
X3831191Y-1170286D02*
X3821667Y-1208381D01*
X3821667Y-1208381D02*
X3812143Y-1227429D01*
X3812143Y-1227429D02*
X3802619Y-1236952D01*
X3802619Y-1236952D02*
X3783572Y-1246476D01*
X3783572Y-1246476D02*
X3764524Y-1246476D01*
X3764524Y-1246476D02*
X3745476Y-1236952D01*
X3745476Y-1236952D02*
X3735952Y-1227429D01*
X3735952Y-1227429D02*
X3726429Y-1208381D01*
X3726429Y-1208381D02*
X3716905Y-1170286D01*
X3716905Y-1170286D02*
X3716905Y-1122667D01*
X3716905Y-1122667D02*
X3726429Y-1084571D01*
X3726429Y-1084571D02*
X3735952Y-1065524D01*
X3735952Y-1065524D02*
X3745476Y-1056000D01*
X3745476Y-1056000D02*
X3764524Y-1046476D01*
X4036905Y-1246476D02*
X4036905Y-1046476D01*
X4122619Y-1246476D02*
X4122619Y-1141714D01*
X4122619Y-1141714D02*
X4113095Y-1122667D01*
X4113095Y-1122667D02*
X4094048Y-1113143D01*
X4094048Y-1113143D02*
X4065476Y-1113143D01*
X4065476Y-1113143D02*
X4046429Y-1122667D01*
X4046429Y-1122667D02*
X4036905Y-1132190D01*
X4246429Y-1246476D02*
X4227381Y-1236952D01*
X4227381Y-1236952D02*
X4217857Y-1227429D01*
X4217857Y-1227429D02*
X4208334Y-1208381D01*
X4208334Y-1208381D02*
X4208334Y-1151238D01*
X4208334Y-1151238D02*
X4217857Y-1132190D01*
X4217857Y-1132190D02*
X4227381Y-1122667D01*
X4227381Y-1122667D02*
X4246429Y-1113143D01*
X4246429Y-1113143D02*
X4275000Y-1113143D01*
X4275000Y-1113143D02*
X4294048Y-1122667D01*
X4294048Y-1122667D02*
X4303572Y-1132190D01*
X4303572Y-1132190D02*
X4313095Y-1151238D01*
X4313095Y-1151238D02*
X4313095Y-1208381D01*
X4313095Y-1208381D02*
X4303572Y-1227429D01*
X4303572Y-1227429D02*
X4294048Y-1236952D01*
X4294048Y-1236952D02*
X4275000Y-1246476D01*
X4275000Y-1246476D02*
X4246429Y-1246476D01*
X4427381Y-1246476D02*
X4408334Y-1236952D01*
X4408334Y-1236952D02*
X4398810Y-1217905D01*
X4398810Y-1217905D02*
X4398810Y-1046476D01*
X4579762Y-1236952D02*
X4560715Y-1246476D01*
X4560715Y-1246476D02*
X4522619Y-1246476D01*
X4522619Y-1246476D02*
X4503572Y-1236952D01*
X4503572Y-1236952D02*
X4494048Y-1217905D01*
X4494048Y-1217905D02*
X4494048Y-1141714D01*
X4494048Y-1141714D02*
X4503572Y-1122667D01*
X4503572Y-1122667D02*
X4522619Y-1113143D01*
X4522619Y-1113143D02*
X4560715Y-1113143D01*
X4560715Y-1113143D02*
X4579762Y-1122667D01*
X4579762Y-1122667D02*
X4589286Y-1141714D01*
X4589286Y-1141714D02*
X4589286Y-1160762D01*
X4589286Y-1160762D02*
X4494048Y-1179810D01*
X4665476Y-1236952D02*
X4684524Y-1246476D01*
X4684524Y-1246476D02*
X4722619Y-1246476D01*
X4722619Y-1246476D02*
X4741667Y-1236952D01*
X4741667Y-1236952D02*
X4751191Y-1217905D01*
X4751191Y-1217905D02*
X4751191Y-1208381D01*
X4751191Y-1208381D02*
X4741667Y-1189333D01*
X4741667Y-1189333D02*
X4722619Y-1179810D01*
X4722619Y-1179810D02*
X4694048Y-1179810D01*
X4694048Y-1179810D02*
X4675000Y-1170286D01*
X4675000Y-1170286D02*
X4665476Y-1151238D01*
X4665476Y-1151238D02*
X4665476Y-1141714D01*
X4665476Y-1141714D02*
X4675000Y-1122667D01*
X4675000Y-1122667D02*
X4694048Y-1113143D01*
X4694048Y-1113143D02*
X4722619Y-1113143D01*
X4722619Y-1113143D02*
X4741667Y-1122667D01*
X4817857Y-1322667D02*
X4827381Y-1313143D01*
X4827381Y-1313143D02*
X4846429Y-1284571D01*
X4846429Y-1284571D02*
X4855953Y-1265524D01*
X4855953Y-1265524D02*
X4865476Y-1236952D01*
X4865476Y-1236952D02*
X4875000Y-1189333D01*
X4875000Y-1189333D02*
X4875000Y-1151238D01*
X4875000Y-1151238D02*
X4865476Y-1103619D01*
X4865476Y-1103619D02*
X4855953Y-1075048D01*
X4855953Y-1075048D02*
X4846429Y-1056000D01*
X4846429Y-1056000D02*
X4827381Y-1027428D01*
X4827381Y-1027428D02*
X4817857Y-1017905D01*
D15*
X-18180Y-1468820D02*
X-18180Y-1405180D01*
X-81820Y-1405180D01*
X-81820Y-1468820D01*
X-18180Y-1468820D01*
D11*
X280714Y-1310476D02*
X299762Y-1310476D01*
X299762Y-1310476D02*
X318810Y-1320000D01*
X318810Y-1320000D02*
X328333Y-1329524D01*
X328333Y-1329524D02*
X337857Y-1348571D01*
X337857Y-1348571D02*
X347381Y-1386667D01*
X347381Y-1386667D02*
X347381Y-1434286D01*
X347381Y-1434286D02*
X337857Y-1472381D01*
X337857Y-1472381D02*
X328333Y-1491428D01*
X328333Y-1491428D02*
X318810Y-1500952D01*
X318810Y-1500952D02*
X299762Y-1510476D01*
X299762Y-1510476D02*
X280714Y-1510476D01*
X280714Y-1510476D02*
X261667Y-1500952D01*
X261667Y-1500952D02*
X252143Y-1491428D01*
X252143Y-1491428D02*
X242619Y-1472381D01*
X242619Y-1472381D02*
X233095Y-1434286D01*
X233095Y-1434286D02*
X233095Y-1386667D01*
X233095Y-1386667D02*
X242619Y-1348571D01*
X242619Y-1348571D02*
X252143Y-1329524D01*
X252143Y-1329524D02*
X261667Y-1320000D01*
X261667Y-1320000D02*
X280714Y-1310476D01*
X433095Y-1491428D02*
X442619Y-1500952D01*
X442619Y-1500952D02*
X433095Y-1510476D01*
X433095Y-1510476D02*
X423571Y-1500952D01*
X423571Y-1500952D02*
X433095Y-1491428D01*
X433095Y-1491428D02*
X433095Y-1510476D01*
X537857Y-1510476D02*
X575952Y-1510476D01*
X575952Y-1510476D02*
X595000Y-1500952D01*
X595000Y-1500952D02*
X604524Y-1491428D01*
X604524Y-1491428D02*
X623571Y-1462857D01*
X623571Y-1462857D02*
X633095Y-1424762D01*
X633095Y-1424762D02*
X633095Y-1348571D01*
X633095Y-1348571D02*
X623571Y-1329524D01*
X623571Y-1329524D02*
X614048Y-1320000D01*
X614048Y-1320000D02*
X595000Y-1310476D01*
X595000Y-1310476D02*
X556905Y-1310476D01*
X556905Y-1310476D02*
X537857Y-1320000D01*
X537857Y-1320000D02*
X528333Y-1329524D01*
X528333Y-1329524D02*
X518809Y-1348571D01*
X518809Y-1348571D02*
X518809Y-1396190D01*
X518809Y-1396190D02*
X528333Y-1415238D01*
X528333Y-1415238D02*
X537857Y-1424762D01*
X537857Y-1424762D02*
X556905Y-1434286D01*
X556905Y-1434286D02*
X595000Y-1434286D01*
X595000Y-1434286D02*
X614048Y-1424762D01*
X614048Y-1424762D02*
X623571Y-1415238D01*
X623571Y-1415238D02*
X633095Y-1396190D01*
X756905Y-1310476D02*
X775952Y-1310476D01*
X775952Y-1310476D02*
X795000Y-1320000D01*
X795000Y-1320000D02*
X804524Y-1329524D01*
X804524Y-1329524D02*
X814048Y-1348571D01*
X814048Y-1348571D02*
X823571Y-1386667D01*
X823571Y-1386667D02*
X823571Y-1434286D01*
X823571Y-1434286D02*
X814048Y-1472381D01*
X814048Y-1472381D02*
X804524Y-1491428D01*
X804524Y-1491428D02*
X795000Y-1500952D01*
X795000Y-1500952D02*
X775952Y-1510476D01*
X775952Y-1510476D02*
X756905Y-1510476D01*
X756905Y-1510476D02*
X737857Y-1500952D01*
X737857Y-1500952D02*
X728333Y-1491428D01*
X728333Y-1491428D02*
X718809Y-1472381D01*
X718809Y-1472381D02*
X709286Y-1434286D01*
X709286Y-1434286D02*
X709286Y-1386667D01*
X709286Y-1386667D02*
X718809Y-1348571D01*
X718809Y-1348571D02*
X728333Y-1329524D01*
X728333Y-1329524D02*
X737857Y-1320000D01*
X737857Y-1320000D02*
X756905Y-1310476D01*
X947381Y-1310476D02*
X966429Y-1310476D01*
X966429Y-1310476D02*
X985476Y-1320000D01*
X985476Y-1320000D02*
X995000Y-1329524D01*
X995000Y-1329524D02*
X1004524Y-1348571D01*
X1004524Y-1348571D02*
X1014048Y-1386667D01*
X1014048Y-1386667D02*
X1014048Y-1434286D01*
X1014048Y-1434286D02*
X1004524Y-1472381D01*
X1004524Y-1472381D02*
X995000Y-1491428D01*
X995000Y-1491428D02*
X985476Y-1500952D01*
X985476Y-1500952D02*
X966429Y-1510476D01*
X966429Y-1510476D02*
X947381Y-1510476D01*
X947381Y-1510476D02*
X928333Y-1500952D01*
X928333Y-1500952D02*
X918809Y-1491428D01*
X918809Y-1491428D02*
X909286Y-1472381D01*
X909286Y-1472381D02*
X899762Y-1434286D01*
X899762Y-1434286D02*
X899762Y-1386667D01*
X899762Y-1386667D02*
X909286Y-1348571D01*
X909286Y-1348571D02*
X918809Y-1329524D01*
X918809Y-1329524D02*
X928333Y-1320000D01*
X928333Y-1320000D02*
X947381Y-1310476D01*
X1099762Y-1510476D02*
X1099762Y-1377143D01*
X1099762Y-1396190D02*
X1109286Y-1386667D01*
X1109286Y-1386667D02*
X1128333Y-1377143D01*
X1128333Y-1377143D02*
X1156905Y-1377143D01*
X1156905Y-1377143D02*
X1175952Y-1386667D01*
X1175952Y-1386667D02*
X1185476Y-1405714D01*
X1185476Y-1405714D02*
X1185476Y-1510476D01*
X1185476Y-1405714D02*
X1195000Y-1386667D01*
X1195000Y-1386667D02*
X1214048Y-1377143D01*
X1214048Y-1377143D02*
X1242619Y-1377143D01*
X1242619Y-1377143D02*
X1261667Y-1386667D01*
X1261667Y-1386667D02*
X1271191Y-1405714D01*
X1271191Y-1405714D02*
X1271191Y-1510476D01*
X1366429Y-1510476D02*
X1366429Y-1377143D01*
X1366429Y-1396190D02*
X1375952Y-1386667D01*
X1375952Y-1386667D02*
X1395000Y-1377143D01*
X1395000Y-1377143D02*
X1423571Y-1377143D01*
X1423571Y-1377143D02*
X1442619Y-1386667D01*
X1442619Y-1386667D02*
X1452143Y-1405714D01*
X1452143Y-1405714D02*
X1452143Y-1510476D01*
X1452143Y-1405714D02*
X1461667Y-1386667D01*
X1461667Y-1386667D02*
X1480714Y-1377143D01*
X1480714Y-1377143D02*
X1509286Y-1377143D01*
X1509286Y-1377143D02*
X1528333Y-1386667D01*
X1528333Y-1386667D02*
X1537857Y-1405714D01*
X1537857Y-1405714D02*
X1537857Y-1510476D01*
X1895952Y-1300952D02*
X1724524Y-1558095D01*
X2120714Y-1310476D02*
X2139762Y-1310476D01*
X2139762Y-1310476D02*
X2158810Y-1320000D01*
X2158810Y-1320000D02*
X2168333Y-1329524D01*
X2168333Y-1329524D02*
X2177857Y-1348571D01*
X2177857Y-1348571D02*
X2187381Y-1386667D01*
X2187381Y-1386667D02*
X2187381Y-1434286D01*
X2187381Y-1434286D02*
X2177857Y-1472381D01*
X2177857Y-1472381D02*
X2168333Y-1491428D01*
X2168333Y-1491428D02*
X2158810Y-1500952D01*
X2158810Y-1500952D02*
X2139762Y-1510476D01*
X2139762Y-1510476D02*
X2120714Y-1510476D01*
X2120714Y-1510476D02*
X2101667Y-1500952D01*
X2101667Y-1500952D02*
X2092143Y-1491428D01*
X2092143Y-1491428D02*
X2082619Y-1472381D01*
X2082619Y-1472381D02*
X2073095Y-1434286D01*
X2073095Y-1434286D02*
X2073095Y-1386667D01*
X2073095Y-1386667D02*
X2082619Y-1348571D01*
X2082619Y-1348571D02*
X2092143Y-1329524D01*
X2092143Y-1329524D02*
X2101667Y-1320000D01*
X2101667Y-1320000D02*
X2120714Y-1310476D01*
X2273095Y-1491428D02*
X2282619Y-1500952D01*
X2282619Y-1500952D02*
X2273095Y-1510476D01*
X2273095Y-1510476D02*
X2263572Y-1500952D01*
X2263572Y-1500952D02*
X2273095Y-1491428D01*
X2273095Y-1491428D02*
X2273095Y-1510476D01*
X2406429Y-1310476D02*
X2425476Y-1310476D01*
X2425476Y-1310476D02*
X2444524Y-1320000D01*
X2444524Y-1320000D02*
X2454048Y-1329524D01*
X2454048Y-1329524D02*
X2463572Y-1348571D01*
X2463572Y-1348571D02*
X2473095Y-1386667D01*
X2473095Y-1386667D02*
X2473095Y-1434286D01*
X2473095Y-1434286D02*
X2463572Y-1472381D01*
X2463572Y-1472381D02*
X2454048Y-1491428D01*
X2454048Y-1491428D02*
X2444524Y-1500952D01*
X2444524Y-1500952D02*
X2425476Y-1510476D01*
X2425476Y-1510476D02*
X2406429Y-1510476D01*
X2406429Y-1510476D02*
X2387381Y-1500952D01*
X2387381Y-1500952D02*
X2377857Y-1491428D01*
X2377857Y-1491428D02*
X2368333Y-1472381D01*
X2368333Y-1472381D02*
X2358810Y-1434286D01*
X2358810Y-1434286D02*
X2358810Y-1386667D01*
X2358810Y-1386667D02*
X2368333Y-1348571D01*
X2368333Y-1348571D02*
X2377857Y-1329524D01*
X2377857Y-1329524D02*
X2387381Y-1320000D01*
X2387381Y-1320000D02*
X2406429Y-1310476D01*
X2539762Y-1310476D02*
X2663572Y-1310476D01*
X2663572Y-1310476D02*
X2596905Y-1386667D01*
X2596905Y-1386667D02*
X2625476Y-1386667D01*
X2625476Y-1386667D02*
X2644524Y-1396190D01*
X2644524Y-1396190D02*
X2654048Y-1405714D01*
X2654048Y-1405714D02*
X2663572Y-1424762D01*
X2663572Y-1424762D02*
X2663572Y-1472381D01*
X2663572Y-1472381D02*
X2654048Y-1491428D01*
X2654048Y-1491428D02*
X2644524Y-1500952D01*
X2644524Y-1500952D02*
X2625476Y-1510476D01*
X2625476Y-1510476D02*
X2568333Y-1510476D01*
X2568333Y-1510476D02*
X2549286Y-1500952D01*
X2549286Y-1500952D02*
X2539762Y-1491428D01*
X2844524Y-1310476D02*
X2749286Y-1310476D01*
X2749286Y-1310476D02*
X2739762Y-1405714D01*
X2739762Y-1405714D02*
X2749286Y-1396190D01*
X2749286Y-1396190D02*
X2768333Y-1386667D01*
X2768333Y-1386667D02*
X2815952Y-1386667D01*
X2815952Y-1386667D02*
X2835000Y-1396190D01*
X2835000Y-1396190D02*
X2844524Y-1405714D01*
X2844524Y-1405714D02*
X2854048Y-1424762D01*
X2854048Y-1424762D02*
X2854048Y-1472381D01*
X2854048Y-1472381D02*
X2844524Y-1491428D01*
X2844524Y-1491428D02*
X2835000Y-1500952D01*
X2835000Y-1500952D02*
X2815952Y-1510476D01*
X2815952Y-1510476D02*
X2768333Y-1510476D01*
X2768333Y-1510476D02*
X2749286Y-1500952D01*
X2749286Y-1500952D02*
X2739762Y-1491428D01*
X3025476Y-1377143D02*
X3025476Y-1510476D01*
X2977857Y-1300952D02*
X2930238Y-1443809D01*
X2930238Y-1443809D02*
X3054048Y-1443809D01*
X3120714Y-1310476D02*
X3120714Y-1348571D01*
X3196905Y-1310476D02*
X3196905Y-1348571D01*
X3459762Y-1586667D02*
X3450238Y-1577143D01*
X3450238Y-1577143D02*
X3431191Y-1548571D01*
X3431191Y-1548571D02*
X3421667Y-1529524D01*
X3421667Y-1529524D02*
X3412143Y-1500952D01*
X3412143Y-1500952D02*
X3402619Y-1453333D01*
X3402619Y-1453333D02*
X3402619Y-1415238D01*
X3402619Y-1415238D02*
X3412143Y-1367619D01*
X3412143Y-1367619D02*
X3421667Y-1339048D01*
X3421667Y-1339048D02*
X3431191Y-1320000D01*
X3431191Y-1320000D02*
X3450238Y-1291429D01*
X3450238Y-1291429D02*
X3459762Y-1281905D01*
X3526429Y-1329524D02*
X3535952Y-1320000D01*
X3535952Y-1320000D02*
X3555000Y-1310476D01*
X3555000Y-1310476D02*
X3602619Y-1310476D01*
X3602619Y-1310476D02*
X3621667Y-1320000D01*
X3621667Y-1320000D02*
X3631191Y-1329524D01*
X3631191Y-1329524D02*
X3640714Y-1348571D01*
X3640714Y-1348571D02*
X3640714Y-1367619D01*
X3640714Y-1367619D02*
X3631191Y-1396190D01*
X3631191Y-1396190D02*
X3516905Y-1510476D01*
X3516905Y-1510476D02*
X3640714Y-1510476D01*
X3846429Y-1510476D02*
X3846429Y-1310476D01*
X3932143Y-1510476D02*
X3932143Y-1405714D01*
X3932143Y-1405714D02*
X3922619Y-1386667D01*
X3922619Y-1386667D02*
X3903572Y-1377143D01*
X3903572Y-1377143D02*
X3875000Y-1377143D01*
X3875000Y-1377143D02*
X3855952Y-1386667D01*
X3855952Y-1386667D02*
X3846429Y-1396190D01*
X4055952Y-1510476D02*
X4036905Y-1500952D01*
X4036905Y-1500952D02*
X4027381Y-1491428D01*
X4027381Y-1491428D02*
X4017857Y-1472381D01*
X4017857Y-1472381D02*
X4017857Y-1415238D01*
X4017857Y-1415238D02*
X4027381Y-1396190D01*
X4027381Y-1396190D02*
X4036905Y-1386667D01*
X4036905Y-1386667D02*
X4055952Y-1377143D01*
X4055952Y-1377143D02*
X4084524Y-1377143D01*
X4084524Y-1377143D02*
X4103572Y-1386667D01*
X4103572Y-1386667D02*
X4113095Y-1396190D01*
X4113095Y-1396190D02*
X4122619Y-1415238D01*
X4122619Y-1415238D02*
X4122619Y-1472381D01*
X4122619Y-1472381D02*
X4113095Y-1491428D01*
X4113095Y-1491428D02*
X4103572Y-1500952D01*
X4103572Y-1500952D02*
X4084524Y-1510476D01*
X4084524Y-1510476D02*
X4055952Y-1510476D01*
X4236905Y-1510476D02*
X4217857Y-1500952D01*
X4217857Y-1500952D02*
X4208334Y-1481905D01*
X4208334Y-1481905D02*
X4208334Y-1310476D01*
X4389286Y-1500952D02*
X4370238Y-1510476D01*
X4370238Y-1510476D02*
X4332143Y-1510476D01*
X4332143Y-1510476D02*
X4313095Y-1500952D01*
X4313095Y-1500952D02*
X4303572Y-1481905D01*
X4303572Y-1481905D02*
X4303572Y-1405714D01*
X4303572Y-1405714D02*
X4313095Y-1386667D01*
X4313095Y-1386667D02*
X4332143Y-1377143D01*
X4332143Y-1377143D02*
X4370238Y-1377143D01*
X4370238Y-1377143D02*
X4389286Y-1386667D01*
X4389286Y-1386667D02*
X4398810Y-1405714D01*
X4398810Y-1405714D02*
X4398810Y-1424762D01*
X4398810Y-1424762D02*
X4303572Y-1443809D01*
X4475000Y-1500952D02*
X4494048Y-1510476D01*
X4494048Y-1510476D02*
X4532143Y-1510476D01*
X4532143Y-1510476D02*
X4551191Y-1500952D01*
X4551191Y-1500952D02*
X4560715Y-1481905D01*
X4560715Y-1481905D02*
X4560715Y-1472381D01*
X4560715Y-1472381D02*
X4551191Y-1453333D01*
X4551191Y-1453333D02*
X4532143Y-1443809D01*
X4532143Y-1443809D02*
X4503572Y-1443809D01*
X4503572Y-1443809D02*
X4484524Y-1434286D01*
X4484524Y-1434286D02*
X4475000Y-1415238D01*
X4475000Y-1415238D02*
X4475000Y-1405714D01*
X4475000Y-1405714D02*
X4484524Y-1386667D01*
X4484524Y-1386667D02*
X4503572Y-1377143D01*
X4503572Y-1377143D02*
X4532143Y-1377143D01*
X4532143Y-1377143D02*
X4551191Y-1386667D01*
X4627381Y-1586667D02*
X4636905Y-1577143D01*
X4636905Y-1577143D02*
X4655953Y-1548571D01*
X4655953Y-1548571D02*
X4665476Y-1529524D01*
X4665476Y-1529524D02*
X4675000Y-1500952D01*
X4675000Y-1500952D02*
X4684524Y-1453333D01*
X4684524Y-1453333D02*
X4684524Y-1415238D01*
X4684524Y-1415238D02*
X4675000Y-1367619D01*
X4675000Y-1367619D02*
X4665476Y-1339048D01*
X4665476Y-1339048D02*
X4655953Y-1320000D01*
X4655953Y-1320000D02*
X4636905Y-1291429D01*
X4636905Y-1291429D02*
X4627381Y-1281905D01*
D10*
X-55000Y-1751000D02*
X-5000Y-1701000D01*
X-55000Y-1651000D01*
X-105000Y-1701000D01*
X-55000Y-1751000D01*
D11*
X347381Y-1774476D02*
X233095Y-1774476D01*
X290238Y-1774476D02*
X290238Y-1574476D01*
X290238Y-1574476D02*
X271190Y-1603048D01*
X271190Y-1603048D02*
X252143Y-1622095D01*
X252143Y-1622095D02*
X233095Y-1631619D01*
X433095Y-1755428D02*
X442619Y-1764952D01*
X442619Y-1764952D02*
X433095Y-1774476D01*
X433095Y-1774476D02*
X423571Y-1764952D01*
X423571Y-1764952D02*
X433095Y-1755428D01*
X433095Y-1755428D02*
X433095Y-1774476D01*
X566429Y-1574476D02*
X585476Y-1574476D01*
X585476Y-1574476D02*
X604524Y-1584000D01*
X604524Y-1584000D02*
X614048Y-1593524D01*
X614048Y-1593524D02*
X623571Y-1612571D01*
X623571Y-1612571D02*
X633095Y-1650667D01*
X633095Y-1650667D02*
X633095Y-1698286D01*
X633095Y-1698286D02*
X623571Y-1736381D01*
X623571Y-1736381D02*
X614048Y-1755428D01*
X614048Y-1755428D02*
X604524Y-1764952D01*
X604524Y-1764952D02*
X585476Y-1774476D01*
X585476Y-1774476D02*
X566429Y-1774476D01*
X566429Y-1774476D02*
X547381Y-1764952D01*
X547381Y-1764952D02*
X537857Y-1755428D01*
X537857Y-1755428D02*
X528333Y-1736381D01*
X528333Y-1736381D02*
X518809Y-1698286D01*
X518809Y-1698286D02*
X518809Y-1650667D01*
X518809Y-1650667D02*
X528333Y-1612571D01*
X528333Y-1612571D02*
X537857Y-1593524D01*
X537857Y-1593524D02*
X547381Y-1584000D01*
X547381Y-1584000D02*
X566429Y-1574476D01*
X756905Y-1574476D02*
X775952Y-1574476D01*
X775952Y-1574476D02*
X795000Y-1584000D01*
X795000Y-1584000D02*
X804524Y-1593524D01*
X804524Y-1593524D02*
X814048Y-1612571D01*
X814048Y-1612571D02*
X823571Y-1650667D01*
X823571Y-1650667D02*
X823571Y-1698286D01*
X823571Y-1698286D02*
X814048Y-1736381D01*
X814048Y-1736381D02*
X804524Y-1755428D01*
X804524Y-1755428D02*
X795000Y-1764952D01*
X795000Y-1764952D02*
X775952Y-1774476D01*
X775952Y-1774476D02*
X756905Y-1774476D01*
X756905Y-1774476D02*
X737857Y-1764952D01*
X737857Y-1764952D02*
X728333Y-1755428D01*
X728333Y-1755428D02*
X718809Y-1736381D01*
X718809Y-1736381D02*
X709286Y-1698286D01*
X709286Y-1698286D02*
X709286Y-1650667D01*
X709286Y-1650667D02*
X718809Y-1612571D01*
X718809Y-1612571D02*
X728333Y-1593524D01*
X728333Y-1593524D02*
X737857Y-1584000D01*
X737857Y-1584000D02*
X756905Y-1574476D01*
X947381Y-1574476D02*
X966429Y-1574476D01*
X966429Y-1574476D02*
X985476Y-1584000D01*
X985476Y-1584000D02*
X995000Y-1593524D01*
X995000Y-1593524D02*
X1004524Y-1612571D01*
X1004524Y-1612571D02*
X1014048Y-1650667D01*
X1014048Y-1650667D02*
X1014048Y-1698286D01*
X1014048Y-1698286D02*
X1004524Y-1736381D01*
X1004524Y-1736381D02*
X995000Y-1755428D01*
X995000Y-1755428D02*
X985476Y-1764952D01*
X985476Y-1764952D02*
X966429Y-1774476D01*
X966429Y-1774476D02*
X947381Y-1774476D01*
X947381Y-1774476D02*
X928333Y-1764952D01*
X928333Y-1764952D02*
X918809Y-1755428D01*
X918809Y-1755428D02*
X909286Y-1736381D01*
X909286Y-1736381D02*
X899762Y-1698286D01*
X899762Y-1698286D02*
X899762Y-1650667D01*
X899762Y-1650667D02*
X909286Y-1612571D01*
X909286Y-1612571D02*
X918809Y-1593524D01*
X918809Y-1593524D02*
X928333Y-1584000D01*
X928333Y-1584000D02*
X947381Y-1574476D01*
X1099762Y-1774476D02*
X1099762Y-1641143D01*
X1099762Y-1660190D02*
X1109286Y-1650667D01*
X1109286Y-1650667D02*
X1128333Y-1641143D01*
X1128333Y-1641143D02*
X1156905Y-1641143D01*
X1156905Y-1641143D02*
X1175952Y-1650667D01*
X1175952Y-1650667D02*
X1185476Y-1669714D01*
X1185476Y-1669714D02*
X1185476Y-1774476D01*
X1185476Y-1669714D02*
X1195000Y-1650667D01*
X1195000Y-1650667D02*
X1214048Y-1641143D01*
X1214048Y-1641143D02*
X1242619Y-1641143D01*
X1242619Y-1641143D02*
X1261667Y-1650667D01*
X1261667Y-1650667D02*
X1271191Y-1669714D01*
X1271191Y-1669714D02*
X1271191Y-1774476D01*
X1366429Y-1774476D02*
X1366429Y-1641143D01*
X1366429Y-1660190D02*
X1375952Y-1650667D01*
X1375952Y-1650667D02*
X1395000Y-1641143D01*
X1395000Y-1641143D02*
X1423571Y-1641143D01*
X1423571Y-1641143D02*
X1442619Y-1650667D01*
X1442619Y-1650667D02*
X1452143Y-1669714D01*
X1452143Y-1669714D02*
X1452143Y-1774476D01*
X1452143Y-1669714D02*
X1461667Y-1650667D01*
X1461667Y-1650667D02*
X1480714Y-1641143D01*
X1480714Y-1641143D02*
X1509286Y-1641143D01*
X1509286Y-1641143D02*
X1528333Y-1650667D01*
X1528333Y-1650667D02*
X1537857Y-1669714D01*
X1537857Y-1669714D02*
X1537857Y-1774476D01*
X1895952Y-1564952D02*
X1724524Y-1822095D01*
X2120714Y-1574476D02*
X2139762Y-1574476D01*
X2139762Y-1574476D02*
X2158810Y-1584000D01*
X2158810Y-1584000D02*
X2168333Y-1593524D01*
X2168333Y-1593524D02*
X2177857Y-1612571D01*
X2177857Y-1612571D02*
X2187381Y-1650667D01*
X2187381Y-1650667D02*
X2187381Y-1698286D01*
X2187381Y-1698286D02*
X2177857Y-1736381D01*
X2177857Y-1736381D02*
X2168333Y-1755428D01*
X2168333Y-1755428D02*
X2158810Y-1764952D01*
X2158810Y-1764952D02*
X2139762Y-1774476D01*
X2139762Y-1774476D02*
X2120714Y-1774476D01*
X2120714Y-1774476D02*
X2101667Y-1764952D01*
X2101667Y-1764952D02*
X2092143Y-1755428D01*
X2092143Y-1755428D02*
X2082619Y-1736381D01*
X2082619Y-1736381D02*
X2073095Y-1698286D01*
X2073095Y-1698286D02*
X2073095Y-1650667D01*
X2073095Y-1650667D02*
X2082619Y-1612571D01*
X2082619Y-1612571D02*
X2092143Y-1593524D01*
X2092143Y-1593524D02*
X2101667Y-1584000D01*
X2101667Y-1584000D02*
X2120714Y-1574476D01*
X2273095Y-1755428D02*
X2282619Y-1764952D01*
X2282619Y-1764952D02*
X2273095Y-1774476D01*
X2273095Y-1774476D02*
X2263572Y-1764952D01*
X2263572Y-1764952D02*
X2273095Y-1755428D01*
X2273095Y-1755428D02*
X2273095Y-1774476D01*
X2406429Y-1574476D02*
X2425476Y-1574476D01*
X2425476Y-1574476D02*
X2444524Y-1584000D01*
X2444524Y-1584000D02*
X2454048Y-1593524D01*
X2454048Y-1593524D02*
X2463572Y-1612571D01*
X2463572Y-1612571D02*
X2473095Y-1650667D01*
X2473095Y-1650667D02*
X2473095Y-1698286D01*
X2473095Y-1698286D02*
X2463572Y-1736381D01*
X2463572Y-1736381D02*
X2454048Y-1755428D01*
X2454048Y-1755428D02*
X2444524Y-1764952D01*
X2444524Y-1764952D02*
X2425476Y-1774476D01*
X2425476Y-1774476D02*
X2406429Y-1774476D01*
X2406429Y-1774476D02*
X2387381Y-1764952D01*
X2387381Y-1764952D02*
X2377857Y-1755428D01*
X2377857Y-1755428D02*
X2368333Y-1736381D01*
X2368333Y-1736381D02*
X2358810Y-1698286D01*
X2358810Y-1698286D02*
X2358810Y-1650667D01*
X2358810Y-1650667D02*
X2368333Y-1612571D01*
X2368333Y-1612571D02*
X2377857Y-1593524D01*
X2377857Y-1593524D02*
X2387381Y-1584000D01*
X2387381Y-1584000D02*
X2406429Y-1574476D01*
X2539762Y-1574476D02*
X2663572Y-1574476D01*
X2663572Y-1574476D02*
X2596905Y-1650667D01*
X2596905Y-1650667D02*
X2625476Y-1650667D01*
X2625476Y-1650667D02*
X2644524Y-1660190D01*
X2644524Y-1660190D02*
X2654048Y-1669714D01*
X2654048Y-1669714D02*
X2663572Y-1688762D01*
X2663572Y-1688762D02*
X2663572Y-1736381D01*
X2663572Y-1736381D02*
X2654048Y-1755428D01*
X2654048Y-1755428D02*
X2644524Y-1764952D01*
X2644524Y-1764952D02*
X2625476Y-1774476D01*
X2625476Y-1774476D02*
X2568333Y-1774476D01*
X2568333Y-1774476D02*
X2549286Y-1764952D01*
X2549286Y-1764952D02*
X2539762Y-1755428D01*
X2758810Y-1774476D02*
X2796905Y-1774476D01*
X2796905Y-1774476D02*
X2815952Y-1764952D01*
X2815952Y-1764952D02*
X2825476Y-1755428D01*
X2825476Y-1755428D02*
X2844524Y-1726857D01*
X2844524Y-1726857D02*
X2854048Y-1688762D01*
X2854048Y-1688762D02*
X2854048Y-1612571D01*
X2854048Y-1612571D02*
X2844524Y-1593524D01*
X2844524Y-1593524D02*
X2835000Y-1584000D01*
X2835000Y-1584000D02*
X2815952Y-1574476D01*
X2815952Y-1574476D02*
X2777857Y-1574476D01*
X2777857Y-1574476D02*
X2758810Y-1584000D01*
X2758810Y-1584000D02*
X2749286Y-1593524D01*
X2749286Y-1593524D02*
X2739762Y-1612571D01*
X2739762Y-1612571D02*
X2739762Y-1660190D01*
X2739762Y-1660190D02*
X2749286Y-1679238D01*
X2749286Y-1679238D02*
X2758810Y-1688762D01*
X2758810Y-1688762D02*
X2777857Y-1698286D01*
X2777857Y-1698286D02*
X2815952Y-1698286D01*
X2815952Y-1698286D02*
X2835000Y-1688762D01*
X2835000Y-1688762D02*
X2844524Y-1679238D01*
X2844524Y-1679238D02*
X2854048Y-1660190D01*
X3025476Y-1641143D02*
X3025476Y-1774476D01*
X2977857Y-1564952D02*
X2930238Y-1707809D01*
X2930238Y-1707809D02*
X3054048Y-1707809D01*
X3120714Y-1574476D02*
X3120714Y-1612571D01*
X3196905Y-1574476D02*
X3196905Y-1612571D01*
X3459762Y-1850667D02*
X3450238Y-1841143D01*
X3450238Y-1841143D02*
X3431191Y-1812571D01*
X3431191Y-1812571D02*
X3421667Y-1793524D01*
X3421667Y-1793524D02*
X3412143Y-1764952D01*
X3412143Y-1764952D02*
X3402619Y-1717333D01*
X3402619Y-1717333D02*
X3402619Y-1679238D01*
X3402619Y-1679238D02*
X3412143Y-1631619D01*
X3412143Y-1631619D02*
X3421667Y-1603048D01*
X3421667Y-1603048D02*
X3431191Y-1584000D01*
X3431191Y-1584000D02*
X3450238Y-1555428D01*
X3450238Y-1555428D02*
X3459762Y-1545905D01*
X3640714Y-1774476D02*
X3526429Y-1774476D01*
X3583571Y-1774476D02*
X3583571Y-1574476D01*
X3583571Y-1574476D02*
X3564524Y-1603048D01*
X3564524Y-1603048D02*
X3545476Y-1622095D01*
X3545476Y-1622095D02*
X3526429Y-1631619D01*
X3764524Y-1574476D02*
X3783572Y-1574476D01*
X3783572Y-1574476D02*
X3802619Y-1584000D01*
X3802619Y-1584000D02*
X3812143Y-1593524D01*
X3812143Y-1593524D02*
X3821667Y-1612571D01*
X3821667Y-1612571D02*
X3831191Y-1650667D01*
X3831191Y-1650667D02*
X3831191Y-1698286D01*
X3831191Y-1698286D02*
X3821667Y-1736381D01*
X3821667Y-1736381D02*
X3812143Y-1755428D01*
X3812143Y-1755428D02*
X3802619Y-1764952D01*
X3802619Y-1764952D02*
X3783572Y-1774476D01*
X3783572Y-1774476D02*
X3764524Y-1774476D01*
X3764524Y-1774476D02*
X3745476Y-1764952D01*
X3745476Y-1764952D02*
X3735952Y-1755428D01*
X3735952Y-1755428D02*
X3726429Y-1736381D01*
X3726429Y-1736381D02*
X3716905Y-1698286D01*
X3716905Y-1698286D02*
X3716905Y-1650667D01*
X3716905Y-1650667D02*
X3726429Y-1612571D01*
X3726429Y-1612571D02*
X3735952Y-1593524D01*
X3735952Y-1593524D02*
X3745476Y-1584000D01*
X3745476Y-1584000D02*
X3764524Y-1574476D01*
X3955000Y-1574476D02*
X3974048Y-1574476D01*
X3974048Y-1574476D02*
X3993095Y-1584000D01*
X3993095Y-1584000D02*
X4002619Y-1593524D01*
X4002619Y-1593524D02*
X4012143Y-1612571D01*
X4012143Y-1612571D02*
X4021667Y-1650667D01*
X4021667Y-1650667D02*
X4021667Y-1698286D01*
X4021667Y-1698286D02*
X4012143Y-1736381D01*
X4012143Y-1736381D02*
X4002619Y-1755428D01*
X4002619Y-1755428D02*
X3993095Y-1764952D01*
X3993095Y-1764952D02*
X3974048Y-1774476D01*
X3974048Y-1774476D02*
X3955000Y-1774476D01*
X3955000Y-1774476D02*
X3935952Y-1764952D01*
X3935952Y-1764952D02*
X3926429Y-1755428D01*
X3926429Y-1755428D02*
X3916905Y-1736381D01*
X3916905Y-1736381D02*
X3907381Y-1698286D01*
X3907381Y-1698286D02*
X3907381Y-1650667D01*
X3907381Y-1650667D02*
X3916905Y-1612571D01*
X3916905Y-1612571D02*
X3926429Y-1593524D01*
X3926429Y-1593524D02*
X3935952Y-1584000D01*
X3935952Y-1584000D02*
X3955000Y-1574476D01*
X4227381Y-1774476D02*
X4227381Y-1574476D01*
X4313095Y-1774476D02*
X4313095Y-1669714D01*
X4313095Y-1669714D02*
X4303572Y-1650667D01*
X4303572Y-1650667D02*
X4284524Y-1641143D01*
X4284524Y-1641143D02*
X4255953Y-1641143D01*
X4255953Y-1641143D02*
X4236905Y-1650667D01*
X4236905Y-1650667D02*
X4227381Y-1660190D01*
X4436905Y-1774476D02*
X4417857Y-1764952D01*
X4417857Y-1764952D02*
X4408334Y-1755428D01*
X4408334Y-1755428D02*
X4398810Y-1736381D01*
X4398810Y-1736381D02*
X4398810Y-1679238D01*
X4398810Y-1679238D02*
X4408334Y-1660190D01*
X4408334Y-1660190D02*
X4417857Y-1650667D01*
X4417857Y-1650667D02*
X4436905Y-1641143D01*
X4436905Y-1641143D02*
X4465476Y-1641143D01*
X4465476Y-1641143D02*
X4484524Y-1650667D01*
X4484524Y-1650667D02*
X4494048Y-1660190D01*
X4494048Y-1660190D02*
X4503572Y-1679238D01*
X4503572Y-1679238D02*
X4503572Y-1736381D01*
X4503572Y-1736381D02*
X4494048Y-1755428D01*
X4494048Y-1755428D02*
X4484524Y-1764952D01*
X4484524Y-1764952D02*
X4465476Y-1774476D01*
X4465476Y-1774476D02*
X4436905Y-1774476D01*
X4617857Y-1774476D02*
X4598810Y-1764952D01*
X4598810Y-1764952D02*
X4589286Y-1745905D01*
X4589286Y-1745905D02*
X4589286Y-1574476D01*
X4770238Y-1764952D02*
X4751191Y-1774476D01*
X4751191Y-1774476D02*
X4713095Y-1774476D01*
X4713095Y-1774476D02*
X4694048Y-1764952D01*
X4694048Y-1764952D02*
X4684524Y-1745905D01*
X4684524Y-1745905D02*
X4684524Y-1669714D01*
X4684524Y-1669714D02*
X4694048Y-1650667D01*
X4694048Y-1650667D02*
X4713095Y-1641143D01*
X4713095Y-1641143D02*
X4751191Y-1641143D01*
X4751191Y-1641143D02*
X4770238Y-1650667D01*
X4770238Y-1650667D02*
X4779762Y-1669714D01*
X4779762Y-1669714D02*
X4779762Y-1688762D01*
X4779762Y-1688762D02*
X4684524Y-1707809D01*
X4855953Y-1764952D02*
X4875000Y-1774476D01*
X4875000Y-1774476D02*
X4913095Y-1774476D01*
X4913095Y-1774476D02*
X4932143Y-1764952D01*
X4932143Y-1764952D02*
X4941667Y-1745905D01*
X4941667Y-1745905D02*
X4941667Y-1736381D01*
X4941667Y-1736381D02*
X4932143Y-1717333D01*
X4932143Y-1717333D02*
X4913095Y-1707809D01*
X4913095Y-1707809D02*
X4884524Y-1707809D01*
X4884524Y-1707809D02*
X4865476Y-1698286D01*
X4865476Y-1698286D02*
X4855953Y-1679238D01*
X4855953Y-1679238D02*
X4855953Y-1669714D01*
X4855953Y-1669714D02*
X4865476Y-1650667D01*
X4865476Y-1650667D02*
X4884524Y-1641143D01*
X4884524Y-1641143D02*
X4913095Y-1641143D01*
X4913095Y-1641143D02*
X4932143Y-1650667D01*
X5147381Y-1698286D02*
X5299762Y-1698286D01*
X5223572Y-1774476D02*
X5223572Y-1622095D01*
X5495953Y-1574476D02*
X5619762Y-1574476D01*
X5619762Y-1574476D02*
X5553095Y-1650667D01*
X5553095Y-1650667D02*
X5581667Y-1650667D01*
X5581667Y-1650667D02*
X5600714Y-1660190D01*
X5600714Y-1660190D02*
X5610238Y-1669714D01*
X5610238Y-1669714D02*
X5619762Y-1688762D01*
X5619762Y-1688762D02*
X5619762Y-1736381D01*
X5619762Y-1736381D02*
X5610238Y-1755428D01*
X5610238Y-1755428D02*
X5600714Y-1764952D01*
X5600714Y-1764952D02*
X5581667Y-1774476D01*
X5581667Y-1774476D02*
X5524524Y-1774476D01*
X5524524Y-1774476D02*
X5505476Y-1764952D01*
X5505476Y-1764952D02*
X5495953Y-1755428D01*
X5815953Y-1764952D02*
X5835000Y-1774476D01*
X5835000Y-1774476D02*
X5873095Y-1774476D01*
X5873095Y-1774476D02*
X5892143Y-1764952D01*
X5892143Y-1764952D02*
X5901667Y-1745905D01*
X5901667Y-1745905D02*
X5901667Y-1736381D01*
X5901667Y-1736381D02*
X5892143Y-1717333D01*
X5892143Y-1717333D02*
X5873095Y-1707809D01*
X5873095Y-1707809D02*
X5844524Y-1707809D01*
X5844524Y-1707809D02*
X5825476Y-1698286D01*
X5825476Y-1698286D02*
X5815953Y-1679238D01*
X5815953Y-1679238D02*
X5815953Y-1669714D01*
X5815953Y-1669714D02*
X5825476Y-1650667D01*
X5825476Y-1650667D02*
X5844524Y-1641143D01*
X5844524Y-1641143D02*
X5873095Y-1641143D01*
X5873095Y-1641143D02*
X5892143Y-1650667D01*
X6015953Y-1774476D02*
X5996905Y-1764952D01*
X5996905Y-1764952D02*
X5987381Y-1745905D01*
X5987381Y-1745905D02*
X5987381Y-1574476D01*
X6120714Y-1774476D02*
X6101667Y-1764952D01*
X6101667Y-1764952D02*
X6092143Y-1755428D01*
X6092143Y-1755428D02*
X6082619Y-1736381D01*
X6082619Y-1736381D02*
X6082619Y-1679238D01*
X6082619Y-1679238D02*
X6092143Y-1660190D01*
X6092143Y-1660190D02*
X6101667Y-1650667D01*
X6101667Y-1650667D02*
X6120714Y-1641143D01*
X6120714Y-1641143D02*
X6149286Y-1641143D01*
X6149286Y-1641143D02*
X6168334Y-1650667D01*
X6168334Y-1650667D02*
X6177857Y-1660190D01*
X6177857Y-1660190D02*
X6187381Y-1679238D01*
X6187381Y-1679238D02*
X6187381Y-1736381D01*
X6187381Y-1736381D02*
X6177857Y-1755428D01*
X6177857Y-1755428D02*
X6168334Y-1764952D01*
X6168334Y-1764952D02*
X6149286Y-1774476D01*
X6149286Y-1774476D02*
X6120714Y-1774476D01*
X6244524Y-1641143D02*
X6320714Y-1641143D01*
X6273095Y-1574476D02*
X6273095Y-1745905D01*
X6273095Y-1745905D02*
X6282619Y-1764952D01*
X6282619Y-1764952D02*
X6301667Y-1774476D01*
X6301667Y-1774476D02*
X6320714Y-1774476D01*
X6377857Y-1764952D02*
X6396905Y-1774476D01*
X6396905Y-1774476D02*
X6435000Y-1774476D01*
X6435000Y-1774476D02*
X6454048Y-1764952D01*
X6454048Y-1764952D02*
X6463572Y-1745905D01*
X6463572Y-1745905D02*
X6463572Y-1736381D01*
X6463572Y-1736381D02*
X6454048Y-1717333D01*
X6454048Y-1717333D02*
X6435000Y-1707809D01*
X6435000Y-1707809D02*
X6406429Y-1707809D01*
X6406429Y-1707809D02*
X6387381Y-1698286D01*
X6387381Y-1698286D02*
X6377857Y-1679238D01*
X6377857Y-1679238D02*
X6377857Y-1669714D01*
X6377857Y-1669714D02*
X6387381Y-1650667D01*
X6387381Y-1650667D02*
X6406429Y-1641143D01*
X6406429Y-1641143D02*
X6435000Y-1641143D01*
X6435000Y-1641143D02*
X6454048Y-1650667D01*
X6530238Y-1850667D02*
X6539762Y-1841143D01*
X6539762Y-1841143D02*
X6558810Y-1812571D01*
X6558810Y-1812571D02*
X6568334Y-1793524D01*
X6568334Y-1793524D02*
X6577857Y-1764952D01*
X6577857Y-1764952D02*
X6587381Y-1717333D01*
X6587381Y-1717333D02*
X6587381Y-1679238D01*
X6587381Y-1679238D02*
X6577857Y-1631619D01*
X6577857Y-1631619D02*
X6568334Y-1603048D01*
X6568334Y-1603048D02*
X6558810Y-1584000D01*
X6558810Y-1584000D02*
X6539762Y-1555428D01*
X6539762Y-1555428D02*
X6530238Y-1545905D01*
D16*
X-115000Y-1910000D02*
X-5000Y-2020000D01*
X-5000Y-1910000D02*
X-115000Y-2020000D01*
X-5000Y-1965000D02*
G75*
G03*
X-5000Y-1965000I-55000J0D01*
G01*
D11*
X347381Y-2038476D02*
X233095Y-2038476D01*
X290238Y-2038476D02*
X290238Y-1838476D01*
X290238Y-1838476D02*
X271190Y-1867048D01*
X271190Y-1867048D02*
X252143Y-1886095D01*
X252143Y-1886095D02*
X233095Y-1895619D01*
X433095Y-2019428D02*
X442619Y-2028952D01*
X442619Y-2028952D02*
X433095Y-2038476D01*
X433095Y-2038476D02*
X423571Y-2028952D01*
X423571Y-2028952D02*
X433095Y-2019428D01*
X433095Y-2019428D02*
X433095Y-2038476D01*
X633095Y-2038476D02*
X518809Y-2038476D01*
X575952Y-2038476D02*
X575952Y-1838476D01*
X575952Y-1838476D02*
X556905Y-1867048D01*
X556905Y-1867048D02*
X537857Y-1886095D01*
X537857Y-1886095D02*
X518809Y-1895619D01*
X756905Y-1838476D02*
X775952Y-1838476D01*
X775952Y-1838476D02*
X795000Y-1848000D01*
X795000Y-1848000D02*
X804524Y-1857524D01*
X804524Y-1857524D02*
X814048Y-1876571D01*
X814048Y-1876571D02*
X823571Y-1914667D01*
X823571Y-1914667D02*
X823571Y-1962286D01*
X823571Y-1962286D02*
X814048Y-2000381D01*
X814048Y-2000381D02*
X804524Y-2019428D01*
X804524Y-2019428D02*
X795000Y-2028952D01*
X795000Y-2028952D02*
X775952Y-2038476D01*
X775952Y-2038476D02*
X756905Y-2038476D01*
X756905Y-2038476D02*
X737857Y-2028952D01*
X737857Y-2028952D02*
X728333Y-2019428D01*
X728333Y-2019428D02*
X718809Y-2000381D01*
X718809Y-2000381D02*
X709286Y-1962286D01*
X709286Y-1962286D02*
X709286Y-1914667D01*
X709286Y-1914667D02*
X718809Y-1876571D01*
X718809Y-1876571D02*
X728333Y-1857524D01*
X728333Y-1857524D02*
X737857Y-1848000D01*
X737857Y-1848000D02*
X756905Y-1838476D01*
X947381Y-1838476D02*
X966429Y-1838476D01*
X966429Y-1838476D02*
X985476Y-1848000D01*
X985476Y-1848000D02*
X995000Y-1857524D01*
X995000Y-1857524D02*
X1004524Y-1876571D01*
X1004524Y-1876571D02*
X1014048Y-1914667D01*
X1014048Y-1914667D02*
X1014048Y-1962286D01*
X1014048Y-1962286D02*
X1004524Y-2000381D01*
X1004524Y-2000381D02*
X995000Y-2019428D01*
X995000Y-2019428D02*
X985476Y-2028952D01*
X985476Y-2028952D02*
X966429Y-2038476D01*
X966429Y-2038476D02*
X947381Y-2038476D01*
X947381Y-2038476D02*
X928333Y-2028952D01*
X928333Y-2028952D02*
X918809Y-2019428D01*
X918809Y-2019428D02*
X909286Y-2000381D01*
X909286Y-2000381D02*
X899762Y-1962286D01*
X899762Y-1962286D02*
X899762Y-1914667D01*
X899762Y-1914667D02*
X909286Y-1876571D01*
X909286Y-1876571D02*
X918809Y-1857524D01*
X918809Y-1857524D02*
X928333Y-1848000D01*
X928333Y-1848000D02*
X947381Y-1838476D01*
X1099762Y-2038476D02*
X1099762Y-1905143D01*
X1099762Y-1924190D02*
X1109286Y-1914667D01*
X1109286Y-1914667D02*
X1128333Y-1905143D01*
X1128333Y-1905143D02*
X1156905Y-1905143D01*
X1156905Y-1905143D02*
X1175952Y-1914667D01*
X1175952Y-1914667D02*
X1185476Y-1933714D01*
X1185476Y-1933714D02*
X1185476Y-2038476D01*
X1185476Y-1933714D02*
X1195000Y-1914667D01*
X1195000Y-1914667D02*
X1214048Y-1905143D01*
X1214048Y-1905143D02*
X1242619Y-1905143D01*
X1242619Y-1905143D02*
X1261667Y-1914667D01*
X1261667Y-1914667D02*
X1271191Y-1933714D01*
X1271191Y-1933714D02*
X1271191Y-2038476D01*
X1366429Y-2038476D02*
X1366429Y-1905143D01*
X1366429Y-1924190D02*
X1375952Y-1914667D01*
X1375952Y-1914667D02*
X1395000Y-1905143D01*
X1395000Y-1905143D02*
X1423571Y-1905143D01*
X1423571Y-1905143D02*
X1442619Y-1914667D01*
X1442619Y-1914667D02*
X1452143Y-1933714D01*
X1452143Y-1933714D02*
X1452143Y-2038476D01*
X1452143Y-1933714D02*
X1461667Y-1914667D01*
X1461667Y-1914667D02*
X1480714Y-1905143D01*
X1480714Y-1905143D02*
X1509286Y-1905143D01*
X1509286Y-1905143D02*
X1528333Y-1914667D01*
X1528333Y-1914667D02*
X1537857Y-1933714D01*
X1537857Y-1933714D02*
X1537857Y-2038476D01*
X1895952Y-1828952D02*
X1724524Y-2086095D01*
X2120714Y-1838476D02*
X2139762Y-1838476D01*
X2139762Y-1838476D02*
X2158810Y-1848000D01*
X2158810Y-1848000D02*
X2168333Y-1857524D01*
X2168333Y-1857524D02*
X2177857Y-1876571D01*
X2177857Y-1876571D02*
X2187381Y-1914667D01*
X2187381Y-1914667D02*
X2187381Y-1962286D01*
X2187381Y-1962286D02*
X2177857Y-2000381D01*
X2177857Y-2000381D02*
X2168333Y-2019428D01*
X2168333Y-2019428D02*
X2158810Y-2028952D01*
X2158810Y-2028952D02*
X2139762Y-2038476D01*
X2139762Y-2038476D02*
X2120714Y-2038476D01*
X2120714Y-2038476D02*
X2101667Y-2028952D01*
X2101667Y-2028952D02*
X2092143Y-2019428D01*
X2092143Y-2019428D02*
X2082619Y-2000381D01*
X2082619Y-2000381D02*
X2073095Y-1962286D01*
X2073095Y-1962286D02*
X2073095Y-1914667D01*
X2073095Y-1914667D02*
X2082619Y-1876571D01*
X2082619Y-1876571D02*
X2092143Y-1857524D01*
X2092143Y-1857524D02*
X2101667Y-1848000D01*
X2101667Y-1848000D02*
X2120714Y-1838476D01*
X2273095Y-2019428D02*
X2282619Y-2028952D01*
X2282619Y-2028952D02*
X2273095Y-2038476D01*
X2273095Y-2038476D02*
X2263572Y-2028952D01*
X2263572Y-2028952D02*
X2273095Y-2019428D01*
X2273095Y-2019428D02*
X2273095Y-2038476D01*
X2406429Y-1838476D02*
X2425476Y-1838476D01*
X2425476Y-1838476D02*
X2444524Y-1848000D01*
X2444524Y-1848000D02*
X2454048Y-1857524D01*
X2454048Y-1857524D02*
X2463572Y-1876571D01*
X2463572Y-1876571D02*
X2473095Y-1914667D01*
X2473095Y-1914667D02*
X2473095Y-1962286D01*
X2473095Y-1962286D02*
X2463572Y-2000381D01*
X2463572Y-2000381D02*
X2454048Y-2019428D01*
X2454048Y-2019428D02*
X2444524Y-2028952D01*
X2444524Y-2028952D02*
X2425476Y-2038476D01*
X2425476Y-2038476D02*
X2406429Y-2038476D01*
X2406429Y-2038476D02*
X2387381Y-2028952D01*
X2387381Y-2028952D02*
X2377857Y-2019428D01*
X2377857Y-2019428D02*
X2368333Y-2000381D01*
X2368333Y-2000381D02*
X2358810Y-1962286D01*
X2358810Y-1962286D02*
X2358810Y-1914667D01*
X2358810Y-1914667D02*
X2368333Y-1876571D01*
X2368333Y-1876571D02*
X2377857Y-1857524D01*
X2377857Y-1857524D02*
X2387381Y-1848000D01*
X2387381Y-1848000D02*
X2406429Y-1838476D01*
X2644524Y-1905143D02*
X2644524Y-2038476D01*
X2596905Y-1828952D02*
X2549286Y-1971809D01*
X2549286Y-1971809D02*
X2673095Y-1971809D01*
X2730238Y-1838476D02*
X2854048Y-1838476D01*
X2854048Y-1838476D02*
X2787381Y-1914667D01*
X2787381Y-1914667D02*
X2815952Y-1914667D01*
X2815952Y-1914667D02*
X2835000Y-1924190D01*
X2835000Y-1924190D02*
X2844524Y-1933714D01*
X2844524Y-1933714D02*
X2854048Y-1952762D01*
X2854048Y-1952762D02*
X2854048Y-2000381D01*
X2854048Y-2000381D02*
X2844524Y-2019428D01*
X2844524Y-2019428D02*
X2835000Y-2028952D01*
X2835000Y-2028952D02*
X2815952Y-2038476D01*
X2815952Y-2038476D02*
X2758810Y-2038476D01*
X2758810Y-2038476D02*
X2739762Y-2028952D01*
X2739762Y-2028952D02*
X2730238Y-2019428D01*
X2920714Y-1838476D02*
X3044524Y-1838476D01*
X3044524Y-1838476D02*
X2977857Y-1914667D01*
X2977857Y-1914667D02*
X3006429Y-1914667D01*
X3006429Y-1914667D02*
X3025476Y-1924190D01*
X3025476Y-1924190D02*
X3035000Y-1933714D01*
X3035000Y-1933714D02*
X3044524Y-1952762D01*
X3044524Y-1952762D02*
X3044524Y-2000381D01*
X3044524Y-2000381D02*
X3035000Y-2019428D01*
X3035000Y-2019428D02*
X3025476Y-2028952D01*
X3025476Y-2028952D02*
X3006429Y-2038476D01*
X3006429Y-2038476D02*
X2949286Y-2038476D01*
X2949286Y-2038476D02*
X2930238Y-2028952D01*
X2930238Y-2028952D02*
X2920714Y-2019428D01*
X3120714Y-1838476D02*
X3120714Y-1876571D01*
X3196905Y-1838476D02*
X3196905Y-1876571D01*
X3459762Y-2114667D02*
X3450238Y-2105143D01*
X3450238Y-2105143D02*
X3431191Y-2076571D01*
X3431191Y-2076571D02*
X3421667Y-2057524D01*
X3421667Y-2057524D02*
X3412143Y-2028952D01*
X3412143Y-2028952D02*
X3402619Y-1981333D01*
X3402619Y-1981333D02*
X3402619Y-1943238D01*
X3402619Y-1943238D02*
X3412143Y-1895619D01*
X3412143Y-1895619D02*
X3421667Y-1867048D01*
X3421667Y-1867048D02*
X3431191Y-1848000D01*
X3431191Y-1848000D02*
X3450238Y-1819428D01*
X3450238Y-1819428D02*
X3459762Y-1809905D01*
X3526429Y-1857524D02*
X3535952Y-1848000D01*
X3535952Y-1848000D02*
X3555000Y-1838476D01*
X3555000Y-1838476D02*
X3602619Y-1838476D01*
X3602619Y-1838476D02*
X3621667Y-1848000D01*
X3621667Y-1848000D02*
X3631191Y-1857524D01*
X3631191Y-1857524D02*
X3640714Y-1876571D01*
X3640714Y-1876571D02*
X3640714Y-1895619D01*
X3640714Y-1895619D02*
X3631191Y-1924190D01*
X3631191Y-1924190D02*
X3516905Y-2038476D01*
X3516905Y-2038476D02*
X3640714Y-2038476D01*
X3764524Y-1838476D02*
X3783572Y-1838476D01*
X3783572Y-1838476D02*
X3802619Y-1848000D01*
X3802619Y-1848000D02*
X3812143Y-1857524D01*
X3812143Y-1857524D02*
X3821667Y-1876571D01*
X3821667Y-1876571D02*
X3831191Y-1914667D01*
X3831191Y-1914667D02*
X3831191Y-1962286D01*
X3831191Y-1962286D02*
X3821667Y-2000381D01*
X3821667Y-2000381D02*
X3812143Y-2019428D01*
X3812143Y-2019428D02*
X3802619Y-2028952D01*
X3802619Y-2028952D02*
X3783572Y-2038476D01*
X3783572Y-2038476D02*
X3764524Y-2038476D01*
X3764524Y-2038476D02*
X3745476Y-2028952D01*
X3745476Y-2028952D02*
X3735952Y-2019428D01*
X3735952Y-2019428D02*
X3726429Y-2000381D01*
X3726429Y-2000381D02*
X3716905Y-1962286D01*
X3716905Y-1962286D02*
X3716905Y-1914667D01*
X3716905Y-1914667D02*
X3726429Y-1876571D01*
X3726429Y-1876571D02*
X3735952Y-1857524D01*
X3735952Y-1857524D02*
X3745476Y-1848000D01*
X3745476Y-1848000D02*
X3764524Y-1838476D01*
X4036905Y-2038476D02*
X4036905Y-1838476D01*
X4122619Y-2038476D02*
X4122619Y-1933714D01*
X4122619Y-1933714D02*
X4113095Y-1914667D01*
X4113095Y-1914667D02*
X4094048Y-1905143D01*
X4094048Y-1905143D02*
X4065476Y-1905143D01*
X4065476Y-1905143D02*
X4046429Y-1914667D01*
X4046429Y-1914667D02*
X4036905Y-1924190D01*
X4246429Y-2038476D02*
X4227381Y-2028952D01*
X4227381Y-2028952D02*
X4217857Y-2019428D01*
X4217857Y-2019428D02*
X4208334Y-2000381D01*
X4208334Y-2000381D02*
X4208334Y-1943238D01*
X4208334Y-1943238D02*
X4217857Y-1924190D01*
X4217857Y-1924190D02*
X4227381Y-1914667D01*
X4227381Y-1914667D02*
X4246429Y-1905143D01*
X4246429Y-1905143D02*
X4275000Y-1905143D01*
X4275000Y-1905143D02*
X4294048Y-1914667D01*
X4294048Y-1914667D02*
X4303572Y-1924190D01*
X4303572Y-1924190D02*
X4313095Y-1943238D01*
X4313095Y-1943238D02*
X4313095Y-2000381D01*
X4313095Y-2000381D02*
X4303572Y-2019428D01*
X4303572Y-2019428D02*
X4294048Y-2028952D01*
X4294048Y-2028952D02*
X4275000Y-2038476D01*
X4275000Y-2038476D02*
X4246429Y-2038476D01*
X4427381Y-2038476D02*
X4408334Y-2028952D01*
X4408334Y-2028952D02*
X4398810Y-2009905D01*
X4398810Y-2009905D02*
X4398810Y-1838476D01*
X4579762Y-2028952D02*
X4560715Y-2038476D01*
X4560715Y-2038476D02*
X4522619Y-2038476D01*
X4522619Y-2038476D02*
X4503572Y-2028952D01*
X4503572Y-2028952D02*
X4494048Y-2009905D01*
X4494048Y-2009905D02*
X4494048Y-1933714D01*
X4494048Y-1933714D02*
X4503572Y-1914667D01*
X4503572Y-1914667D02*
X4522619Y-1905143D01*
X4522619Y-1905143D02*
X4560715Y-1905143D01*
X4560715Y-1905143D02*
X4579762Y-1914667D01*
X4579762Y-1914667D02*
X4589286Y-1933714D01*
X4589286Y-1933714D02*
X4589286Y-1952762D01*
X4589286Y-1952762D02*
X4494048Y-1971809D01*
X4665476Y-2028952D02*
X4684524Y-2038476D01*
X4684524Y-2038476D02*
X4722619Y-2038476D01*
X4722619Y-2038476D02*
X4741667Y-2028952D01*
X4741667Y-2028952D02*
X4751191Y-2009905D01*
X4751191Y-2009905D02*
X4751191Y-2000381D01*
X4751191Y-2000381D02*
X4741667Y-1981333D01*
X4741667Y-1981333D02*
X4722619Y-1971809D01*
X4722619Y-1971809D02*
X4694048Y-1971809D01*
X4694048Y-1971809D02*
X4675000Y-1962286D01*
X4675000Y-1962286D02*
X4665476Y-1943238D01*
X4665476Y-1943238D02*
X4665476Y-1933714D01*
X4665476Y-1933714D02*
X4675000Y-1914667D01*
X4675000Y-1914667D02*
X4694048Y-1905143D01*
X4694048Y-1905143D02*
X4722619Y-1905143D01*
X4722619Y-1905143D02*
X4741667Y-1914667D01*
X4817857Y-2114667D02*
X4827381Y-2105143D01*
X4827381Y-2105143D02*
X4846429Y-2076571D01*
X4846429Y-2076571D02*
X4855953Y-2057524D01*
X4855953Y-2057524D02*
X4865476Y-2028952D01*
X4865476Y-2028952D02*
X4875000Y-1981333D01*
X4875000Y-1981333D02*
X4875000Y-1943238D01*
X4875000Y-1943238D02*
X4865476Y-1895619D01*
X4865476Y-1895619D02*
X4855953Y-1867048D01*
X4855953Y-1867048D02*
X4846429Y-1848000D01*
X4846429Y-1848000D02*
X4827381Y-1819428D01*
X4827381Y-1819428D02*
X4817857Y-1809905D01*
D17*
X-135000Y-2164000D02*
X-5000Y-2294000D01*
X-5000Y-2164000D02*
X-135000Y-2294000D01*
X-70000Y-2164000D02*
X-70000Y-2294000D01*
X-135000Y-2229000D02*
X-5000Y-2229000D01*
D11*
X347381Y-2302476D02*
X233095Y-2302476D01*
X290238Y-2302476D02*
X290238Y-2102476D01*
X290238Y-2102476D02*
X271190Y-2131048D01*
X271190Y-2131048D02*
X252143Y-2150095D01*
X252143Y-2150095D02*
X233095Y-2159619D01*
X433095Y-2283429D02*
X442619Y-2292952D01*
X442619Y-2292952D02*
X433095Y-2302476D01*
X433095Y-2302476D02*
X423571Y-2292952D01*
X423571Y-2292952D02*
X433095Y-2283429D01*
X433095Y-2283429D02*
X433095Y-2302476D01*
X509286Y-2102476D02*
X633095Y-2102476D01*
X633095Y-2102476D02*
X566429Y-2178667D01*
X566429Y-2178667D02*
X595000Y-2178667D01*
X595000Y-2178667D02*
X614048Y-2188190D01*
X614048Y-2188190D02*
X623571Y-2197714D01*
X623571Y-2197714D02*
X633095Y-2216762D01*
X633095Y-2216762D02*
X633095Y-2264381D01*
X633095Y-2264381D02*
X623571Y-2283429D01*
X623571Y-2283429D02*
X614048Y-2292952D01*
X614048Y-2292952D02*
X595000Y-2302476D01*
X595000Y-2302476D02*
X537857Y-2302476D01*
X537857Y-2302476D02*
X518809Y-2292952D01*
X518809Y-2292952D02*
X509286Y-2283429D01*
X756905Y-2102476D02*
X775952Y-2102476D01*
X775952Y-2102476D02*
X795000Y-2112000D01*
X795000Y-2112000D02*
X804524Y-2121524D01*
X804524Y-2121524D02*
X814048Y-2140571D01*
X814048Y-2140571D02*
X823571Y-2178667D01*
X823571Y-2178667D02*
X823571Y-2226286D01*
X823571Y-2226286D02*
X814048Y-2264381D01*
X814048Y-2264381D02*
X804524Y-2283429D01*
X804524Y-2283429D02*
X795000Y-2292952D01*
X795000Y-2292952D02*
X775952Y-2302476D01*
X775952Y-2302476D02*
X756905Y-2302476D01*
X756905Y-2302476D02*
X737857Y-2292952D01*
X737857Y-2292952D02*
X728333Y-2283429D01*
X728333Y-2283429D02*
X718809Y-2264381D01*
X718809Y-2264381D02*
X709286Y-2226286D01*
X709286Y-2226286D02*
X709286Y-2178667D01*
X709286Y-2178667D02*
X718809Y-2140571D01*
X718809Y-2140571D02*
X728333Y-2121524D01*
X728333Y-2121524D02*
X737857Y-2112000D01*
X737857Y-2112000D02*
X756905Y-2102476D01*
X947381Y-2102476D02*
X966429Y-2102476D01*
X966429Y-2102476D02*
X985476Y-2112000D01*
X985476Y-2112000D02*
X995000Y-2121524D01*
X995000Y-2121524D02*
X1004524Y-2140571D01*
X1004524Y-2140571D02*
X1014048Y-2178667D01*
X1014048Y-2178667D02*
X1014048Y-2226286D01*
X1014048Y-2226286D02*
X1004524Y-2264381D01*
X1004524Y-2264381D02*
X995000Y-2283429D01*
X995000Y-2283429D02*
X985476Y-2292952D01*
X985476Y-2292952D02*
X966429Y-2302476D01*
X966429Y-2302476D02*
X947381Y-2302476D01*
X947381Y-2302476D02*
X928333Y-2292952D01*
X928333Y-2292952D02*
X918809Y-2283429D01*
X918809Y-2283429D02*
X909286Y-2264381D01*
X909286Y-2264381D02*
X899762Y-2226286D01*
X899762Y-2226286D02*
X899762Y-2178667D01*
X899762Y-2178667D02*
X909286Y-2140571D01*
X909286Y-2140571D02*
X918809Y-2121524D01*
X918809Y-2121524D02*
X928333Y-2112000D01*
X928333Y-2112000D02*
X947381Y-2102476D01*
X1099762Y-2302476D02*
X1099762Y-2169143D01*
X1099762Y-2188190D02*
X1109286Y-2178667D01*
X1109286Y-2178667D02*
X1128333Y-2169143D01*
X1128333Y-2169143D02*
X1156905Y-2169143D01*
X1156905Y-2169143D02*
X1175952Y-2178667D01*
X1175952Y-2178667D02*
X1185476Y-2197714D01*
X1185476Y-2197714D02*
X1185476Y-2302476D01*
X1185476Y-2197714D02*
X1195000Y-2178667D01*
X1195000Y-2178667D02*
X1214048Y-2169143D01*
X1214048Y-2169143D02*
X1242619Y-2169143D01*
X1242619Y-2169143D02*
X1261667Y-2178667D01*
X1261667Y-2178667D02*
X1271191Y-2197714D01*
X1271191Y-2197714D02*
X1271191Y-2302476D01*
X1366429Y-2302476D02*
X1366429Y-2169143D01*
X1366429Y-2188190D02*
X1375952Y-2178667D01*
X1375952Y-2178667D02*
X1395000Y-2169143D01*
X1395000Y-2169143D02*
X1423571Y-2169143D01*
X1423571Y-2169143D02*
X1442619Y-2178667D01*
X1442619Y-2178667D02*
X1452143Y-2197714D01*
X1452143Y-2197714D02*
X1452143Y-2302476D01*
X1452143Y-2197714D02*
X1461667Y-2178667D01*
X1461667Y-2178667D02*
X1480714Y-2169143D01*
X1480714Y-2169143D02*
X1509286Y-2169143D01*
X1509286Y-2169143D02*
X1528333Y-2178667D01*
X1528333Y-2178667D02*
X1537857Y-2197714D01*
X1537857Y-2197714D02*
X1537857Y-2302476D01*
X1895952Y-2092952D02*
X1724524Y-2350095D01*
X2120714Y-2102476D02*
X2139762Y-2102476D01*
X2139762Y-2102476D02*
X2158810Y-2112000D01*
X2158810Y-2112000D02*
X2168333Y-2121524D01*
X2168333Y-2121524D02*
X2177857Y-2140571D01*
X2177857Y-2140571D02*
X2187381Y-2178667D01*
X2187381Y-2178667D02*
X2187381Y-2226286D01*
X2187381Y-2226286D02*
X2177857Y-2264381D01*
X2177857Y-2264381D02*
X2168333Y-2283429D01*
X2168333Y-2283429D02*
X2158810Y-2292952D01*
X2158810Y-2292952D02*
X2139762Y-2302476D01*
X2139762Y-2302476D02*
X2120714Y-2302476D01*
X2120714Y-2302476D02*
X2101667Y-2292952D01*
X2101667Y-2292952D02*
X2092143Y-2283429D01*
X2092143Y-2283429D02*
X2082619Y-2264381D01*
X2082619Y-2264381D02*
X2073095Y-2226286D01*
X2073095Y-2226286D02*
X2073095Y-2178667D01*
X2073095Y-2178667D02*
X2082619Y-2140571D01*
X2082619Y-2140571D02*
X2092143Y-2121524D01*
X2092143Y-2121524D02*
X2101667Y-2112000D01*
X2101667Y-2112000D02*
X2120714Y-2102476D01*
X2273095Y-2283429D02*
X2282619Y-2292952D01*
X2282619Y-2292952D02*
X2273095Y-2302476D01*
X2273095Y-2302476D02*
X2263572Y-2292952D01*
X2263572Y-2292952D02*
X2273095Y-2283429D01*
X2273095Y-2283429D02*
X2273095Y-2302476D01*
X2406429Y-2102476D02*
X2425476Y-2102476D01*
X2425476Y-2102476D02*
X2444524Y-2112000D01*
X2444524Y-2112000D02*
X2454048Y-2121524D01*
X2454048Y-2121524D02*
X2463572Y-2140571D01*
X2463572Y-2140571D02*
X2473095Y-2178667D01*
X2473095Y-2178667D02*
X2473095Y-2226286D01*
X2473095Y-2226286D02*
X2463572Y-2264381D01*
X2463572Y-2264381D02*
X2454048Y-2283429D01*
X2454048Y-2283429D02*
X2444524Y-2292952D01*
X2444524Y-2292952D02*
X2425476Y-2302476D01*
X2425476Y-2302476D02*
X2406429Y-2302476D01*
X2406429Y-2302476D02*
X2387381Y-2292952D01*
X2387381Y-2292952D02*
X2377857Y-2283429D01*
X2377857Y-2283429D02*
X2368333Y-2264381D01*
X2368333Y-2264381D02*
X2358810Y-2226286D01*
X2358810Y-2226286D02*
X2358810Y-2178667D01*
X2358810Y-2178667D02*
X2368333Y-2140571D01*
X2368333Y-2140571D02*
X2377857Y-2121524D01*
X2377857Y-2121524D02*
X2387381Y-2112000D01*
X2387381Y-2112000D02*
X2406429Y-2102476D01*
X2654048Y-2102476D02*
X2558810Y-2102476D01*
X2558810Y-2102476D02*
X2549286Y-2197714D01*
X2549286Y-2197714D02*
X2558810Y-2188190D01*
X2558810Y-2188190D02*
X2577857Y-2178667D01*
X2577857Y-2178667D02*
X2625476Y-2178667D01*
X2625476Y-2178667D02*
X2644524Y-2188190D01*
X2644524Y-2188190D02*
X2654048Y-2197714D01*
X2654048Y-2197714D02*
X2663572Y-2216762D01*
X2663572Y-2216762D02*
X2663572Y-2264381D01*
X2663572Y-2264381D02*
X2654048Y-2283429D01*
X2654048Y-2283429D02*
X2644524Y-2292952D01*
X2644524Y-2292952D02*
X2625476Y-2302476D01*
X2625476Y-2302476D02*
X2577857Y-2302476D01*
X2577857Y-2302476D02*
X2558810Y-2292952D01*
X2558810Y-2292952D02*
X2549286Y-2283429D01*
X2854048Y-2302476D02*
X2739762Y-2302476D01*
X2796905Y-2302476D02*
X2796905Y-2102476D01*
X2796905Y-2102476D02*
X2777857Y-2131048D01*
X2777857Y-2131048D02*
X2758810Y-2150095D01*
X2758810Y-2150095D02*
X2739762Y-2159619D01*
X2930238Y-2121524D02*
X2939762Y-2112000D01*
X2939762Y-2112000D02*
X2958810Y-2102476D01*
X2958810Y-2102476D02*
X3006429Y-2102476D01*
X3006429Y-2102476D02*
X3025476Y-2112000D01*
X3025476Y-2112000D02*
X3035000Y-2121524D01*
X3035000Y-2121524D02*
X3044524Y-2140571D01*
X3044524Y-2140571D02*
X3044524Y-2159619D01*
X3044524Y-2159619D02*
X3035000Y-2188190D01*
X3035000Y-2188190D02*
X2920714Y-2302476D01*
X2920714Y-2302476D02*
X3044524Y-2302476D01*
X3120714Y-2102476D02*
X3120714Y-2140571D01*
X3196905Y-2102476D02*
X3196905Y-2140571D01*
X3459762Y-2378667D02*
X3450238Y-2369143D01*
X3450238Y-2369143D02*
X3431191Y-2340571D01*
X3431191Y-2340571D02*
X3421667Y-2321524D01*
X3421667Y-2321524D02*
X3412143Y-2292952D01*
X3412143Y-2292952D02*
X3402619Y-2245333D01*
X3402619Y-2245333D02*
X3402619Y-2207238D01*
X3402619Y-2207238D02*
X3412143Y-2159619D01*
X3412143Y-2159619D02*
X3421667Y-2131048D01*
X3421667Y-2131048D02*
X3431191Y-2112000D01*
X3431191Y-2112000D02*
X3450238Y-2083428D01*
X3450238Y-2083428D02*
X3459762Y-2073905D01*
X3526429Y-2121524D02*
X3535952Y-2112000D01*
X3535952Y-2112000D02*
X3555000Y-2102476D01*
X3555000Y-2102476D02*
X3602619Y-2102476D01*
X3602619Y-2102476D02*
X3621667Y-2112000D01*
X3621667Y-2112000D02*
X3631191Y-2121524D01*
X3631191Y-2121524D02*
X3640714Y-2140571D01*
X3640714Y-2140571D02*
X3640714Y-2159619D01*
X3640714Y-2159619D02*
X3631191Y-2188190D01*
X3631191Y-2188190D02*
X3516905Y-2302476D01*
X3516905Y-2302476D02*
X3640714Y-2302476D01*
X3846429Y-2302476D02*
X3846429Y-2102476D01*
X3932143Y-2302476D02*
X3932143Y-2197714D01*
X3932143Y-2197714D02*
X3922619Y-2178667D01*
X3922619Y-2178667D02*
X3903572Y-2169143D01*
X3903572Y-2169143D02*
X3875000Y-2169143D01*
X3875000Y-2169143D02*
X3855952Y-2178667D01*
X3855952Y-2178667D02*
X3846429Y-2188190D01*
X4055952Y-2302476D02*
X4036905Y-2292952D01*
X4036905Y-2292952D02*
X4027381Y-2283429D01*
X4027381Y-2283429D02*
X4017857Y-2264381D01*
X4017857Y-2264381D02*
X4017857Y-2207238D01*
X4017857Y-2207238D02*
X4027381Y-2188190D01*
X4027381Y-2188190D02*
X4036905Y-2178667D01*
X4036905Y-2178667D02*
X4055952Y-2169143D01*
X4055952Y-2169143D02*
X4084524Y-2169143D01*
X4084524Y-2169143D02*
X4103572Y-2178667D01*
X4103572Y-2178667D02*
X4113095Y-2188190D01*
X4113095Y-2188190D02*
X4122619Y-2207238D01*
X4122619Y-2207238D02*
X4122619Y-2264381D01*
X4122619Y-2264381D02*
X4113095Y-2283429D01*
X4113095Y-2283429D02*
X4103572Y-2292952D01*
X4103572Y-2292952D02*
X4084524Y-2302476D01*
X4084524Y-2302476D02*
X4055952Y-2302476D01*
X4236905Y-2302476D02*
X4217857Y-2292952D01*
X4217857Y-2292952D02*
X4208334Y-2273905D01*
X4208334Y-2273905D02*
X4208334Y-2102476D01*
X4389286Y-2292952D02*
X4370238Y-2302476D01*
X4370238Y-2302476D02*
X4332143Y-2302476D01*
X4332143Y-2302476D02*
X4313095Y-2292952D01*
X4313095Y-2292952D02*
X4303572Y-2273905D01*
X4303572Y-2273905D02*
X4303572Y-2197714D01*
X4303572Y-2197714D02*
X4313095Y-2178667D01*
X4313095Y-2178667D02*
X4332143Y-2169143D01*
X4332143Y-2169143D02*
X4370238Y-2169143D01*
X4370238Y-2169143D02*
X4389286Y-2178667D01*
X4389286Y-2178667D02*
X4398810Y-2197714D01*
X4398810Y-2197714D02*
X4398810Y-2216762D01*
X4398810Y-2216762D02*
X4303572Y-2235810D01*
X4475000Y-2292952D02*
X4494048Y-2302476D01*
X4494048Y-2302476D02*
X4532143Y-2302476D01*
X4532143Y-2302476D02*
X4551191Y-2292952D01*
X4551191Y-2292952D02*
X4560715Y-2273905D01*
X4560715Y-2273905D02*
X4560715Y-2264381D01*
X4560715Y-2264381D02*
X4551191Y-2245333D01*
X4551191Y-2245333D02*
X4532143Y-2235810D01*
X4532143Y-2235810D02*
X4503572Y-2235810D01*
X4503572Y-2235810D02*
X4484524Y-2226286D01*
X4484524Y-2226286D02*
X4475000Y-2207238D01*
X4475000Y-2207238D02*
X4475000Y-2197714D01*
X4475000Y-2197714D02*
X4484524Y-2178667D01*
X4484524Y-2178667D02*
X4503572Y-2169143D01*
X4503572Y-2169143D02*
X4532143Y-2169143D01*
X4532143Y-2169143D02*
X4551191Y-2178667D01*
X4627381Y-2378667D02*
X4636905Y-2369143D01*
X4636905Y-2369143D02*
X4655953Y-2340571D01*
X4655953Y-2340571D02*
X4665476Y-2321524D01*
X4665476Y-2321524D02*
X4675000Y-2292952D01*
X4675000Y-2292952D02*
X4684524Y-2245333D01*
X4684524Y-2245333D02*
X4684524Y-2207238D01*
X4684524Y-2207238D02*
X4675000Y-2159619D01*
X4675000Y-2159619D02*
X4665476Y-2131048D01*
X4665476Y-2131048D02*
X4655953Y-2112000D01*
X4655953Y-2112000D02*
X4636905Y-2083428D01*
X4636905Y-2083428D02*
X4627381Y-2073905D01*
D18*
X-145000Y-2423000D02*
X-5000Y-2563000D01*
X-5000Y-2423000D02*
X-145000Y-2563000D01*
X-25502Y-2542498D02*
X-25502Y-2443502D01*
X-124498Y-2443502D01*
X-124498Y-2542498D01*
X-25502Y-2542498D01*
D11*
X347381Y-2566476D02*
X233095Y-2566476D01*
X290238Y-2566476D02*
X290238Y-2366476D01*
X290238Y-2366476D02*
X271190Y-2395048D01*
X271190Y-2395048D02*
X252143Y-2414095D01*
X252143Y-2414095D02*
X233095Y-2423619D01*
X433095Y-2547429D02*
X442619Y-2556952D01*
X442619Y-2556952D02*
X433095Y-2566476D01*
X433095Y-2566476D02*
X423571Y-2556952D01*
X423571Y-2556952D02*
X433095Y-2547429D01*
X433095Y-2547429D02*
X433095Y-2566476D01*
X614048Y-2433143D02*
X614048Y-2566476D01*
X566429Y-2356952D02*
X518809Y-2499810D01*
X518809Y-2499810D02*
X642619Y-2499810D01*
X756905Y-2366476D02*
X775952Y-2366476D01*
X775952Y-2366476D02*
X795000Y-2376000D01*
X795000Y-2376000D02*
X804524Y-2385524D01*
X804524Y-2385524D02*
X814048Y-2404571D01*
X814048Y-2404571D02*
X823571Y-2442667D01*
X823571Y-2442667D02*
X823571Y-2490286D01*
X823571Y-2490286D02*
X814048Y-2528381D01*
X814048Y-2528381D02*
X804524Y-2547429D01*
X804524Y-2547429D02*
X795000Y-2556952D01*
X795000Y-2556952D02*
X775952Y-2566476D01*
X775952Y-2566476D02*
X756905Y-2566476D01*
X756905Y-2566476D02*
X737857Y-2556952D01*
X737857Y-2556952D02*
X728333Y-2547429D01*
X728333Y-2547429D02*
X718809Y-2528381D01*
X718809Y-2528381D02*
X709286Y-2490286D01*
X709286Y-2490286D02*
X709286Y-2442667D01*
X709286Y-2442667D02*
X718809Y-2404571D01*
X718809Y-2404571D02*
X728333Y-2385524D01*
X728333Y-2385524D02*
X737857Y-2376000D01*
X737857Y-2376000D02*
X756905Y-2366476D01*
X947381Y-2366476D02*
X966429Y-2366476D01*
X966429Y-2366476D02*
X985476Y-2376000D01*
X985476Y-2376000D02*
X995000Y-2385524D01*
X995000Y-2385524D02*
X1004524Y-2404571D01*
X1004524Y-2404571D02*
X1014048Y-2442667D01*
X1014048Y-2442667D02*
X1014048Y-2490286D01*
X1014048Y-2490286D02*
X1004524Y-2528381D01*
X1004524Y-2528381D02*
X995000Y-2547429D01*
X995000Y-2547429D02*
X985476Y-2556952D01*
X985476Y-2556952D02*
X966429Y-2566476D01*
X966429Y-2566476D02*
X947381Y-2566476D01*
X947381Y-2566476D02*
X928333Y-2556952D01*
X928333Y-2556952D02*
X918809Y-2547429D01*
X918809Y-2547429D02*
X909286Y-2528381D01*
X909286Y-2528381D02*
X899762Y-2490286D01*
X899762Y-2490286D02*
X899762Y-2442667D01*
X899762Y-2442667D02*
X909286Y-2404571D01*
X909286Y-2404571D02*
X918809Y-2385524D01*
X918809Y-2385524D02*
X928333Y-2376000D01*
X928333Y-2376000D02*
X947381Y-2366476D01*
X1099762Y-2566476D02*
X1099762Y-2433143D01*
X1099762Y-2452190D02*
X1109286Y-2442667D01*
X1109286Y-2442667D02*
X1128333Y-2433143D01*
X1128333Y-2433143D02*
X1156905Y-2433143D01*
X1156905Y-2433143D02*
X1175952Y-2442667D01*
X1175952Y-2442667D02*
X1185476Y-2461714D01*
X1185476Y-2461714D02*
X1185476Y-2566476D01*
X1185476Y-2461714D02*
X1195000Y-2442667D01*
X1195000Y-2442667D02*
X1214048Y-2433143D01*
X1214048Y-2433143D02*
X1242619Y-2433143D01*
X1242619Y-2433143D02*
X1261667Y-2442667D01*
X1261667Y-2442667D02*
X1271191Y-2461714D01*
X1271191Y-2461714D02*
X1271191Y-2566476D01*
X1366429Y-2566476D02*
X1366429Y-2433143D01*
X1366429Y-2452190D02*
X1375952Y-2442667D01*
X1375952Y-2442667D02*
X1395000Y-2433143D01*
X1395000Y-2433143D02*
X1423571Y-2433143D01*
X1423571Y-2433143D02*
X1442619Y-2442667D01*
X1442619Y-2442667D02*
X1452143Y-2461714D01*
X1452143Y-2461714D02*
X1452143Y-2566476D01*
X1452143Y-2461714D02*
X1461667Y-2442667D01*
X1461667Y-2442667D02*
X1480714Y-2433143D01*
X1480714Y-2433143D02*
X1509286Y-2433143D01*
X1509286Y-2433143D02*
X1528333Y-2442667D01*
X1528333Y-2442667D02*
X1537857Y-2461714D01*
X1537857Y-2461714D02*
X1537857Y-2566476D01*
X1895952Y-2356952D02*
X1724524Y-2614095D01*
X2120714Y-2366476D02*
X2139762Y-2366476D01*
X2139762Y-2366476D02*
X2158810Y-2376000D01*
X2158810Y-2376000D02*
X2168333Y-2385524D01*
X2168333Y-2385524D02*
X2177857Y-2404571D01*
X2177857Y-2404571D02*
X2187381Y-2442667D01*
X2187381Y-2442667D02*
X2187381Y-2490286D01*
X2187381Y-2490286D02*
X2177857Y-2528381D01*
X2177857Y-2528381D02*
X2168333Y-2547429D01*
X2168333Y-2547429D02*
X2158810Y-2556952D01*
X2158810Y-2556952D02*
X2139762Y-2566476D01*
X2139762Y-2566476D02*
X2120714Y-2566476D01*
X2120714Y-2566476D02*
X2101667Y-2556952D01*
X2101667Y-2556952D02*
X2092143Y-2547429D01*
X2092143Y-2547429D02*
X2082619Y-2528381D01*
X2082619Y-2528381D02*
X2073095Y-2490286D01*
X2073095Y-2490286D02*
X2073095Y-2442667D01*
X2073095Y-2442667D02*
X2082619Y-2404571D01*
X2082619Y-2404571D02*
X2092143Y-2385524D01*
X2092143Y-2385524D02*
X2101667Y-2376000D01*
X2101667Y-2376000D02*
X2120714Y-2366476D01*
X2273095Y-2547429D02*
X2282619Y-2556952D01*
X2282619Y-2556952D02*
X2273095Y-2566476D01*
X2273095Y-2566476D02*
X2263572Y-2556952D01*
X2263572Y-2556952D02*
X2273095Y-2547429D01*
X2273095Y-2547429D02*
X2273095Y-2566476D01*
X2406429Y-2366476D02*
X2425476Y-2366476D01*
X2425476Y-2366476D02*
X2444524Y-2376000D01*
X2444524Y-2376000D02*
X2454048Y-2385524D01*
X2454048Y-2385524D02*
X2463572Y-2404571D01*
X2463572Y-2404571D02*
X2473095Y-2442667D01*
X2473095Y-2442667D02*
X2473095Y-2490286D01*
X2473095Y-2490286D02*
X2463572Y-2528381D01*
X2463572Y-2528381D02*
X2454048Y-2547429D01*
X2454048Y-2547429D02*
X2444524Y-2556952D01*
X2444524Y-2556952D02*
X2425476Y-2566476D01*
X2425476Y-2566476D02*
X2406429Y-2566476D01*
X2406429Y-2566476D02*
X2387381Y-2556952D01*
X2387381Y-2556952D02*
X2377857Y-2547429D01*
X2377857Y-2547429D02*
X2368333Y-2528381D01*
X2368333Y-2528381D02*
X2358810Y-2490286D01*
X2358810Y-2490286D02*
X2358810Y-2442667D01*
X2358810Y-2442667D02*
X2368333Y-2404571D01*
X2368333Y-2404571D02*
X2377857Y-2385524D01*
X2377857Y-2385524D02*
X2387381Y-2376000D01*
X2387381Y-2376000D02*
X2406429Y-2366476D01*
X2654048Y-2366476D02*
X2558810Y-2366476D01*
X2558810Y-2366476D02*
X2549286Y-2461714D01*
X2549286Y-2461714D02*
X2558810Y-2452190D01*
X2558810Y-2452190D02*
X2577857Y-2442667D01*
X2577857Y-2442667D02*
X2625476Y-2442667D01*
X2625476Y-2442667D02*
X2644524Y-2452190D01*
X2644524Y-2452190D02*
X2654048Y-2461714D01*
X2654048Y-2461714D02*
X2663572Y-2480762D01*
X2663572Y-2480762D02*
X2663572Y-2528381D01*
X2663572Y-2528381D02*
X2654048Y-2547429D01*
X2654048Y-2547429D02*
X2644524Y-2556952D01*
X2644524Y-2556952D02*
X2625476Y-2566476D01*
X2625476Y-2566476D02*
X2577857Y-2566476D01*
X2577857Y-2566476D02*
X2558810Y-2556952D01*
X2558810Y-2556952D02*
X2549286Y-2547429D01*
X2844524Y-2366476D02*
X2749286Y-2366476D01*
X2749286Y-2366476D02*
X2739762Y-2461714D01*
X2739762Y-2461714D02*
X2749286Y-2452190D01*
X2749286Y-2452190D02*
X2768333Y-2442667D01*
X2768333Y-2442667D02*
X2815952Y-2442667D01*
X2815952Y-2442667D02*
X2835000Y-2452190D01*
X2835000Y-2452190D02*
X2844524Y-2461714D01*
X2844524Y-2461714D02*
X2854048Y-2480762D01*
X2854048Y-2480762D02*
X2854048Y-2528381D01*
X2854048Y-2528381D02*
X2844524Y-2547429D01*
X2844524Y-2547429D02*
X2835000Y-2556952D01*
X2835000Y-2556952D02*
X2815952Y-2566476D01*
X2815952Y-2566476D02*
X2768333Y-2566476D01*
X2768333Y-2566476D02*
X2749286Y-2556952D01*
X2749286Y-2556952D02*
X2739762Y-2547429D01*
X3044524Y-2566476D02*
X2930238Y-2566476D01*
X2987381Y-2566476D02*
X2987381Y-2366476D01*
X2987381Y-2366476D02*
X2968333Y-2395048D01*
X2968333Y-2395048D02*
X2949286Y-2414095D01*
X2949286Y-2414095D02*
X2930238Y-2423619D01*
X3120714Y-2366476D02*
X3120714Y-2404571D01*
X3196905Y-2366476D02*
X3196905Y-2404571D01*
X3459762Y-2642667D02*
X3450238Y-2633143D01*
X3450238Y-2633143D02*
X3431191Y-2604571D01*
X3431191Y-2604571D02*
X3421667Y-2585524D01*
X3421667Y-2585524D02*
X3412143Y-2556952D01*
X3412143Y-2556952D02*
X3402619Y-2509333D01*
X3402619Y-2509333D02*
X3402619Y-2471238D01*
X3402619Y-2471238D02*
X3412143Y-2423619D01*
X3412143Y-2423619D02*
X3421667Y-2395048D01*
X3421667Y-2395048D02*
X3431191Y-2376000D01*
X3431191Y-2376000D02*
X3450238Y-2347429D01*
X3450238Y-2347429D02*
X3459762Y-2337905D01*
X3526429Y-2385524D02*
X3535952Y-2376000D01*
X3535952Y-2376000D02*
X3555000Y-2366476D01*
X3555000Y-2366476D02*
X3602619Y-2366476D01*
X3602619Y-2366476D02*
X3621667Y-2376000D01*
X3621667Y-2376000D02*
X3631191Y-2385524D01*
X3631191Y-2385524D02*
X3640714Y-2404571D01*
X3640714Y-2404571D02*
X3640714Y-2423619D01*
X3640714Y-2423619D02*
X3631191Y-2452190D01*
X3631191Y-2452190D02*
X3516905Y-2566476D01*
X3516905Y-2566476D02*
X3640714Y-2566476D01*
X3846429Y-2566476D02*
X3846429Y-2366476D01*
X3932143Y-2566476D02*
X3932143Y-2461714D01*
X3932143Y-2461714D02*
X3922619Y-2442667D01*
X3922619Y-2442667D02*
X3903572Y-2433143D01*
X3903572Y-2433143D02*
X3875000Y-2433143D01*
X3875000Y-2433143D02*
X3855952Y-2442667D01*
X3855952Y-2442667D02*
X3846429Y-2452190D01*
X4055952Y-2566476D02*
X4036905Y-2556952D01*
X4036905Y-2556952D02*
X4027381Y-2547429D01*
X4027381Y-2547429D02*
X4017857Y-2528381D01*
X4017857Y-2528381D02*
X4017857Y-2471238D01*
X4017857Y-2471238D02*
X4027381Y-2452190D01*
X4027381Y-2452190D02*
X4036905Y-2442667D01*
X4036905Y-2442667D02*
X4055952Y-2433143D01*
X4055952Y-2433143D02*
X4084524Y-2433143D01*
X4084524Y-2433143D02*
X4103572Y-2442667D01*
X4103572Y-2442667D02*
X4113095Y-2452190D01*
X4113095Y-2452190D02*
X4122619Y-2471238D01*
X4122619Y-2471238D02*
X4122619Y-2528381D01*
X4122619Y-2528381D02*
X4113095Y-2547429D01*
X4113095Y-2547429D02*
X4103572Y-2556952D01*
X4103572Y-2556952D02*
X4084524Y-2566476D01*
X4084524Y-2566476D02*
X4055952Y-2566476D01*
X4236905Y-2566476D02*
X4217857Y-2556952D01*
X4217857Y-2556952D02*
X4208334Y-2537905D01*
X4208334Y-2537905D02*
X4208334Y-2366476D01*
X4389286Y-2556952D02*
X4370238Y-2566476D01*
X4370238Y-2566476D02*
X4332143Y-2566476D01*
X4332143Y-2566476D02*
X4313095Y-2556952D01*
X4313095Y-2556952D02*
X4303572Y-2537905D01*
X4303572Y-2537905D02*
X4303572Y-2461714D01*
X4303572Y-2461714D02*
X4313095Y-2442667D01*
X4313095Y-2442667D02*
X4332143Y-2433143D01*
X4332143Y-2433143D02*
X4370238Y-2433143D01*
X4370238Y-2433143D02*
X4389286Y-2442667D01*
X4389286Y-2442667D02*
X4398810Y-2461714D01*
X4398810Y-2461714D02*
X4398810Y-2480762D01*
X4398810Y-2480762D02*
X4303572Y-2499810D01*
X4475000Y-2556952D02*
X4494048Y-2566476D01*
X4494048Y-2566476D02*
X4532143Y-2566476D01*
X4532143Y-2566476D02*
X4551191Y-2556952D01*
X4551191Y-2556952D02*
X4560715Y-2537905D01*
X4560715Y-2537905D02*
X4560715Y-2528381D01*
X4560715Y-2528381D02*
X4551191Y-2509333D01*
X4551191Y-2509333D02*
X4532143Y-2499810D01*
X4532143Y-2499810D02*
X4503572Y-2499810D01*
X4503572Y-2499810D02*
X4484524Y-2490286D01*
X4484524Y-2490286D02*
X4475000Y-2471238D01*
X4475000Y-2471238D02*
X4475000Y-2461714D01*
X4475000Y-2461714D02*
X4484524Y-2442667D01*
X4484524Y-2442667D02*
X4503572Y-2433143D01*
X4503572Y-2433143D02*
X4532143Y-2433143D01*
X4532143Y-2433143D02*
X4551191Y-2442667D01*
X4627381Y-2642667D02*
X4636905Y-2633143D01*
X4636905Y-2633143D02*
X4655953Y-2604571D01*
X4655953Y-2604571D02*
X4665476Y-2585524D01*
X4665476Y-2585524D02*
X4675000Y-2556952D01*
X4675000Y-2556952D02*
X4684524Y-2509333D01*
X4684524Y-2509333D02*
X4684524Y-2471238D01*
X4684524Y-2471238D02*
X4675000Y-2423619D01*
X4675000Y-2423619D02*
X4665476Y-2395048D01*
X4665476Y-2395048D02*
X4655953Y-2376000D01*
X4655953Y-2376000D02*
X4636905Y-2347429D01*
X4636905Y-2347429D02*
X4627381Y-2337905D01*
M02*
