M48
; DRILL file {KiCad 7.0.2} date Wed May 10 16:09:57 2023
; FORMAT={-:-/ absolute / inch / decimal}
; #@! TF.CreationDate,2023-05-10T16:09:57-03:00
; #@! TF.GenerationSoftware,Kicad,Pcbnew,7.0.2
; #@! TF.FileFunction,Plated,1,2,PTH
FMAT,2
INCH
; #@! TA.AperFunction,Plated,PTH,ViaDrill
T1C0.0276
; #@! TA.AperFunction,Plated,PTH,ComponentDrill
T2C0.0280
; #@! TA.AperFunction,Plated,PTH,ComponentDrill
T3C0.0315
; #@! TA.AperFunction,Plated,PTH,ComponentDrill
T4C0.0354
; #@! TA.AperFunction,Plated,PTH,ComponentDrill
T5C0.0394
; #@! TA.AperFunction,Plated,PTH,ComponentDrill
T6C0.0433
; #@! TA.AperFunction,Plated,PTH,ComponentDrill
T7C0.0512
; #@! TA.AperFunction,Plated,PTH,ComponentDrill
T8C0.0551
%
G90
G05
T1
X0.2362Y2.2638
X0.2362Y1.5551
X0.5118Y0.4134
X0.5118Y0.0591
X0.6693Y3.189
X0.748Y1.0236
X1.1024Y2.2539
X1.2205Y3.5433
X1.2205Y3.189
X1.4567Y0.0591
X1.9291Y3.189
X1.9291Y2.2835
X1.9291Y2.2835
X1.9291Y1.9094
X2.3228Y2.2835
X2.3228Y1.9488
X3.2283Y3.8189
X3.5039Y0.315
X3.7402Y1.8307
X3.7402Y0.6299
X3.8583Y3.8189
X3.8583Y2.7953
X3.8583Y2.126
T2
X2.2421Y3.8031
X2.4429Y3.7559
T3
X0.1476Y0.9087
X0.1476Y0.5087
X0.4035Y0.8988
X0.4035Y0.4988
X0.6201Y0.8988
X0.6201Y0.4988
X0.876Y0.8988
X0.876Y0.4988
X1.0827Y0.8988
X1.0827Y0.4988
X1.2205Y3.7795
X1.5205Y3.7795
X2.2835Y0.6362
X2.2835Y0.2362
X2.4409Y1.8307
X2.4409Y1.4307
X2.4409Y0.6362
X2.4409Y0.2362
X2.8134Y3.4154
X2.8346Y1.8307
X2.8346Y1.4307
X2.8346Y0.6362
X2.8346Y0.2362
X2.8496Y3.1496
X2.9134Y3.5154
X3.0134Y3.4154
X3.0315Y0.6362
X3.0315Y0.2362
X3.1673Y3.42
X3.1827Y2.1654
X3.1858Y0.7087
X3.2065Y0.1998
X3.3051Y3.42
X3.3065Y0.1998
X3.4065Y0.1998
X3.4496Y3.1496
X3.4614Y3.3071
X3.5827Y2.1654
X3.5858Y0.7087
X3.8614Y3.3071
T4
X3.6417Y3.1693
X3.6417Y3.0693
T5
X0.1543Y2.5591
X0.1543Y1.9591
X0.2543Y2.5591
X0.2543Y1.9591
X0.3543Y2.5591
X0.3543Y1.9591
X0.4543Y2.5591
X0.4543Y1.9591
X0.5543Y2.5591
X0.5543Y1.9591
X0.6543Y2.5591
X0.6543Y1.9591
X0.7543Y2.5591
X0.7543Y1.9591
X0.8543Y2.5591
X0.8543Y1.9591
X0.9543Y2.5591
X0.9543Y1.9591
X1.0543Y2.5591
X1.0543Y1.9591
X1.1543Y2.5591
X1.1543Y1.9591
X1.2543Y2.5591
X1.2543Y1.9591
X1.3543Y2.5591
X1.3543Y1.9591
X1.4543Y2.5591
X1.4543Y1.9591
X1.4744Y0.5315
X1.4748Y0.8661
X1.5543Y2.5591
X1.5543Y1.9591
X1.5744Y0.5315
X1.5748Y0.8661
X1.6744Y0.5315
X1.6748Y0.8661
X1.7744Y0.5315
X1.7748Y0.8661
X1.8744Y0.5315
X2.074Y2.5197
X2.074Y0.9449
X2.0866Y0.5413
X2.0866Y0.2461
X2.174Y2.5197
X2.174Y0.9449
X2.274Y2.5197
X2.274Y0.9449
X2.374Y2.5197
X2.374Y0.9449
X2.474Y2.5197
X2.474Y0.9449
X2.574Y2.5197
X2.574Y0.9449
X2.6378Y1.4567
X2.6378Y1.3567
X2.6378Y1.2567
X2.6378Y0.5315
X2.6378Y0.2362
X2.6476Y2.1654
X2.674Y2.5197
X2.674Y0.9449
X2.774Y2.5197
X2.774Y0.9449
X2.8724Y3.6811
X2.874Y2.5197
X2.874Y0.9449
X2.9429Y2.1654
X2.9724Y3.6811
X2.974Y2.5197
X2.974Y0.9449
X3.0118Y1.4567
X3.0118Y1.3567
X3.0118Y1.2567
X3.0724Y3.6811
X3.074Y2.5197
X3.074Y0.9449
X3.1594Y2.9528
X3.174Y2.5197
X3.174Y0.9449
X3.1988Y0.4724
X3.274Y2.5197
X3.274Y0.9449
X3.3071Y1.4567
X3.3071Y1.3567
X3.3071Y1.2567
X3.374Y2.5197
X3.374Y0.9449
X3.4547Y2.9528
X3.474Y2.5197
X3.474Y0.9449
X3.4941Y0.4724
X3.5039Y1.4567
X3.5039Y1.3567
X3.5039Y1.2567
X3.574Y2.5197
X3.574Y0.9449
X3.7106Y3.7547
X3.7106Y3.6547
X3.7106Y3.5547
X3.7106Y3.4547
T6
X0.1476Y0.3248
X0.1476Y0.1476
X0.4035Y0.3248
X0.4035Y0.1476
X0.6201Y0.3248
X0.6201Y0.1476
X0.876Y0.3248
X0.876Y0.1476
X1.0925Y0.3248
X1.0925Y0.1476
X1.3484Y0.3248
X1.3484Y0.1476
X1.565Y0.3248
X1.565Y0.1476
X1.6866Y3.7795
X1.8209Y0.3248
X1.8209Y0.1476
X2.0866Y3.7795
X2.6378Y3.6752
X2.6378Y3.1752
T7
X0.7874Y3.6614
X0.9843Y3.6614
T8
X1.4311Y3.5433
X2.4311Y3.5433
T5
G00X0.315Y3.6575
M15
G01X0.315Y3.5866
M16
G05
G00X0.3976Y3.437
M15
G01X0.4685Y3.437
M16
G05
G00X0.5512Y3.6575
M15
G01X0.5512Y3.5866
M16
G05
T0
M30
