M48
; DRILL file {KiCad 7.0.0-rc1-unknown-098b03e17a~164~ubuntu22.04.1} date Fri 20 Jan 2023 19:20:08 -03
; FORMAT={-:-/ absolute / metric / decimal}
; #@! TF.CreationDate,2023-01-20T19:20:08-03:00
; #@! TF.GenerationSoftware,Kicad,Pcbnew,7.0.0-rc1-unknown-098b03e17a~164~ubuntu22.04.1
; #@! TF.FileFunction,Plated,1,2,PTH
FMAT,2
METRIC
; #@! TA.AperFunction,Plated,PTH,ViaDrill
T1C0.700
; #@! TA.AperFunction,Plated,PTH,ComponentDrill
T2C0.710
; #@! TA.AperFunction,Plated,PTH,ComponentDrill
T3C0.800
; #@! TA.AperFunction,Plated,PTH,ComponentDrill
T4C0.900
; #@! TA.AperFunction,Plated,PTH,ComponentDrill
T5C1.000
; #@! TA.AperFunction,Plated,PTH,ComponentDrill
T6C1.100
; #@! TA.AperFunction,Plated,PTH,ComponentDrill
T7C1.300
; #@! TA.AperFunction,Plated,PTH,ComponentDrill
T8C1.400
%
G90
G05
T1
X6.0Y57.5
X6.0Y39.5
X13.0Y10.5
X13.0Y1.5
X17.0Y81.0
X19.0Y26.0
X28.0Y57.25
X31.0Y90.0
X31.0Y81.0
X37.0Y1.5
X49.0Y81.0
X49.0Y58.0
X49.0Y58.0
X49.0Y48.5
X59.0Y58.0
X59.0Y49.5
X82.0Y97.0
X89.0Y8.0
X95.0Y46.5
X95.0Y16.0
X98.0Y97.0
X98.0Y71.0
X98.0Y54.0
T2
X56.95Y96.6
X62.05Y95.4
T3
X3.75Y23.08
X3.75Y12.92
X10.25Y22.83
X10.25Y12.67
X15.75Y22.83
X15.75Y12.67
X22.25Y22.83
X22.25Y12.67
X27.5Y22.83
X27.5Y12.67
X31.0Y96.0
X38.62Y96.0
X58.0Y16.16
X58.0Y6.0
X62.0Y46.5
X62.0Y36.34
X62.0Y16.16
X62.0Y6.0
X71.46Y86.75
X72.0Y46.5
X72.0Y36.34
X72.0Y16.16
X72.0Y6.0
X72.38Y80.0
X74.0Y89.29
X76.54Y86.75
X77.0Y16.16
X77.0Y6.0
X80.84Y55.0
X80.92Y18.0
X81.445Y5.075
X81.5Y87.0
X83.985Y5.075
X84.0Y87.0
X86.525Y5.075
X87.62Y80.0
X87.92Y84.0
X91.0Y55.0
X91.08Y18.0
X98.08Y84.0
T4
X92.5Y80.5
X92.5Y77.96
T5
X3.92Y65.0
X3.92Y49.76
X6.46Y65.0
X6.46Y49.76
X9.0Y65.0
X9.0Y49.76
X11.54Y65.0
X11.54Y49.76
X14.08Y65.0
X14.08Y49.76
X16.62Y65.0
X16.62Y49.76
X19.16Y65.0
X19.16Y49.76
X21.7Y65.0
X21.7Y49.76
X24.24Y65.0
X24.24Y49.76
X26.78Y65.0
X26.78Y49.76
X29.32Y65.0
X29.32Y49.76
X31.86Y65.0
X31.86Y49.76
X34.4Y65.0
X34.4Y49.76
X36.94Y65.0
X36.94Y49.76
X37.45Y13.5
X37.46Y22.0
X39.48Y65.0
X39.48Y49.76
X39.99Y13.5
X40.0Y22.0
X42.53Y13.5
X42.54Y22.0
X45.07Y13.5
X45.08Y22.0
X47.61Y13.5
X52.68Y64.0
X52.68Y24.0
X53.0Y13.75
X53.0Y6.25
X55.22Y64.0
X55.22Y24.0
X57.76Y64.0
X57.76Y24.0
X60.3Y64.0
X60.3Y24.0
X62.84Y64.0
X62.84Y24.0
X65.38Y64.0
X65.38Y24.0
X67.0Y37.0
X67.0Y34.46
X67.0Y31.92
X67.0Y13.5
X67.0Y6.0
X67.25Y55.0
X67.92Y64.0
X67.92Y24.0
X70.46Y64.0
X70.46Y24.0
X72.96Y93.5
X73.0Y64.0
X73.0Y24.0
X74.75Y55.0
X75.5Y93.5
X75.54Y64.0
X75.54Y24.0
X76.5Y37.0
X76.5Y34.46
X76.5Y31.92
X78.04Y93.5
X78.08Y64.0
X78.08Y24.0
X80.25Y75.0
X80.62Y64.0
X80.62Y24.0
X81.25Y12.0
X83.16Y64.0
X83.16Y24.0
X84.0Y37.0
X84.0Y34.46
X84.0Y31.92
X85.7Y64.0
X85.7Y24.0
X87.75Y75.0
X88.24Y64.0
X88.24Y24.0
X88.75Y12.0
X89.0Y37.0
X89.0Y34.46
X89.0Y31.92
X90.78Y64.0
X90.78Y24.0
X94.25Y95.37
X94.25Y92.83
X94.25Y90.29
X94.25Y87.75
T6
X3.75Y8.25
X3.75Y3.75
X10.25Y8.25
X10.25Y3.75
X15.75Y8.25
X15.75Y3.75
X22.25Y8.25
X22.25Y3.75
X27.75Y8.25
X27.75Y3.75
X34.25Y8.25
X34.25Y3.75
X39.75Y8.25
X39.75Y3.75
X42.84Y96.0
X46.25Y8.25
X46.25Y3.75
X53.0Y96.0
X67.0Y93.35
X67.0Y80.65
T7
X20.0Y93.0
X25.0Y93.0
T8
X36.35Y90.0
X61.75Y90.0
T5
G00X8.0Y92.9
M15
G01X8.0Y91.1
M16
G05
G00X10.1Y87.3
M15
G01X11.9Y87.3
M16
G05
G00X14.0Y92.9
M15
G01X14.0Y91.1
M16
G05
T0
M30
